<svg width="52" height="77" viewBox="0 0 52 77" fill="none" xmlns="http://www.w3.org/2000/svg">
<g filter="url(#filter0_d_1814_22612)">
<rect x="24.5" y="39" width="3" height="30" rx="1.5" fill="#FF8700"/>
<circle cx="26" cy="24" r="20" fill="#FF8700"/>
<path d="M18.5918 34.5472C19.067 33.2474 19.5301 31.9621 20.0012 30.6768C23.4844 28.7175 26.9676 26.7534 30.467 24.7844C31.667 28.0435 32.8629 31.2881 34.067 34.5472C28.9045 34.5472 23.7623 34.5472 18.5918 34.5472Z" fill="white"/>
<path d="M28.3967 24.0767C25.143 25.8771 21.9054 27.6679 18.6719 29.4539C18.688 29.2999 19.7672 26.3152 20.5605 24.1874C21.2128 22.4351 21.845 20.6732 22.4893 18.916C23.1336 17.1589 23.7739 15.4018 24.4182 13.6447C24.4262 13.6447 24.4343 13.6399 24.4423 13.6399C24.4464 13.6399 24.4585 13.6399 24.4585 13.6447C25.7672 17.1156 27.0759 20.5817 28.3967 24.0767Z" fill="white"/>
</g>
<defs>
<filter id="filter0_d_1814_22612" x="0" y="0" width="52" height="77" filterUnits="userSpaceOnUse" color-interpolation-filters="sRGB">
<feFlood flood-opacity="0" result="BackgroundImageFix"/>
<feColorMatrix in="SourceAlpha" type="matrix" values="0 0 0 0 0 0 0 0 0 0 0 0 0 0 0 0 0 0 127 0" result="hardAlpha"/>
<feOffset dy="2"/>
<feGaussianBlur stdDeviation="3"/>
<feComposite in2="hardAlpha" operator="out"/>
<feColorMatrix type="matrix" values="0 0 0 0 0.996078 0 0 0 0 0.376471 0 0 0 0 0.227451 0 0 0 0.29 0"/>
<feBlend mode="normal" in2="BackgroundImageFix" result="effect1_dropShadow_1814_22612"/>
<feBlend mode="normal" in="SourceGraphic" in2="effect1_dropShadow_1814_22612" result="shape"/>
</filter>
</defs>
</svg>
