<svg width="80" height="148" viewBox="0 0 80 148" fill="none" xmlns="http://www.w3.org/2000/svg">
<path d="M6.81693 47.9352C7.62536 46.7553 8.54537 45.6563 9.56418 44.6534C9.67178 44.5337 9.80925 44.4449 9.96242 44.3962C10.4147 44.3015 10.6779 44.8834 10.7454 45.3436C11.151 48.2645 10.7784 51.2411 9.66542 53.971C8.65967 56.4273 7.92392 59.1137 5.50742 60.5956C5.1672 60.846 4.74574 60.9594 4.32618 60.9136C4.09148 60.8411 3.88203 60.7035 3.722 60.5167C3.56196 60.3299 3.45785 60.1016 3.42168 59.858C3.11118 58.2137 1.02544 59.7971 1.44394 58.207C2.05818 55.8386 3.63768 53.7545 4.70418 51.5892C5.31864 50.3212 6.02476 49.0999 6.81693 47.9352Z" fill="#74C447"/>
<path d="M18.5407 0.541504L14.6932 27.4458L2.79297 87.324L6.84972 90.2539L66.4657 90.5246L75.4905 27.4458L79.014 2.84894L76.0102 0.541504H18.5407Z" fill="#74C447"/>
<path d="M66.4663 90.8629L6.85032 90.5922C6.77969 90.5903 6.71135 90.5667 6.65457 90.5246L2.60457 87.5946C2.55157 87.5576 2.51054 87.5058 2.48655 87.4457C2.46256 87.3856 2.45665 87.3197 2.46957 87.2563L14.3496 27.3848L18.1903 0.494059C18.2031 0.413355 18.244 0.339814 18.3058 0.286532C18.3676 0.23325 18.4463 0.203684 18.5278 0.203093H75.9973C76.0707 0.200347 76.1427 0.224387 76.1998 0.270758L79.2035 2.57819C79.2512 2.61493 79.2883 2.66379 79.3108 2.71971C79.3334 2.77562 79.3406 2.83657 79.3318 2.89623L66.8038 90.5719C66.791 90.6526 66.7501 90.7262 66.6883 90.7794C66.6265 90.8327 66.5478 90.8623 66.4663 90.8629ZM6.95832 89.9156L66.176 90.1862L78.65 2.99772L75.896 0.879759H18.8316L15.0246 27.4998L3.16481 87.1751L6.95832 89.9156Z" fill="#2D3142"/>
<path d="M72.1633 27.4458H11.3594L15.2069 0.541504H76.0108L72.1633 27.4458Z" fill="#74C447"/>
<path d="M72.1633 27.7841H11.3593C11.311 27.7836 11.2632 27.7732 11.2191 27.7534C11.175 27.7336 11.1354 27.7049 11.1028 27.669C11.0711 27.6324 11.0479 27.589 11.035 27.5422C11.0222 27.4953 11.02 27.4462 11.0286 27.3984L14.8761 0.494092C14.8874 0.413951 14.927 0.340526 14.9876 0.28714C15.0483 0.233755 15.1261 0.203947 15.2068 0.203125H76.0108C76.0592 0.203553 76.1069 0.21399 76.151 0.233785C76.1952 0.25358 76.2348 0.282305 76.2673 0.318157C76.2975 0.35575 76.3197 0.399182 76.3325 0.445747C76.3453 0.492313 76.3484 0.541016 76.3416 0.588825L72.4941 27.4999C72.4813 27.5788 72.4411 27.6506 72.3805 27.7026C72.32 27.7546 72.243 27.7835 72.1633 27.7841ZM11.7508 27.1074H71.8663L75.6193 0.879792H15.5038L11.7508 27.1074Z" fill="#2D3142"/>
<path d="M72.1627 27.4458H11.3587L2.79297 87.324H63.5902L72.1627 27.4458Z" fill="white"/>
<path d="M63.6259 87.6623H2.79488C2.74666 87.6611 2.69915 87.6503 2.65512 87.6306C2.61109 87.6108 2.57141 87.5825 2.53838 87.5473C2.50729 87.51 2.48409 87.4668 2.47016 87.4203C2.45624 87.3737 2.45189 87.3249 2.45738 87.2766L11.0299 27.3984C11.0412 27.3182 11.0808 27.2448 11.1414 27.1914C11.2021 27.1381 11.2799 27.1082 11.3606 27.1074H72.1646C72.2126 27.1084 72.2598 27.1197 72.3029 27.1408C72.346 27.1618 72.384 27.192 72.4144 27.2292C72.4473 27.2653 72.4718 27.3084 72.4858 27.3553C72.4998 27.4021 72.5031 27.4516 72.4954 27.4999L63.9296 87.3713C63.9181 87.4467 63.8821 87.516 63.8272 87.5687C63.7722 87.6213 63.7014 87.6542 63.6259 87.6623ZM3.22012 86.9856H63.3356L71.8069 27.7841H11.6509L3.22012 86.9856Z" fill="#2D3142"/>
<path d="M67.3445 21.3355H17.9277L19.9392 7.26758H69.356L67.3445 21.3355Z" fill="white"/>
<path d="M67.3447 21.6467H17.9279C17.8791 21.645 17.8312 21.6333 17.7871 21.6124C17.743 21.5914 17.7036 21.5616 17.6714 21.5249C17.6413 21.4885 17.6192 21.4462 17.6064 21.4008C17.5936 21.3553 17.5905 21.3077 17.5972 21.261L19.6222 7.19308C19.6321 7.11235 19.6713 7.0381 19.7323 6.98445C19.7933 6.9308 19.8718 6.9015 19.9529 6.90211H69.3697C69.418 6.90254 69.4658 6.91298 69.5099 6.93277C69.554 6.95257 69.5936 6.98129 69.6262 7.01714C69.6564 7.05474 69.6786 7.09817 69.6914 7.14473C69.7042 7.1913 69.7072 7.24 69.7004 7.28781L67.6754 21.3557C67.6641 21.4358 67.6245 21.5093 67.5639 21.5627C67.5032 21.616 67.4254 21.6458 67.3447 21.6467ZM18.3194 20.97H67.0477L68.9647 7.57878H20.2364L18.3194 20.97Z" fill="#2D3142"/>
<path d="M23.3486 43.0024H16.3759C16.1483 43.0092 15.9221 42.9649 15.7138 42.8727C15.5055 42.7805 15.3205 42.6427 15.1722 42.4694C15.024 42.2962 14.9164 42.0918 14.8572 41.8714C14.798 41.651 14.7887 41.4201 14.8301 41.1957L15.4039 37.1966C15.485 36.7029 15.7347 36.2529 16.1102 35.9233C16.4857 35.5938 16.9638 35.4052 17.4626 35.3899H24.4759C24.7015 35.3888 24.9245 35.4378 25.1289 35.5335C25.3333 35.6292 25.514 35.7691 25.6579 35.9432C25.8019 36.1173 25.9055 36.3212 25.9614 36.5403C26.0173 36.7594 26.024 36.9881 25.9811 37.2101L25.4074 41.2092C25.3247 41.701 25.0741 42.1486 24.6986 42.4757C24.3231 42.8028 23.8459 42.989 23.3486 43.0024Z" fill="#E6E7E8"/>
<path d="M36.4624 43.0023H29.4897C29.2623 43.0093 29.0362 42.9651 28.8281 42.8728C28.6201 42.7806 28.4354 42.6426 28.2876 42.4692C28.1399 42.2957 28.0329 42.0913 27.9746 41.8708C27.9163 41.6504 27.9081 41.4196 27.9507 41.1956L28.5244 37.21C28.6043 36.7218 28.8491 36.276 29.2177 35.9471C29.5863 35.6182 30.0565 35.4262 30.5494 35.4033H37.5289C37.7582 35.3933 37.9867 35.4353 38.1975 35.5262C38.4084 35.6171 38.596 35.7544 38.7465 35.9281C38.897 36.1017 39.0065 36.3072 39.0668 36.5291C39.1272 36.7511 39.1368 36.9838 39.0949 37.21L38.5212 41.2091C38.4384 41.7008 38.1879 42.1485 37.8124 42.4756C37.4369 42.8026 36.9597 42.9888 36.4624 43.0023Z" fill="#E6E7E8"/>
<path d="M49.5777 43.0022H42.6049C42.3775 43.0093 42.1514 42.9651 41.9434 42.8728C41.7353 42.7805 41.5506 42.6426 41.4029 42.4691C41.2551 42.2957 41.1481 42.0912 41.0898 41.8708C41.0315 41.6503 41.0233 41.4196 41.0659 41.1955L41.6329 37.1964C41.7152 36.7033 41.9652 36.2539 42.3405 35.9246C42.7158 35.5953 43.1932 35.4063 43.6916 35.3897H50.6712C50.8995 35.3835 51.1264 35.4288 51.335 35.5222C51.5436 35.6157 51.7286 35.7549 51.8764 35.9296C52.0241 36.1044 52.1308 36.3101 52.1886 36.5317C52.2463 36.7533 52.2537 36.9851 52.2102 37.21L51.6364 41.2091C51.5549 41.7014 51.3047 42.1498 50.9289 42.4771C50.5532 42.8044 50.0753 42.9901 49.5777 43.0022Z" fill="#E6E7E8"/>
<path d="M62.6934 43.0022H55.7207C55.4936 43.008 55.2682 42.963 55.0607 42.8703C54.8533 42.7776 54.6691 42.6397 54.5217 42.4665C54.3742 42.2934 54.2671 42.0895 54.2083 41.8696C54.1495 41.6497 54.1404 41.4194 54.1817 41.1955L54.7554 37.1964C54.8341 36.7077 55.0785 36.2612 55.4474 35.9321C55.8163 35.603 56.2871 35.4114 56.7804 35.3897H63.7599C63.9906 35.3793 64.2205 35.4215 64.4325 35.5131C64.6445 35.6048 64.833 35.7434 64.9838 35.9187C65.1346 36.0939 65.2437 36.3012 65.303 36.5249C65.3622 36.7486 65.3701 36.9828 65.3259 37.21L64.7522 41.2091C64.6707 41.7014 64.4205 42.1498 64.0447 42.4771C63.6689 42.8044 63.1911 42.9901 62.6934 43.0022Z" fill="#E6E7E8"/>
<path d="M22.045 52.0966H15.0722C14.8452 52.1025 14.6197 52.0574 14.4123 51.9647C14.2049 51.872 14.0207 51.7341 13.8732 51.561C13.7258 51.3878 13.6187 51.1839 13.5599 50.964C13.5011 50.7441 13.4919 50.5138 13.5332 50.2899L14.107 46.2908C14.1857 45.8021 14.4301 45.3556 14.799 45.0265C15.1678 44.6974 15.6386 44.5058 16.132 44.4841H23.125C23.352 44.4783 23.5774 44.5234 23.7849 44.6161C23.9923 44.7088 24.1765 44.8467 24.3239 45.0198C24.4714 45.193 24.5785 45.3969 24.6373 45.6168C24.6961 45.8367 24.7052 46.067 24.664 46.2908L24.0902 50.2899C24.012 50.7825 23.765 51.2323 23.3917 51.562C23.0185 51.8918 22.5422 52.0808 22.045 52.0966Z" fill="#E6E7E8"/>
<path d="M35.167 52.0966H28.1875C27.9604 52.1025 27.735 52.0574 27.5275 51.9647C27.3201 51.872 27.1359 51.7341 26.9885 51.561C26.841 51.3878 26.7339 51.1839 26.6751 50.964C26.6163 50.7441 26.6072 50.5138 26.6485 50.2899L27.2222 46.2908C27.3009 45.8021 27.5453 45.3556 27.9142 45.0265C28.2831 44.6974 28.7539 44.5058 29.2472 44.4841H36.2267C36.4537 44.4783 36.6792 44.5234 36.8866 44.6161C37.0941 44.7088 37.2782 44.8467 37.4257 45.0198C37.5732 45.193 37.6802 45.3969 37.7391 45.6168C37.7979 45.8367 37.807 46.067 37.7657 46.2908L37.192 50.2899C37.1144 50.7792 36.8704 51.2264 36.5013 51.5558C36.1321 51.8851 35.6607 52.0762 35.167 52.0966Z" fill="#E6E7E8"/>
<path d="M48.2822 52.0966H41.3027C41.0757 52.1025 40.8502 52.0574 40.6428 51.9647C40.4353 51.872 40.2512 51.7341 40.1037 51.561C39.9562 51.3878 39.8492 51.1839 39.7903 50.964C39.7315 50.7441 39.7224 50.5138 39.7637 50.2899L40.3374 46.2908C40.4162 45.8021 40.6606 45.3556 41.0294 45.0265C41.3983 44.6974 41.8691 44.5058 42.3624 44.4841H49.3419C49.569 44.4783 49.7944 44.5234 50.0018 44.6161C50.2093 44.7088 50.3935 44.8467 50.5409 45.0198C50.6884 45.193 50.7955 45.3969 50.8543 45.6168C50.9131 45.8367 50.9222 46.067 50.8809 46.2908L50.3072 50.2899C50.2297 50.7792 49.9856 51.2264 49.6165 51.5558C49.2474 51.8851 48.7759 52.0762 48.2822 52.0966Z" fill="#E6E7E8"/>
<path d="M61.3974 52.0966H54.4179C54.1909 52.1025 53.9654 52.0574 53.758 51.9647C53.5506 51.872 53.3664 51.7341 53.2189 51.561C53.0715 51.3878 52.9644 51.1839 52.9056 50.964C52.8468 50.7441 52.8376 50.5138 52.8789 50.2899L53.4527 46.2908C53.5314 45.8021 53.7758 45.3556 54.1447 45.0265C54.5135 44.6974 54.9843 44.5058 55.4777 44.4841H62.4572C62.6842 44.4783 62.9097 44.5234 63.1171 44.6161C63.3245 44.7088 63.5087 44.8467 63.6562 45.0198C63.8036 45.193 63.9107 45.3969 63.9695 45.6168C64.0284 45.8367 64.0375 46.067 63.9962 46.2908L63.4224 50.2899C63.3449 50.7792 63.1009 51.2264 62.7317 51.5558C62.3626 51.8851 61.8912 52.0762 61.3974 52.0966Z" fill="#E6E7E8"/>
<path d="M20.749 61.1911H13.7695C13.5425 61.1969 13.317 61.1518 13.1096 61.0592C12.9021 60.9665 12.718 60.8286 12.5705 60.6554C12.423 60.4823 12.316 60.2784 12.2571 60.0585C12.1983 59.8386 12.1892 59.6083 12.2305 59.3844L12.8042 55.3853C12.883 54.8966 13.1274 54.4501 13.4962 54.121C13.8651 53.7919 14.3359 53.6003 14.8292 53.5786H21.8087C22.0358 53.5728 22.2612 53.6179 22.4687 53.7106C22.6761 53.8032 22.8603 53.9412 23.0077 54.1143C23.1552 54.2874 23.2623 54.4914 23.3211 54.7113C23.3799 54.9312 23.389 55.1615 23.3477 55.3853L22.774 59.3844C22.6965 59.8737 22.4524 60.3209 22.0833 60.6502C21.7142 60.9796 21.2427 61.1707 20.749 61.1911Z" fill="#E6E7E8"/>
<path d="M33.8642 61.1911H26.8847C26.6577 61.1969 26.4322 61.1518 26.2248 61.0592C26.0174 60.9665 25.8332 60.8286 25.6857 60.6554C25.5383 60.4823 25.4312 60.2784 25.3724 60.0585C25.3136 59.8386 25.3044 59.6083 25.3457 59.3844L25.9195 55.3853C25.9994 54.8911 26.2487 54.4403 26.6245 54.1105C27.0002 53.7807 27.479 53.5926 27.9782 53.5786H34.951C35.178 53.5728 35.4035 53.6179 35.6109 53.7106C35.8183 53.8032 36.0025 53.9412 36.15 54.1143C36.2974 54.2874 36.4045 54.4914 36.4633 54.7113C36.5222 54.9312 36.5313 55.1615 36.49 55.3853L35.9162 59.3844C35.8378 59.8781 35.5898 60.3288 35.2151 60.6586C34.8405 60.9885 34.3627 61.1768 33.8642 61.1911Z" fill="#E6E7E8"/>
<path d="M46.9795 61.1911H40C39.7729 61.1969 39.5475 61.1518 39.34 61.0592C39.1326 60.9665 38.9484 60.8285 38.801 60.6554C38.6535 60.4823 38.5464 60.2783 38.4876 60.0585C38.4288 59.8386 38.4197 59.6083 38.461 59.3844L39.0347 55.3853C39.1146 54.8911 39.3639 54.4403 39.7397 54.1105C40.1155 53.7807 40.5942 53.5926 41.0934 53.5786H48.1C48.3274 53.5715 48.5534 53.6158 48.7615 53.708C48.9695 53.8003 49.1543 53.9383 49.302 54.1117C49.4497 54.2851 49.5567 54.4896 49.615 54.7101C49.6734 54.9305 49.6815 55.1613 49.639 55.3853L49.072 59.3844C48.9897 59.8837 48.7351 60.3381 48.3527 60.6683C47.9702 60.9986 47.4842 61.1836 46.9795 61.1911Z" fill="#E6E7E8"/>
<path d="M60.0947 61.1911H53.1152C52.8882 61.1969 52.6627 61.1518 52.4553 61.0592C52.2478 60.9665 52.0637 60.8285 51.9162 60.6554C51.7687 60.4823 51.6617 60.2783 51.6028 60.0585C51.544 59.8386 51.5349 59.6083 51.5762 59.3844L52.1499 55.3853C52.2311 54.8916 52.4807 54.4416 52.8562 54.112C53.2318 53.7825 53.7098 53.5939 54.2087 53.5786H61.1814C61.4088 53.5715 61.6349 53.6158 61.8429 53.708C62.051 53.8003 62.2357 53.9383 62.3834 54.1117C62.5312 54.2851 62.6382 54.4896 62.6965 54.7101C62.7548 54.9305 62.763 55.1613 62.7204 55.3853L62.1534 59.3844C62.0735 59.8786 61.8242 60.3294 61.4484 60.6592C61.0726 60.989 60.5939 61.1771 60.0947 61.1911Z" fill="#E6E7E8"/>
<path d="M19.4463 70.2856H12.4668C12.2397 70.2914 12.0143 70.2463 11.8068 70.1536C11.5994 70.061 11.4152 69.923 11.2678 69.7499C11.1203 69.5768 11.0132 69.3728 10.9544 69.1529C10.8956 68.933 10.8865 68.7028 10.9277 68.4789L11.5015 64.4798C11.5826 63.9861 11.8323 63.536 12.2078 63.2065C12.5833 62.8769 13.0614 62.6884 13.5603 62.6731H20.533C20.7604 62.666 20.9865 62.7103 21.1945 62.8025C21.4026 62.8948 21.5873 63.0327 21.735 63.2062C21.8828 63.3796 21.9898 63.5841 22.0481 63.8046C22.1064 64.025 22.1146 64.2558 22.072 64.4798L21.505 68.4789C21.4251 68.9731 21.1758 69.4239 20.8 69.7537C20.4242 70.0835 19.9455 70.2716 19.4463 70.2856Z" fill="#E6E7E8"/>
<path d="M32.575 70.2856H25.582C25.355 70.2914 25.1295 70.2463 24.9221 70.1536C24.7146 70.0609 24.5305 69.923 24.383 69.7499C24.2355 69.5768 24.1285 69.3728 24.0696 69.1529C24.0108 68.933 24.0017 68.7027 24.043 68.4789L24.6167 64.4798C24.6966 63.9916 24.9414 63.5458 25.31 63.2169C25.6786 62.888 26.1488 62.696 26.6417 62.6731H33.6145C33.8417 62.6675 34.0673 62.7126 34.275 62.8053C34.4826 62.8979 34.6671 63.0357 34.8151 63.2086C34.9631 63.3816 35.0708 63.5854 35.1305 63.8052C35.1902 64.0251 35.2004 64.2555 35.1602 64.4798L34.5865 68.4789C34.5083 68.9654 34.2658 69.4103 33.8997 69.7391C33.5336 70.068 33.066 70.2609 32.575 70.2856Z" fill="#E6E7E8"/>
<path d="M45.6768 70.2856H38.704C38.4764 70.2924 38.2502 70.2481 38.0419 70.1558C37.8337 70.0636 37.6486 69.9258 37.5004 69.7526C37.3521 69.5793 37.2445 69.375 37.1853 69.1546C37.1261 68.9342 37.1168 68.7033 37.1583 68.4789L37.732 64.4797C37.8131 63.9861 38.0628 63.536 38.4383 63.2064C38.8138 62.8769 39.2919 62.6884 39.7908 62.673H46.75C46.9776 62.6662 47.2038 62.7105 47.4121 62.8028C47.6204 62.895 47.8054 63.0328 47.9536 63.206C48.1019 63.3793 48.2095 63.5836 48.2687 63.804C48.3279 64.0244 48.3372 64.2553 48.2958 64.4797L47.722 68.4789C47.6426 68.9709 47.3952 69.4199 47.0222 69.7495C46.6492 70.079 46.1736 70.2684 45.6768 70.2856Z" fill="#E6E7E8"/>
<path d="M58.792 70.2856H51.8192C51.5916 70.2924 51.3654 70.2481 51.1571 70.1558C50.9489 70.0636 50.7638 69.9258 50.6156 69.7526C50.4674 69.5793 50.3597 69.375 50.3005 69.1546C50.2413 68.9342 50.2321 68.7033 50.2735 68.4789L50.8472 64.4797C50.9284 63.9861 51.178 63.536 51.5536 63.2064C51.9291 62.8769 52.4071 62.6884 52.906 62.673H59.8787C60.1063 62.6662 60.3326 62.7105 60.5408 62.8028C60.7491 62.895 60.9341 63.0328 61.0824 63.206C61.2306 63.3793 61.3383 63.5836 61.3975 63.804C61.4567 64.0244 61.4659 64.2553 61.4245 64.4797L60.8507 68.4789C60.7708 68.9731 60.5215 69.4239 60.1457 69.7537C59.77 70.0834 59.2912 70.2715 58.792 70.2856Z" fill="#E6E7E8"/>
<path d="M32.3523 71.7673H12.2575C11.7587 71.7826 11.2806 71.9712 10.9051 72.3007C10.5296 72.6303 10.2799 73.0804 10.1988 73.574L9.62505 77.5731C9.58364 77.7976 9.59288 78.0285 9.65208 78.2489C9.71128 78.4693 9.81894 78.6736 9.96717 78.8469C10.1154 79.0201 10.3004 79.1579 10.5087 79.2501C10.717 79.3424 10.9432 79.3867 11.1708 79.3798H31.2588C31.7521 79.3582 32.2229 79.1666 32.5918 78.8375C32.9607 78.5084 33.2051 78.0618 33.2838 77.5731L33.8575 73.574C33.8982 73.353 33.8898 73.1257 33.8329 72.9083C33.776 72.6909 33.6719 72.4888 33.5282 72.3163C33.3845 72.1438 33.2046 72.0052 33.0014 71.9103C32.7981 71.8154 32.5765 71.7666 32.3523 71.7673Z" fill="#E6E7E8"/>
<path d="M44.374 79.3798H37.4013C37.1737 79.3867 36.9475 79.3424 36.7392 79.2501C36.5309 79.1579 36.3459 79.0201 36.1976 78.8469C36.0494 78.6736 35.9417 78.4693 35.8825 78.2489C35.8233 78.0285 35.8141 77.7976 35.8555 77.5731L36.4293 73.574C36.5092 73.0859 36.7539 72.64 37.1226 72.3111C37.4912 71.9822 37.9613 71.7903 38.4543 71.7673H45.4675C45.6946 71.7615 45.92 71.8066 46.1274 71.8993C46.3349 71.992 46.519 72.1299 46.6665 72.303C46.814 72.4762 46.921 72.6801 46.9799 72.9C47.0387 73.1199 47.0478 73.3502 47.0065 73.574L46.4328 77.5731C46.3529 78.0674 46.1036 78.5182 45.7278 78.8479C45.352 79.1777 44.8733 79.3658 44.374 79.3798Z" fill="#E6E7E8"/>
<path d="M57.4897 79.3798H50.517C50.2896 79.3869 50.0635 79.3426 49.8555 79.2504C49.6474 79.1581 49.4627 79.0202 49.315 78.8467C49.1672 78.6733 49.0602 78.4688 49.0019 78.2484C48.9436 78.0279 48.9354 77.7971 48.978 77.5731L49.545 73.574C49.6273 73.0809 49.8774 72.6316 50.2526 72.3022C50.6279 71.9729 51.1053 71.7839 51.6038 71.7673H58.5832C58.8103 71.7615 59.0357 71.8066 59.2432 71.8993C59.4506 71.992 59.6348 72.1299 59.7822 72.303C59.9297 72.4762 60.0368 72.6801 60.0956 72.9C60.1544 73.1199 60.1635 73.3502 60.1222 73.574L59.5485 77.5731C59.4698 78.0679 59.2209 78.5194 58.8448 78.8494C58.4688 79.1795 57.9894 79.3671 57.4897 79.3798Z" fill="#E6E7E8"/>
<path d="M60.8104 10.2177H62.4642C62.6715 10.2092 62.8781 10.2487 63.0677 10.3332C63.2574 10.4177 63.425 10.5449 63.5577 10.7049C63.6941 10.8627 63.7935 11.0492 63.8484 11.2506C63.9033 11.4521 63.9124 11.6633 63.8749 11.8688L63.2809 16.0099C63.2052 16.4613 62.9765 16.8726 62.6334 17.1746C62.2904 17.4766 61.8539 17.6508 61.3977 17.6678H59.7439C59.5366 17.6763 59.3301 17.6368 59.1404 17.5523C58.9508 17.4678 58.7831 17.3406 58.6505 17.1806C58.5143 17.0211 58.4147 16.8336 58.3587 16.6313C58.3028 16.4291 58.2917 16.217 58.3264 16.0099L58.9204 11.8688C58.9939 11.4104 59.2344 10.9957 59.5954 10.7049C59.927 10.3984 60.3595 10.225 60.8104 10.2177ZM62.2347 11.7267C62.2349 11.6343 62.2161 11.5428 62.1797 11.458C62.1433 11.3731 62.0899 11.2966 62.0229 11.2332C61.9559 11.1698 61.8766 11.1209 61.7899 11.0894C61.7033 11.0578 61.6112 11.0444 61.5192 11.05C61.2906 11.0563 61.0713 11.1421 60.8989 11.2927C60.7265 11.4433 60.6117 11.6494 60.5742 11.8755L60.1692 14.6904L62.2347 11.7267ZM59.9802 16.1385C59.9739 16.3301 60.0416 16.5167 60.1692 16.6595C60.3126 16.7844 60.4993 16.8476 60.6889 16.8355C60.9192 16.8359 61.1411 16.7488 61.3099 16.5919C61.4842 16.4432 61.5992 16.2367 61.6339 16.0099L62.0389 13.2018L59.9802 16.1385Z" fill="#E6E7E8"/>
<path d="M18.0287 38.9153C18.0287 38.9153 7.78897 50.2562 2.79398 55.8319C0.694729 58.1867 -0.263777 63.6001 3.81997 63.6001C7.90372 63.6001 15.5312 56.8334 17.995 54.2621C20.4587 51.6907 18.0287 38.9153 18.0287 38.9153Z" fill="#74C447"/>
<path d="M41.3633 132.437L45.2175 141.423L51.0698 139.536L47.796 130.556L41.3633 132.437Z" fill="white"/>
<path d="M45.2177 141.762C45.1517 141.763 45.0868 141.744 45.0315 141.708C44.9761 141.672 44.9329 141.62 44.9072 141.559L41.053 132.573C41.0349 132.528 41.0262 132.481 41.0275 132.433C41.0287 132.385 41.0398 132.338 41.0601 132.295C41.0804 132.252 41.1095 132.213 41.1454 132.182C41.1814 132.15 41.2235 132.127 41.269 132.112L47.7017 130.231C47.7841 130.207 47.8725 130.216 47.949 130.254C48.0255 130.293 48.0843 130.36 48.1135 130.441L51.3872 139.42C51.4171 139.506 51.4171 139.599 51.3872 139.684C51.3665 139.725 51.3379 139.76 51.3031 139.79C51.2684 139.819 51.2281 139.84 51.1847 139.853L45.3325 141.748C45.2957 141.761 45.2565 141.766 45.2177 141.762ZM41.8427 132.654L45.4 141.011L50.6245 139.319L47.5802 130.969L41.8427 132.654Z" fill="#2D3142"/>
<path d="M45.2188 141.417C45.2188 141.417 46.6362 146.235 47.1155 146.255C47.5947 146.275 59.2655 143.616 58.8065 142.357C58.3475 141.099 51.071 139.529 51.071 139.529L45.2188 141.417Z" fill="#2D3142"/>
<path d="M47.1084 146.6C46.8721 146.6 46.3861 146.6 44.9011 141.525C44.8875 141.483 44.8823 141.439 44.8858 141.395C44.8893 141.352 44.9015 141.309 44.9216 141.27C44.9417 141.231 44.9693 141.196 45.0029 141.168C45.0365 141.14 45.0753 141.119 45.1171 141.106L50.9694 139.211C51.0271 139.197 51.0871 139.197 51.1449 139.211C52.8931 139.583 58.6306 140.916 59.1301 142.249C59.1639 142.347 59.1723 142.451 59.1546 142.553C59.1369 142.655 59.0936 142.751 59.0289 142.831C57.9759 144.293 47.7091 146.6 47.1084 146.6ZM45.6301 141.647C46.0222 143.116 46.5511 144.546 47.2096 145.917C48.5596 145.761 57.8814 143.467 58.4686 142.439C58.0906 141.762 54.4186 140.605 51.0841 139.881L45.6301 141.647Z" fill="#2D3142"/>
<path d="M12.3865 128.289L10.0645 137.79L15.8762 139.813L18.6572 130.671L12.3865 128.289Z" fill="white"/>
<path d="M15.8747 140.151C15.8367 140.158 15.7979 140.158 15.7599 140.151L9.95494 138.121C9.87404 138.096 9.80613 138.04 9.76576 137.966C9.72539 137.891 9.71576 137.804 9.73894 137.722L12.0609 128.249C12.0724 128.203 12.0933 128.16 12.1224 128.122C12.1515 128.085 12.188 128.054 12.2297 128.032C12.2727 128.011 12.32 128 12.3681 128C12.4161 128 12.4634 128.011 12.5064 128.032L18.7772 130.414C18.8556 130.446 18.9197 130.505 18.957 130.582C18.9944 130.658 19.0025 130.745 18.9797 130.827L16.1919 139.969C16.1788 140.012 16.1571 140.052 16.1281 140.087C16.0992 140.122 16.0635 140.151 16.0232 140.172C15.9728 140.174 15.9225 140.167 15.8747 140.151ZM10.4747 137.573L15.6587 139.38L18.2439 130.874L12.6347 128.743L10.4747 137.573Z" fill="#2D3142"/>
<path d="M10.063 137.79C10.063 137.79 8.30124 142.526 8.67249 142.797C9.04374 143.068 19.972 148.041 20.35 146.742C20.728 145.443 15.8747 139.813 15.8747 139.813L10.063 137.79Z" fill="#2D3142"/>
<path d="M19.8723 147.29C17.4355 147.29 8.85627 143.372 8.46477 143.061C8.28252 142.912 7.89777 142.601 9.74727 137.648C9.77778 137.565 9.83931 137.497 9.91874 137.459C9.99817 137.421 10.0892 137.416 10.1725 137.445L15.9843 139.475C16.0404 139.494 16.0897 139.529 16.126 139.576C17.2938 140.929 21.0738 145.449 20.6755 146.816C20.6458 146.915 20.591 147.005 20.5165 147.076C20.4419 147.147 20.3502 147.197 20.2503 147.222C20.1286 147.265 20.001 147.287 19.8723 147.29ZM8.95752 142.553C10.105 143.23 18.9543 147.046 20.0343 146.613C20.1423 145.842 17.8945 142.689 15.6738 140.111L10.2738 138.223C9.702 139.63 9.25917 141.086 8.95078 142.574L8.95752 142.553Z" fill="#2D3142"/>
<path d="M37.6304 74.2847C37.6304 74.2847 48.2616 118.106 50.9076 134.785L42.8076 138.561C42.8076 138.561 31.1369 109.465 27.0801 99.1319C27.0801 99.1319 23.4891 126.956 18.9801 134.995L10.1309 133.642C10.1309 133.642 14.3024 112.801 15.0246 96.2493C15.7469 79.698 15.5174 75.841 15.5174 75.841L37.6304 74.2847Z" fill="#2D3142"/>
<path d="M42.8007 138.899C42.7582 138.906 42.7149 138.906 42.6724 138.899C42.6293 138.883 42.5901 138.858 42.5575 138.825C42.5249 138.792 42.4997 138.753 42.4834 138.71C42.3754 138.426 31.6159 111.576 27.2352 100.485C26.4657 106.115 23.2527 128.073 19.2567 135.178C19.2225 135.237 19.1715 135.285 19.1102 135.315C19.0489 135.345 18.9801 135.356 18.9124 135.347L10.0632 133.994C10.0173 133.987 9.9734 133.97 9.93396 133.946C9.89452 133.922 9.86041 133.889 9.83367 133.852C9.78518 133.773 9.76605 133.679 9.77967 133.588C9.82017 133.385 13.9579 112.611 14.6667 96.2491C15.3754 79.8873 15.1594 75.9085 15.1594 75.8747C15.1557 75.8306 15.1609 75.7862 15.1746 75.7441C15.1883 75.7021 15.2103 75.6632 15.2392 75.6297C15.2682 75.5963 15.3035 75.569 15.3431 75.5495C15.3827 75.53 15.4259 75.5186 15.4699 75.5161L37.6032 73.9462C37.6834 73.9404 37.7631 73.963 37.8284 74.01C37.8938 74.0569 37.9406 74.1253 37.9609 74.2033C38.0622 74.6432 48.6259 118.227 51.2382 134.731C51.2507 134.803 51.239 134.878 51.2048 134.943C51.1706 135.008 51.1158 135.059 51.0492 135.09L42.9492 138.872C42.9022 138.892 42.8515 138.901 42.8007 138.899ZM27.0732 98.7866C27.1415 98.7871 27.2082 98.8079 27.2647 98.8465C27.3212 98.885 27.365 98.9396 27.3904 99.0032C31.1637 108.598 41.6734 134.867 42.9762 138.101L50.5362 134.576C47.9712 118.613 38.2714 78.3784 37.3669 74.6296L15.8412 76.1589C15.8817 77.404 15.9424 82.4181 15.3417 96.2694C14.6667 111.494 11.0554 130.563 10.5087 133.371L18.7774 134.65C23.1649 126.53 26.7087 99.3889 26.7424 99.1182C26.751 99.044 26.7844 98.9749 26.8371 98.9221C26.8898 98.8693 26.9587 98.8359 27.0327 98.8272L27.0732 98.7866Z" fill="#2D3142"/>
<path d="M52.8594 46.0067C52.8594 46.0067 55.3299 43.1917 55.5594 42.9684C55.7889 42.7451 55.9846 40.6948 57.1659 40.0588C57.6907 39.7385 58.2658 39.5097 58.8669 39.3821C58.8669 39.3821 62.1541 36.2424 62.5996 36.7837C63.0451 37.325 60.7434 39.8558 60.7434 39.8558C60.7434 39.8558 61.9044 41.7098 61.2834 43.3406C60.6624 44.9713 59.7781 46.0473 58.7589 46.2773C57.7396 46.5074 55.0329 50.5133 55.0329 50.5133L52.8594 46.0067Z" fill="white"/>
<path d="M55.0451 50.8178C54.9861 50.8146 54.9292 50.7952 54.8804 50.7618C54.8316 50.7284 54.7929 50.6823 54.7684 50.6284L52.5746 46.1421C52.544 46.0821 52.5328 46.0141 52.5424 45.9474C52.5521 45.8807 52.5822 45.8187 52.6286 45.7699C52.8784 45.479 55.1126 42.9347 55.3286 42.7046L55.4569 42.2648C55.6796 41.5205 56.0509 40.2348 57.0026 39.7476C57.5364 39.4457 58.1086 39.218 58.7036 39.0709C59.6284 38.1913 61.7006 36.3643 62.4769 36.3643C62.5508 36.3666 62.6233 36.3847 62.6896 36.4174C62.756 36.45 62.8146 36.4965 62.8616 36.5537C63.3544 37.1627 62.2474 38.6582 61.1539 39.8829C61.4642 40.4152 61.6632 41.0054 61.7387 41.6173C61.8141 42.2292 61.7644 42.8501 61.5926 43.4422C60.9176 45.2489 59.9524 46.3316 58.8319 46.5887C58.2109 46.7308 56.4019 49.0653 55.3151 50.6487C55.2875 50.697 55.2484 50.7377 55.2013 50.7672C55.1542 50.7967 55.1005 50.8141 55.0451 50.8178ZM53.2631 46.0812L55.0991 49.8434C55.9159 48.6728 57.7654 46.1624 58.6969 45.9459C59.6284 45.7293 60.3844 44.782 60.9784 43.2392C61.5319 41.7844 60.4789 40.0724 60.4654 40.0521C60.4282 39.9889 60.4121 39.9155 60.4194 39.8424C60.4266 39.7694 60.457 39.7007 60.5059 39.6461C61.2383 38.9035 61.8489 38.0494 62.3149 37.1154C61.1428 37.8211 60.0654 38.6738 59.1086 39.6529C59.0544 39.7023 58.9858 39.7331 58.9129 39.7408C58.3563 39.8819 57.8255 40.1103 57.3401 40.4175C56.6314 40.7964 56.3141 41.8859 56.1184 42.5355C56.0759 42.8073 55.9643 43.0637 55.7944 43.2798C55.6391 43.3475 54.2149 44.9579 53.2631 46.0473V46.0812Z" fill="#2D3142"/>
<path d="M21.7342 35.5794C20.4484 36.0895 19.0477 36.2369 17.6842 36.0057C17.0682 35.9234 16.4927 35.6515 16.0372 35.2275C15.8161 35.0111 15.6705 34.729 15.6218 34.4231C15.5732 34.1172 15.6242 33.8037 15.7672 33.5291C15.4272 33.5483 15.0875 33.4859 14.7764 33.347C14.4653 33.2081 14.1917 32.9968 13.9785 32.7306C13.5543 32.1954 13.2836 31.5544 13.1955 30.8765C13.0814 30.4486 13.0792 29.9984 13.1892 29.5693C13.2991 29.1403 13.5175 28.7468 13.8232 28.427C13.1482 28.0819 12.4125 27.6421 12.2437 26.9045C12.1844 26.5302 12.2168 26.147 12.3382 25.788C12.522 25.0616 12.7751 24.3546 13.0942 23.6768C13.263 23.3182 13.5262 22.9122 13.9245 22.9122C13.6513 22.2459 13.5698 21.5162 13.6891 20.8058C13.8084 20.0954 14.1238 19.4327 14.5995 18.8928C15.0643 18.3472 15.6994 17.9752 16.4017 17.8372C17.1515 17.8184 17.9014 17.8659 18.6427 17.9793C19.016 17.5003 19.4964 17.116 20.0452 16.8574C20.5939 16.5988 21.1956 16.4732 21.8017 16.4906C22.2718 16.5643 22.7135 16.7633 23.0804 17.0669C23.4474 17.3705 23.7261 17.7674 23.8875 18.2161C24.7254 18.0893 25.581 18.1517 26.3917 18.3988C26.7961 18.5216 27.1679 18.7336 27.4797 19.0194C27.7916 19.3051 28.0357 19.6572 28.194 20.0499C28.3416 20.448 28.352 20.8841 28.2235 21.2888C28.0951 21.6935 27.8352 22.0435 27.4852 22.2829C27.9739 22.3586 28.4181 22.611 28.7339 22.9925C29.0497 23.3739 29.2154 23.858 29.1997 24.3535C29.1592 24.8458 28.9731 25.3147 28.6653 25.7005C28.3575 26.0862 27.9419 26.3711 27.4717 26.5188C27.3357 26.5467 27.2083 26.607 27.1005 26.6947C26.9988 26.8336 26.9358 26.9971 26.9182 27.1684C26.7697 27.6962 26.2837 27.933 26.0475 28.3796C25.7669 29.055 25.5412 29.752 25.3725 30.4638C25.1552 31.1317 24.9006 31.7869 24.6097 32.4261C24.3746 33.1868 24.0577 33.9196 23.6647 34.6118C23.253 35.1802 22.7872 35.1734 22.1662 35.4035L21.7342 35.5794Z" fill="white"/>
<path d="M18.8993 36.4658C18.4709 36.4649 18.0436 36.4219 17.6236 36.3372C16.9372 36.247 16.2969 35.9415 15.7943 35.4643C15.5909 35.2524 15.4393 34.996 15.3515 34.7154C15.2636 34.4348 15.2419 34.1375 15.2881 33.8471C14.6761 33.7472 14.1203 33.4302 13.7221 32.9539C13.2562 32.368 12.9576 31.6665 12.8581 30.9239C12.7647 30.5131 12.7543 30.0878 12.8273 29.673C12.9004 29.2581 13.0554 28.8621 13.2833 28.5082C12.9637 28.3627 12.6783 28.1513 12.4457 27.8878C12.2131 27.6243 12.0385 27.3146 11.9333 26.9789C11.8605 26.5495 11.8905 26.1088 12.0211 25.6933C12.2154 24.9512 12.4775 24.2286 12.8041 23.5347C12.939 23.1911 13.1742 22.8962 13.4791 22.6889C13.2722 22.001 13.2437 21.2716 13.396 20.5695C13.5484 19.8674 13.8766 19.2159 14.3498 18.6762C14.8726 18.0681 15.5871 17.6574 16.3748 17.5124C17.0986 17.4848 17.8235 17.5188 18.5416 17.6139C18.9564 17.13 19.4763 16.748 20.0613 16.4969C20.6464 16.2459 21.281 16.1326 21.9166 16.1658C22.4027 16.2411 22.8629 16.4347 23.2571 16.7296C23.6513 17.0245 23.9674 17.4118 24.1778 17.8575C24.9812 17.766 25.7947 17.842 26.5673 18.0808C27.0237 18.2184 27.4431 18.4579 27.7938 18.7814C28.1446 19.1049 28.4176 19.5039 28.5923 19.9484C28.7191 20.3129 28.7541 20.7032 28.694 21.0845C28.6339 21.4659 28.4807 21.8264 28.2481 22.134C28.6629 22.3392 29.0104 22.6592 29.2496 23.0561C29.4888 23.453 29.6098 23.9102 29.5981 24.3738C29.5577 24.9369 29.3486 25.4747 28.9981 25.9167C28.6476 26.3586 28.172 26.6841 27.6338 26.8504C27.553 26.8669 27.4755 26.8967 27.4043 26.9383C27.3663 27.0052 27.3411 27.0787 27.3301 27.1549V27.2631C27.2192 27.5946 27.0265 27.8926 26.7698 28.1293C26.6382 28.2525 26.5246 28.3938 26.4323 28.5488C26.2357 28.9825 26.0863 29.4363 25.9868 29.9021C25.9261 30.1457 25.8653 30.3826 25.7978 30.5788C25.5738 31.2683 25.3147 31.9458 25.0216 32.6088C24.9136 32.8456 24.8326 33.096 24.7448 33.3464C24.5918 33.8808 24.3646 34.3911 24.0698 34.8621C23.7643 35.2666 23.3189 35.5418 22.8211 35.6335L22.4161 35.7688L21.9368 35.938C20.9622 36.2881 19.9346 36.4666 18.8993 36.4658ZM15.7673 33.1907C15.825 33.189 15.8822 33.2025 15.9331 33.2298C15.984 33.2571 16.0269 33.2973 16.0576 33.3464C16.0925 33.4009 16.111 33.4643 16.111 33.5291C16.111 33.5938 16.0925 33.6572 16.0576 33.7118C15.9563 33.9231 15.924 34.161 15.9652 34.3917C16.0064 34.6225 16.119 34.8344 16.2871 34.9974C16.6952 35.3712 17.2097 35.6078 17.7586 35.6741C19.0642 35.8879 20.4031 35.7429 21.6331 35.2546L22.0921 35.0922C22.2541 35.0313 22.4026 34.9907 22.5443 34.9433C22.8965 34.8892 23.215 34.703 23.4353 34.4223C23.7016 34.0027 23.9062 33.5469 24.0428 33.0689C24.1373 32.7983 24.2318 32.5344 24.3398 32.284C24.6224 31.6545 24.8724 31.0108 25.0891 30.3555C25.1566 30.1457 25.2173 29.9224 25.2781 29.6788C25.3861 29.17 25.5514 28.6751 25.7708 28.2037C25.8962 27.9932 26.0482 27.7999 26.2231 27.6285C26.397 27.4731 26.5312 27.2782 26.6146 27.0601V26.9654C26.6436 26.7698 26.7279 26.5867 26.8576 26.4376C26.99 26.3148 27.1534 26.2306 27.3301 26.194C27.7412 26.0752 28.1081 25.837 28.3843 25.5094C28.6606 25.1819 28.834 24.7796 28.8826 24.3535C28.8951 23.9463 28.7607 23.5484 28.504 23.2326C28.2473 22.9169 27.8856 22.7046 27.4853 22.6347C27.4144 22.6275 27.3475 22.5979 27.2944 22.5502C27.2413 22.5025 27.2046 22.4392 27.1896 22.3693C27.1746 22.2994 27.1821 22.2265 27.211 22.1612C27.2398 22.0958 27.2886 22.0413 27.3503 22.0054C27.6295 21.8037 27.8353 21.516 27.9365 21.1862C28.0376 20.8564 28.0285 20.5026 27.9106 20.1784C27.7702 19.8328 27.5542 19.5233 27.2785 19.2726C27.0028 19.022 26.6743 18.8367 26.3176 18.7304C25.554 18.5026 24.75 18.4449 23.9618 18.5612C23.8858 18.5702 23.8089 18.553 23.7439 18.5124C23.6789 18.4718 23.6296 18.4103 23.6041 18.3379C23.4626 17.9454 23.2179 17.5986 22.8959 17.3342C22.5739 17.0697 22.1865 16.8975 21.7748 16.8357C21.2289 16.8251 20.6881 16.9419 20.1949 17.1768C19.7017 17.4116 19.2698 17.7582 18.9331 18.189C18.8846 18.2543 18.8146 18.3003 18.7356 18.3189C18.6565 18.3374 18.5734 18.3274 18.5011 18.2905C17.8286 18.2164 17.1526 18.1802 16.4761 18.1823C15.8477 18.3081 15.2796 18.6417 14.8628 19.1296C14.4234 19.616 14.1276 20.2154 14.0084 20.8606C13.8892 21.5059 13.9513 22.1717 14.1878 22.7836C14.2128 22.8341 14.2258 22.8897 14.2258 22.946C14.2258 23.0023 14.2128 23.0579 14.1878 23.1084C14.1567 23.1539 14.1156 23.1917 14.0676 23.2187C14.0196 23.2457 13.966 23.2612 13.9111 23.264C13.6951 23.264 13.4993 23.5753 13.3778 23.8392C13.0722 24.4923 12.8259 25.1717 12.6421 25.8692C12.5362 26.1778 12.5061 26.5074 12.5543 26.8301C12.6893 27.4255 13.3508 27.8112 13.9583 28.1293C14.0085 28.1542 14.0515 28.1915 14.0834 28.2376C14.1153 28.2838 14.135 28.3373 14.1406 28.3932C14.1466 28.449 14.1386 28.5055 14.1174 28.5574C14.0962 28.6094 14.0624 28.6553 14.0191 28.6909C13.3441 29.2525 13.4318 30.369 13.5061 30.8156C13.5852 31.4355 13.8301 32.0224 14.2148 32.5141C14.3928 32.7383 14.6217 32.9167 14.8823 33.0344C15.1429 33.1521 15.4278 33.2057 15.7133 33.1907H15.7673Z" fill="#2D3142"/>
<path d="M27.4121 27.1479C27.4121 27.1479 30.1931 29.2185 30.0311 29.9223C29.8691 30.626 28.5258 30.6937 28.5258 30.6937" fill="white"/>
<path d="M28.5255 31.032C28.4389 31.0338 28.355 31.0015 28.2919 30.9421C28.2288 30.8826 28.1915 30.8007 28.188 30.7139C28.1852 30.6695 28.1913 30.6249 28.2057 30.5828C28.2202 30.5407 28.2428 30.5019 28.2723 30.4686C28.3018 30.4353 28.3375 30.4081 28.3775 30.3887C28.4175 30.3692 28.4609 30.3579 28.5052 30.3553C28.9575 30.3553 29.6595 30.1523 29.7337 29.841C29.808 29.5298 28.5255 28.4133 27.2092 27.4186C27.1738 27.3919 27.1439 27.3585 27.1213 27.3203C27.0987 27.2821 27.0839 27.2397 27.0776 27.1958C27.0713 27.1518 27.0738 27.107 27.0848 27.0639C27.0958 27.0209 27.1151 26.9805 27.1417 26.9449C27.1954 26.8731 27.2754 26.8257 27.364 26.813C27.4526 26.8003 27.5426 26.8234 27.6142 26.8772C28.7212 27.7028 30.5505 29.1982 30.3547 29.9967C30.1387 30.9169 28.674 31.0252 28.512 31.032H28.5255Z" fill="#2D3142"/>
<path d="M24.6769 21.4031C24.8829 21.4395 25.0708 21.5443 25.2101 21.7008C25.7282 22.2301 26.1426 22.8521 26.4319 23.5346C27.0576 24.8511 27.5965 26.2074 28.0451 27.5946C28.6886 29.399 29.2894 31.2283 29.8474 33.0823C30.1984 34.253 27.2486 35.3559 26.6006 35.2071L28.7066 39.5716C28.7066 39.5716 27.4241 40.4783 24.6566 40.2482C21.8891 40.0182 21.6326 39.4498 21.6326 39.4498L19.9316 34.1447C19.9316 34.1447 21.8959 33.468 22.2064 30.6869C22.1742 30.1994 22.1901 29.7098 22.2536 29.2253C22.4156 28.7246 22.8611 28.4675 22.9286 27.872C22.9465 27.5973 22.9003 27.3222 22.7936 27.0685C22.687 26.8148 22.5229 26.5895 22.3144 26.4104C22.2199 26.336 22.1051 26.2412 22.1321 26.1194C22.1508 26.0519 22.1911 25.9925 22.2469 25.9503C22.3811 25.8041 22.4849 25.6325 22.5522 25.4456C22.6196 25.2587 22.649 25.0603 22.639 24.8618C22.6289 24.6634 22.5795 24.4689 22.4937 24.2898C22.4078 24.1107 22.2872 23.9506 22.1389 23.8188C22.8881 23.5413 23.1109 22.6143 23.2256 21.8226C23.1919 22.0662 24.4204 21.4504 24.4406 21.4437C24.5172 21.4196 24.5967 21.406 24.6769 21.4031Z" fill="white"/>
<path d="M25.5406 40.5934C25.2504 40.5934 24.9399 40.5934 24.6024 40.5528C21.9969 40.3295 21.4164 39.822 21.3016 39.5445L19.5939 34.2124C19.5658 34.1298 19.5713 34.0395 19.6092 33.961C19.6471 33.8824 19.7144 33.822 19.7964 33.7929C19.8706 33.7929 21.5716 33.1162 21.8214 30.6125C21.835 30.4346 21.835 30.2559 21.8214 30.078C21.7897 29.7461 21.8194 29.4111 21.9091 29.09C21.9946 28.8676 22.1105 28.6581 22.2534 28.4675C22.4207 28.2794 22.5225 28.042 22.5436 27.7908C22.5591 27.569 22.5219 27.3466 22.435 27.142C22.3482 26.9373 22.2143 26.7562 22.0441 26.6134C21.9604 26.5699 21.8889 26.5062 21.8359 26.4279C21.783 26.3497 21.7504 26.2595 21.741 26.1654C21.7316 26.0714 21.7458 25.9765 21.7822 25.8893C21.8186 25.8021 21.8762 25.7254 21.9496 25.6661C22.0527 25.5543 22.1327 25.4231 22.1851 25.2802C22.2375 25.1373 22.2612 24.9854 22.2549 24.8333C22.2487 24.6812 22.2125 24.5318 22.1485 24.3937C22.0846 24.2556 21.994 24.1315 21.8821 24.0286C21.8362 23.9906 21.8008 23.9414 21.7795 23.8856C21.7582 23.8299 21.7517 23.7696 21.7606 23.7105C21.7694 23.6511 21.7941 23.5951 21.8321 23.5486C21.8702 23.5021 21.9201 23.4669 21.9766 23.4466C22.5571 23.2369 22.7461 22.4113 22.8474 21.7211C22.8531 21.6767 22.8677 21.634 22.8904 21.5954C22.913 21.5568 22.9432 21.5232 22.9792 21.4967C23.0152 21.4701 23.0561 21.4511 23.0996 21.4409C23.143 21.4306 23.1881 21.4293 23.2321 21.4369C23.2701 21.4444 23.3066 21.4581 23.3401 21.4775C23.6329 21.3787 23.9173 21.2565 24.1906 21.1121L24.2986 21.0715C24.4272 21.0307 24.5623 21.0146 24.6969 21.0242C24.9768 21.0622 25.2358 21.1933 25.4326 21.3963C25.9832 21.9545 26.4251 22.6109 26.7354 23.3316C27.3084 24.5348 27.8044 25.7734 28.2204 27.0397L28.3621 27.439C29.0371 29.2457 29.6109 31.0997 30.1711 32.9403C30.2263 33.1558 30.2208 33.3825 30.1552 33.5951C30.0897 33.8077 29.9667 33.998 29.7999 34.1447C29.0452 34.8421 28.1092 35.3113 27.0999 35.4981L28.9831 39.4024C29.0183 39.4737 29.0268 39.5553 29.0069 39.6323C28.9871 39.7094 28.9403 39.7767 28.8751 39.822C27.8619 40.3981 26.7033 40.6661 25.5406 40.5934ZM21.9159 39.24C22.0104 39.3212 22.5571 39.6799 24.6631 39.8626C25.8831 40.0172 27.1222 39.8541 28.2609 39.3889L26.2966 35.3289C26.2681 35.2715 26.2565 35.2072 26.2631 35.1434C26.2696 35.0796 26.2942 35.019 26.3338 34.9686C26.3734 34.9183 26.4265 34.8803 26.4868 34.859C26.5472 34.8377 26.6123 34.8341 26.6746 34.8485C27.6507 34.7558 28.5723 34.3555 29.3071 33.7049C29.4961 33.4951 29.5704 33.3124 29.5231 33.1568C28.9696 31.323 28.3621 29.4825 27.7276 27.6826L27.5859 27.2833C27.1768 26.0523 26.6922 24.8477 26.1346 23.6767C25.8557 23.0351 25.4648 22.4485 24.9804 21.9444C24.8049 21.7888 24.7306 21.7414 24.6496 21.7347C24.5686 21.7279 24.6496 21.7347 24.6496 21.7347C24.6004 21.7267 24.5503 21.7267 24.5011 21.7347C24.1753 21.9063 23.834 22.0468 23.4819 22.1542C23.4167 22.809 23.1197 23.4187 22.6449 23.8729C22.8274 24.154 22.9322 24.4786 22.9486 24.8135C22.9642 25.0494 22.9322 25.2861 22.8545 25.5093C22.7768 25.7325 22.655 25.9377 22.4964 26.1127C22.7457 26.3251 22.9421 26.5929 23.0698 26.8948C23.1976 27.1968 23.2532 27.5245 23.2321 27.8517C23.1984 28.2154 23.0548 28.5601 22.8204 28.8397C22.7136 28.9752 22.6271 29.1256 22.5639 29.2863C22.5214 29.5326 22.5214 29.7843 22.5639 30.0306C22.5785 30.2559 22.5785 30.482 22.5639 30.7073C22.5223 31.4429 22.2995 32.1566 21.9155 32.7848C21.5315 33.413 20.9983 33.936 20.3634 34.3071L21.9159 39.24Z" fill="#2D3142"/>
<path d="M29.3146 31.7493C28.8535 32.0289 28.3083 32.1347 27.7764 32.0479C27.2446 31.9611 26.7609 31.6874 26.4121 31.2756" fill="white"/>
<path d="M28.16 32.4191C27.7782 32.4169 27.401 32.3352 27.0524 32.1791C26.7038 32.023 26.3914 31.796 26.135 31.5124C26.0723 31.4478 26.0378 31.3609 26.0391 31.2708C26.0404 31.1807 26.0773 31.0948 26.1417 31.0319C26.2062 30.9691 26.2929 30.9346 26.3828 30.9358C26.4726 30.9371 26.5583 30.9741 26.621 31.0387C26.913 31.3952 27.3229 31.6348 27.7762 31.7143C28.2294 31.7938 28.6961 31.7077 29.0915 31.4718C29.1276 31.4463 29.1685 31.4284 29.2117 31.419C29.2549 31.4096 29.2995 31.409 29.3429 31.4172C29.3863 31.4254 29.4276 31.4423 29.4644 31.4667C29.5013 31.4912 29.5328 31.5228 29.5572 31.5597C29.5828 31.5965 29.6008 31.638 29.6103 31.6818C29.6197 31.7256 29.6203 31.7709 29.6122 31.815C29.604 31.859 29.5872 31.901 29.5627 31.9385C29.5382 31.976 29.5065 32.0083 29.4695 32.0334C29.077 32.281 28.6237 32.4146 28.16 32.4191Z" fill="#2D3142"/>
<path d="M24.3677 29.5705C24.1526 29.1381 23.8234 28.7731 23.416 28.5149C23.127 28.2744 22.804 28.0782 22.4575 27.933C22.2847 27.8612 22.0982 27.8289 21.9114 27.8382C21.7246 27.8476 21.5422 27.8985 21.3775 27.9871C21.2412 28.0805 21.1263 28.2017 21.0402 28.3428C20.9541 28.484 20.8988 28.6418 20.878 28.8059C20.8348 29.1359 20.8671 29.4714 20.9725 29.7871C21.1897 30.4791 21.5847 31.1016 22.1179 31.5922C22.651 32.0827 23.3036 32.424 24.01 32.5817L23.875 32.5073" fill="white"/>
<path d="M24.0093 32.9198H23.9418C23.177 32.7474 22.4708 32.3766 21.8939 31.8446C21.317 31.3126 20.8896 30.638 20.6545 29.8884C20.5304 29.5255 20.4912 29.1389 20.5398 28.7583C20.5711 28.5454 20.6476 28.3416 20.764 28.1607C20.8804 27.9798 21.0341 27.8259 21.2148 27.7095C21.4186 27.5937 21.6459 27.5256 21.8797 27.5104C22.1135 27.4951 22.3477 27.5331 22.5648 27.6215C22.9442 27.7752 23.2972 27.9875 23.611 28.2508C24.0722 28.544 24.4418 28.9614 24.6775 29.4553C24.7097 29.5397 24.7072 29.6334 24.6705 29.7159C24.6338 29.7984 24.5659 29.8628 24.4818 29.8951C24.4401 29.9111 24.3957 29.9187 24.3511 29.9175C24.3065 29.9163 24.2626 29.9063 24.2219 29.8881C24.1396 29.8513 24.0752 29.7833 24.043 29.6989C23.8519 29.3235 23.5596 29.0094 23.1993 28.7922C22.9413 28.5693 22.6497 28.3889 22.3353 28.2576C22.2132 28.1983 22.0794 28.1675 21.9438 28.1675C21.8082 28.1675 21.6743 28.1983 21.5523 28.2576C21.4553 28.3234 21.3737 28.4095 21.3131 28.51C21.2525 28.6104 21.2143 28.7229 21.2013 28.8395C21.1709 29.1201 21.2008 29.4039 21.289 29.6718C21.4734 30.2622 21.7983 30.7986 22.2358 31.2348C22.6733 31.671 23.2102 31.9939 23.8 32.1755C23.8743 32.1492 23.9553 32.1492 24.0295 32.1755L24.1645 32.2432C24.2371 32.2821 24.2934 32.3459 24.3231 32.4228C24.3528 32.4998 24.354 32.5849 24.3265 32.6627C24.3089 32.7344 24.2683 32.7983 24.211 32.8448C24.1538 32.8912 24.0829 32.9176 24.0093 32.9198Z" fill="#2D3142"/>
<path d="M26.602 35.1801C25.6229 35.2282 24.6506 34.9933 23.8008 34.5034C23.8008 34.5034 24.901 37.2101 27.547 37.1627L26.602 35.1801Z" fill="#2D3142"/>
<path d="M27.4524 37.4874C24.6781 37.4874 23.5306 34.7401 23.4834 34.6183C23.4533 34.5511 23.447 34.4756 23.4654 34.4043C23.4838 34.333 23.5258 34.2701 23.5846 34.2259C23.643 34.1819 23.7141 34.1582 23.7871 34.1582C23.8601 34.1582 23.9312 34.1819 23.9896 34.2259C24.7753 34.6916 25.6759 34.9261 26.5884 34.9025C26.6542 34.898 26.7198 34.9137 26.7765 34.9475C26.8332 34.9814 26.8783 35.0318 26.9056 35.092L27.8506 37.0002C27.8772 37.0502 27.8911 37.106 27.8911 37.1626C27.8911 37.2193 27.8772 37.275 27.8506 37.325C27.8236 37.3748 27.7835 37.4162 27.7348 37.4448C27.686 37.4734 27.6304 37.4881 27.5739 37.4874H27.4524ZM24.6376 35.2747C24.9104 35.6686 25.2585 36.0042 25.6618 36.2621C26.065 36.5199 26.5153 36.6949 26.9866 36.7769L26.3926 35.5454C25.7974 35.5434 25.2059 35.4522 24.6376 35.2747Z" fill="#2D3142"/>
<path d="M25.7613 26.7761C25.9034 26.7302 25.9242 26.3989 25.8077 26.036C25.6912 25.6731 25.4815 25.416 25.3394 25.4619C25.1972 25.5078 25.1765 25.8391 25.293 26.202C25.4095 26.5649 25.6192 26.8219 25.7613 26.7761Z" fill="#2D3142"/>
<path d="M31.1112 37.6633C30.2675 37.061 20.6487 34.6859 18.0297 38.9151C15.4107 43.1443 12.3935 70.9891 14.027 77.749L38.9142 74.2845C38.9142 74.2845 35.7754 40.9654 31.1112 37.6633Z" fill="#74C447"/>
<path d="M29.9766 51.4673C29.9766 51.4673 35.0863 58.6197 41.5798 58.3558C48.0733 58.0919 57.9891 48.2938 57.9891 48.2938L54.1753 43.7939C54.1753 43.7939 48.2286 49.0313 44.5633 48.5306C39.4468 47.8066 32.4133 38.9287 32.4133 38.9287L29.9766 51.4673Z" fill="#74C447"/>
<path d="M41.5109 58.8634C38.9257 58.8634 36.0232 57.7469 32.9587 55.5545C30.8655 54.0312 28.9499 52.2766 27.2482 50.3238C27.2136 50.2911 27.1864 50.2514 27.1682 50.2073C27.15 50.1633 27.1413 50.1159 27.1427 50.0683C27.1441 50.0206 27.1555 49.9738 27.1762 49.9309C27.1968 49.888 27.2263 49.8499 27.2627 49.8192C27.2991 49.7885 27.3415 49.7659 27.3872 49.7527C27.4329 49.7396 27.4808 49.7363 27.5279 49.7431C27.575 49.7498 27.6201 49.7665 27.6603 49.7919C27.7005 49.8174 27.7349 49.8511 27.7612 49.8908C27.8557 49.999 37.0424 60.8527 44.5079 57.5777C52.2367 54.1944 55.9222 49.7284 55.9829 49.6878C56.0089 49.6483 56.043 49.6148 56.0827 49.5893C56.1225 49.5638 56.1672 49.547 56.2139 49.5399C56.2605 49.5329 56.3081 49.5357 56.3537 49.5482C56.3992 49.5607 56.4416 49.5827 56.4781 49.6126C56.5146 49.6426 56.5445 49.6799 56.5657 49.7221C56.587 49.7644 56.5991 49.8106 56.6015 49.8579C56.6038 49.9051 56.5962 49.9523 56.5792 49.9965C56.5621 50.0406 56.5361 50.0807 56.5027 50.1141C56.3542 50.3035 52.6889 54.7357 44.7982 58.1935C43.7614 58.6454 42.6414 58.8737 41.5109 58.8634Z" fill="#2D3142"/>
<path d="M42.0798 47.8067C42.0312 47.8199 41.9799 47.8199 41.9313 47.8067C40.6623 47.1774 34.2836 42.1971 32.7378 40.0521C32.061 38.9727 30.9946 38.197 29.7611 37.8867C29.6733 37.8733 29.5941 37.8264 29.54 37.7558C29.4859 37.6851 29.4611 37.5963 29.4708 37.5078C29.4755 37.4605 29.4901 37.4148 29.5135 37.3735C29.537 37.3323 29.5689 37.2965 29.6071 37.2684C29.6453 37.2403 29.689 37.2206 29.7353 37.2105C29.7816 37.2005 29.8295 37.2003 29.8758 37.2101C31.2929 37.5239 32.5282 38.3876 33.3116 39.6122C34.7966 41.6422 41.1213 46.5887 42.2553 47.1571C42.2953 47.1765 42.331 47.2037 42.3604 47.2371C42.3899 47.2705 42.4124 47.3093 42.4268 47.3514C42.4413 47.3935 42.4473 47.4381 42.4445 47.4826C42.4417 47.527 42.4302 47.5705 42.4106 47.6104C42.3812 47.6724 42.334 47.7242 42.2751 47.7591C42.2161 47.7941 42.1482 47.8106 42.0798 47.8067Z" fill="#2D3142"/>
<path d="M14.2492 71.111C14.1657 71.1099 14.0854 71.0784 14.0233 71.0224C13.9612 70.9664 13.9215 70.8896 13.9117 70.8065C12.9802 61.3331 15.3022 45.1879 15.3292 45.0255C15.3417 44.9357 15.3893 44.8547 15.4615 44.8001C15.5336 44.7455 15.6244 44.7219 15.714 44.7345C15.8035 44.7471 15.8843 44.7948 15.9388 44.8671C15.9932 44.9394 16.0167 45.0305 16.0042 45.1202C16.0042 45.2826 13.6687 61.3602 14.5935 70.7388C14.5981 70.7833 14.5939 70.8282 14.5812 70.8711C14.5684 70.9139 14.5473 70.9538 14.519 70.9884C14.4908 71.023 14.456 71.0517 14.4166 71.0727C14.3772 71.0937 14.3341 71.1068 14.2897 71.111H14.2492Z" fill="#2D3142"/>
<path d="M66.4672 90.8629C66.4198 90.8624 66.3731 90.8518 66.3301 90.832C66.2871 90.8122 66.2487 90.7835 66.2174 90.7479L63.3419 87.5472C63.288 87.48 63.2618 87.3946 63.2686 87.3086C63.2754 87.2226 63.3148 87.1425 63.3786 87.0846C63.4423 87.0267 63.5258 86.9954 63.6118 86.9971C63.6979 86.9989 63.78 87.0335 63.8414 87.0939L66.7169 90.3013C66.7492 90.3317 66.7749 90.3683 66.7925 90.4091C66.8101 90.4498 66.8192 90.4937 66.8192 90.5381C66.8192 90.5825 66.8101 90.6264 66.7925 90.6671C66.7749 90.7079 66.7492 90.7446 66.7169 90.7749C66.6843 90.8071 66.645 90.8317 66.6019 90.8469C66.5587 90.8621 66.5127 90.8676 66.4672 90.8629Z" fill="#2D3142"/>
<path d="M4.82503 53.917C4.78394 53.9178 4.74309 53.9105 4.70485 53.8954C4.66661 53.8803 4.63175 53.8577 4.60228 53.829C4.56999 53.7986 4.54426 53.762 4.52667 53.7212C4.50908 53.6805 4.5 53.6366 4.5 53.5922C4.5 53.5478 4.50908 53.5039 4.52667 53.4632C4.54426 53.4224 4.56999 53.3857 4.60228 53.3554L10.5693 46.7105C10.5981 46.6745 10.6339 46.6448 10.6746 46.6233C10.7152 46.6017 10.7599 46.5887 10.8057 46.585C10.8516 46.5814 10.8977 46.5872 10.9413 46.6021C10.9848 46.6169 11.0249 46.6406 11.059 46.6715C11.0931 46.7025 11.1205 46.7401 11.1396 46.782C11.1586 46.824 11.1689 46.8694 11.1699 46.9156C11.1708 46.9617 11.1623 47.0075 11.1449 47.0502C11.1275 47.0929 11.1016 47.1315 11.0688 47.1638L5.10178 53.8087C5.06727 53.8472 5.02426 53.877 4.97621 53.8958C4.92815 53.9146 4.87638 53.9218 4.82503 53.917Z" fill="#2D3142"/>
</svg>
