<svg width="60" height="60" viewBox="0 0 60 60" fill="none" xmlns="http://www.w3.org/2000/svg">
<g clip-path="url(#clip0_1814_21933)">
<path d="M55.8478 50.1783H54.5335V45.7085C54.5335 45.0567 54.005 44.5283 53.3533 44.5283H45.1039C44.4521 44.5283 43.9238 45.0567 43.9238 45.7085C43.9238 46.3603 44.4522 46.8887 45.1039 46.8887H52.173V50.1783H50.8325C49.5105 50.1783 48.4348 51.2539 48.4348 52.5761V57.5923C48.4348 58.9126 49.5105 59.9868 50.8325 59.9868H55.8478C57.1681 59.9868 58.2422 58.9126 58.2422 57.5923V52.5761C58.2422 51.2539 57.1681 50.1783 55.8478 50.1783ZM55.8816 57.5923C55.8816 57.6073 55.8627 57.6264 55.8478 57.6264H50.8325C50.8123 57.6264 50.7954 57.6054 50.7954 57.5923V52.5761C50.7954 52.5575 50.814 52.5387 50.8325 52.5387H53.186C53.2408 52.5465 53.2964 52.5519 53.3533 52.5519C53.4103 52.5519 53.4658 52.5465 53.5207 52.5387H55.8478C55.8608 52.5387 55.8816 52.5558 55.8816 52.5761V57.5923Z" fill="#2D3142"/>
<path d="M14.9357 44.5283H6.68965C6.03773 44.5283 5.50945 45.0567 5.50945 45.7085V50.1915H4.15219C2.83184 50.1915 1.75781 51.2671 1.75781 52.5893V57.6056C1.75781 58.9259 2.83184 59.9999 4.15219 59.9999H9.16746C10.4895 59.9999 11.565 58.9259 11.565 57.6055V52.5892C11.565 51.2671 10.4895 50.1914 9.16746 50.1914H7.86984V46.8886H14.9357C15.5875 46.8886 16.1157 46.3602 16.1157 45.7084C16.1157 45.0566 15.5875 44.5283 14.9357 44.5283ZM9.16746 52.5518C9.18586 52.5518 9.20461 52.5707 9.20461 52.5892V57.6055C9.20461 57.6186 9.1875 57.6395 9.16746 57.6395H4.15219C4.1373 57.6395 4.11832 57.6204 4.11832 57.6055V52.5892C4.11832 52.5689 4.13918 52.5518 4.15219 52.5518H9.16746Z" fill="#2D3142"/>
<path d="M19.6311 44.5283H19.6079C18.9561 44.5283 18.4277 45.0567 18.4277 45.7085C18.4277 46.3603 18.9562 46.8887 19.6079 46.8887H19.6311C20.2829 46.8887 20.8113 46.3603 20.8113 45.7085C20.8113 45.0567 20.2829 44.5283 19.6311 44.5283Z" fill="#2D3142"/>
<path d="M35.7593 44.5284H31.2012V39.2113C31.5141 39.2061 31.8269 39.1984 32.1376 39.1877C32.2062 39.1854 32.2733 39.1765 32.3391 39.1628C37.4454 38.9773 42.4194 38.0951 46.7358 36.6057C47.2266 36.4364 47.5491 35.966 47.5302 35.4471C47.3854 31.4739 45.7657 28.0219 42.8466 25.4643C41.0621 23.901 38.7931 22.6978 36.2665 21.9464C38.7347 20.124 40.1937 17.4543 40.1937 14.7116V11.3113C40.1937 11.3091 40.1934 11.3068 40.1934 11.3046C40.2403 7.86551 39.2091 4.97484 37.2093 2.94457C35.3389 1.04578 32.7366 0 29.8819 0C25.0179 0 19.8483 3.24457 19.8483 9.25758V11.3146V14.712C19.8483 17.1752 20.9857 19.5306 23.0505 21.3441C23.3021 21.5651 23.5642 21.7734 23.8344 21.9698C21.3126 22.722 19.048 23.9244 17.2669 25.4855C14.3502 28.0419 12.7313 31.4923 12.5848 35.4635C12.5657 35.9824 12.888 36.4529 13.3787 36.6225C17.7562 38.135 22.8061 39.0223 27.983 39.1881C27.9852 39.1881 27.9873 39.1881 27.9896 39.1882C28.2722 39.1978 28.5565 39.2039 28.8407 39.2091V44.5286H24.2824C23.6307 44.5286 23.1023 45.057 23.1023 45.7088C23.1023 46.3605 23.6308 46.8889 24.2824 46.8889H28.8407V50.1918H27.4833C26.1633 50.1918 25.0892 51.2674 25.0892 52.5895V57.6059C25.0892 58.9262 26.1633 60.0002 27.4833 60.0002H32.4989C33.8208 60.0002 34.8965 58.9262 34.8965 57.6059V52.5895C34.8965 51.2674 33.8208 50.1918 32.4989 50.1918H31.2012V46.8889H35.7593C36.4112 46.8889 36.9396 46.3605 36.9396 45.7088C36.9396 45.057 36.4112 44.5284 35.7593 44.5284ZM45.1114 34.6582C44.2255 34.9407 43.3115 35.1957 42.3762 35.4254V32.8792C42.3762 32.2274 41.8477 31.699 41.196 31.699C40.5441 31.699 40.0158 32.2274 40.0158 32.8792V35.9389C38.0133 36.3209 35.9331 36.5863 33.8152 36.7255L34.2458 35.5325C34.3178 35.3331 34.3348 35.1178 34.2948 34.9096L32.6349 26.2533L33.5602 23.7255C38.9331 24.6839 44.4353 27.994 45.1114 34.6582ZM22.2087 9.25758C22.2087 4.72945 26.0689 2.36039 29.882 2.36039C32.0997 2.36039 34.1045 3.15609 35.5278 4.60102C36.8588 5.95242 37.6348 7.8484 37.8012 10.1312H31.8819C29.0166 10.1312 26.8753 9.31945 25.1428 7.57652C24.9168 7.34906 24.6137 7.22824 24.3055 7.22824C24.152 7.22824 23.9971 7.25813 23.8498 7.31988C23.4068 7.50539 23.1203 7.94109 23.1256 8.42133C23.132 9.01102 23.0023 9.44461 22.7397 9.70992C22.5918 9.85957 22.4022 9.95906 22.2086 10.025V9.25758H22.2087ZM25.8726 35.5327L26.3097 36.7437C24.0939 36.5995 21.9185 36.3169 19.8304 35.906V32.8693C19.8304 32.2175 19.302 31.6891 18.6503 31.6891C17.9984 31.6891 17.47 32.2175 17.47 32.8693V35.3768C16.6286 35.1643 15.8049 34.931 15.004 34.6752C15.683 28.0095 21.1906 24.6996 26.5628 23.7429L27.4834 26.2535L25.8236 34.9096C25.7837 35.1179 25.8007 35.3331 25.8726 35.5327ZM27.886 21.377C27.7589 21.3097 27.6203 21.2657 27.4764 21.248C24.5074 20.2225 22.2087 17.5598 22.2087 14.712V12.4461C22.9017 12.3349 23.7443 12.0511 24.4182 11.3699C24.6604 11.1248 24.8621 10.8493 25.0221 10.5444C26.9158 11.852 29.178 12.4916 31.8819 12.4916H37.8333V14.7121C37.8333 16.8199 36.5972 18.9036 34.5276 20.2857C33.9246 20.6878 33.2775 21.0102 32.6124 21.2445C32.6063 21.2454 32.6004 21.247 32.5944 21.248C32.5783 21.2505 32.5627 21.2542 32.5467 21.2575C32.5254 21.2619 32.5043 21.2663 32.4834 21.2719C32.4668 21.2762 32.4508 21.2815 32.4346 21.2865C32.4144 21.2927 32.3943 21.2991 32.3745 21.3064C32.359 21.3122 32.3439 21.3186 32.3287 21.3251C32.3086 21.3335 32.2886 21.3421 32.269 21.3516C32.261 21.3554 32.2531 21.3592 32.2452 21.3633C31.5106 21.5842 30.7605 21.6988 30.0287 21.6934C29.2961 21.6882 28.5758 21.5761 27.886 21.377ZM30.9423 24.0105L30.5895 24.9742H29.5283L29.1746 24.0096C29.4546 24.0357 29.7348 24.0516 30.0144 24.0534C30.0312 24.0536 30.0477 24.0536 30.0646 24.0536C30.356 24.0536 30.649 24.038 30.9423 24.0105ZM32.4989 52.5519C32.517 52.5519 32.5361 52.5711 32.5361 52.5893V57.6056C32.5361 57.6187 32.519 57.6396 32.4989 57.6396H27.4833C27.4684 57.6396 27.4497 57.6205 27.4497 57.6056V52.5893C27.4497 52.569 27.4703 52.5519 27.4833 52.5519H32.4989ZM30.0633 36.8579C30.0594 36.8579 30.0556 36.8579 30.0516 36.8579C29.6555 36.86 29.2566 36.8571 28.8575 36.8497L28.2027 35.0359L29.6796 27.3345H30.4389L31.9159 35.0359L31.2611 36.8497C30.861 36.8572 30.4606 36.8599 30.0633 36.8579Z" fill="#2D3142"/>
<path d="M40.4305 44.5283H40.4107C39.7587 44.5283 39.2305 45.0567 39.2305 45.7085C39.2305 46.3603 39.7589 46.8887 40.4107 46.8887H40.4305C41.0823 46.8887 41.6107 46.3603 41.6107 45.7085C41.6107 45.0567 41.0821 44.5283 40.4305 44.5283Z" fill="#2D3142"/>
</g>
<defs>
<clipPath id="clip0_1814_21933">
<rect width="60" height="60" fill="white"/>
</clipPath>
</defs>
</svg>
