<svg width="60" height="60" viewBox="0 0 60 60" fill="none" xmlns="http://www.w3.org/2000/svg">
<path d="M58.8281 45H52.2702C51.9598 45 51.6614 45.1236 51.4417 45.3433L45.4568 51.3281H41.9531C41.6423 51.3281 41.3443 51.4517 41.1246 51.6714L34.7964 57.9996C34.3387 58.4573 34.3387 59.1989 34.7964 59.6567C35.0253 59.8856 35.3252 60 35.625 60C35.9248 60 36.2247 59.8856 36.4536 59.6567L42.4384 53.6719H55.3125C55.9598 53.6719 56.4844 53.1473 56.4844 52.5C56.4844 51.8527 55.9598 51.3281 55.3125 51.3281H48.7715L52.7559 47.3438H58.8281C59.4754 47.3438 60 46.8192 60 46.1719C60 45.5246 59.4754 45 58.8281 45Z" fill="#2D3142"/>
<path d="M18.8754 51.6714C18.6557 51.4517 18.3577 51.3281 18.0469 51.3281H14.5432L8.55835 45.3433C8.33862 45.1236 8.04016 45 7.7298 45H1.17188C0.524597 45 0 45.5246 0 46.1719C0 46.8192 0.524597 47.3438 1.17188 47.3438H7.24411L11.2285 51.3281H5.625C4.97772 51.3281 4.45312 51.8527 4.45312 52.5C4.45312 53.1473 4.97772 53.6719 5.625 53.6719H17.5616L23.5464 59.6567C23.7753 59.8856 24.0752 60 24.375 60C24.6748 60 24.9747 59.8856 25.2036 59.6567C25.6613 59.1989 25.6613 58.4573 25.2036 57.9996L18.8754 51.6714Z" fill="#2D3142"/>
<path d="M34.9222 34.6875V31.1719H37.0316C37.6789 31.1719 38.2035 30.6473 38.2035 30V16.5404L41.1414 13.602C41.3611 13.3823 41.4847 13.0843 41.4847 12.7734V7.03125H48.3425C50.2811 7.03125 51.8581 5.45425 51.8581 3.51562C51.8581 1.577 50.2811 0 48.3425 0H11.6582C9.71957 0 8.14258 1.577 8.14258 3.51562C8.14258 5.45425 9.71957 7.03125 11.6582 7.03125H18.516V12.7734C18.516 13.0843 18.6396 13.3823 18.8593 13.602L21.7972 16.5404V30C21.7972 30.6473 22.3218 31.1719 22.9691 31.1719H25.0785V34.6875C25.0785 35.2542 25.4813 35.7271 26.016 35.836V52.5206C26.016 52.8296 26.1377 53.1258 26.3552 53.345L29.1677 56.1864C29.3874 56.4088 29.6877 56.5343 30.0003 56.5343C30.313 56.5343 30.6133 56.4088 30.833 56.1864L33.6455 53.345C33.8629 53.1258 33.9847 52.8296 33.9847 52.5206V35.836C34.5194 35.7271 34.9222 35.2542 34.9222 34.6875ZM28.3597 43.3955L31.641 40.1143V44.827L28.3597 48.1082V43.3955ZM31.641 36.7996L28.3597 40.0809V35.8594H31.641V36.7996ZM20.8597 7.03125H24.7269C25.3742 7.03125 25.8988 6.50665 25.8988 5.85938C25.8988 5.2121 25.3742 4.6875 24.7269 4.6875H11.6582C11.0118 4.6875 10.4863 4.16199 10.4863 3.51562C10.4863 2.86926 11.0118 2.34375 11.6582 2.34375H48.3425C48.9888 2.34375 49.5143 2.86926 49.5143 3.51562C49.5143 4.16199 48.9888 4.6875 48.3425 4.6875H35.2738C34.6265 4.6875 34.1019 5.2121 34.1019 5.85938C34.1019 6.50665 34.6265 7.03125 35.2738 7.03125H39.141V12.2878L36.6635 14.7656H23.3371L20.8597 12.2878V7.03125ZM24.141 17.1094H35.8597V28.8281H24.141V17.1094ZM32.5785 31.1719V33.5156H27.4222V31.1719H32.5785ZM30.0003 53.6961L28.3597 52.0386V51.4229L31.641 48.1416V52.0386L30.0003 53.6961Z" fill="#2D3142"/>
<path d="M30 7.03125C30.3081 7.03125 30.6107 6.90582 30.8286 6.68793C31.0464 6.47003 31.1719 6.16745 31.1719 5.85938C31.1719 5.5513 31.0464 5.24872 30.8286 5.03082C30.6107 4.81293 30.3081 4.6875 30 4.6875C29.6919 4.6875 29.3893 4.81293 29.1714 5.03082C28.9536 5.24872 28.8281 5.5513 28.8281 5.85938C28.8281 6.16745 28.9536 6.47003 29.1714 6.68793C29.3893 6.90582 29.6919 7.03125 30 7.03125Z" fill="#2D3142"/>
</svg>
