<svg width="60" height="60" viewBox="0 0 60 60" fill="none" xmlns="http://www.w3.org/2000/svg">
<g clip-path="url(#clip0_1814_21901)">
<path d="M59.581 34.7875C59.4554 34.2594 58.9837 33.8868 58.4409 33.8868C56.8452 33.8868 53.9822 33.0922 51.5612 32.04V26.9547C51.5612 25.0163 49.9841 23.4392 48.0457 23.4392H45.702V2.3454C45.702 1.05309 44.6506 0.00170898 43.3583 0.00170898H8.20292C6.91061 0.00170898 5.85923 1.05309 5.85923 2.3454V16.4081H2.34369C1.05138 16.4081 0 17.4595 0 18.7518V52.7354C0 54.6739 1.57707 56.251 3.51554 56.251H41.5788C42.9573 57.5249 44.5908 58.7407 46.5275 59.8463C46.7075 59.9491 46.908 60.0004 47.1085 60.0004C47.309 60.0004 47.5094 59.949 47.6895 59.8463C55.7993 55.2168 58.6061 48.6571 59.5327 43.9693C60.5342 38.902 59.6203 34.9532 59.581 34.7875ZM8.20292 2.3454H43.3583V23.4392H23.0585L21.0943 18.5287C20.579 17.2405 19.3884 16.408 18.0612 16.408H8.20292V2.3454ZM2.34369 52.7354V51.5635H8.43682C9.08403 51.5635 9.60866 51.0389 9.60866 50.3916C9.60866 49.7444 9.08403 49.2198 8.43682 49.2198H2.34369V18.7518H18.0612C18.4744 18.7518 18.7894 19.0769 18.9183 19.3991L21.1772 25.0463C21.3552 25.4912 21.7861 25.7829 22.2653 25.7829H48.0459C48.692 25.7829 49.2177 26.3086 49.2177 26.9547V30.8395C48.6983 30.518 48.2567 30.1915 47.9326 29.8709C47.476 29.4194 46.7413 29.4194 46.2846 29.8709C44.3627 31.7714 38.3803 33.8867 35.7761 33.8867C35.2334 33.8867 34.7616 34.2593 34.636 34.7873C34.5966 34.953 33.6827 38.9019 34.6844 43.9692C35.257 46.8661 36.5484 50.4779 39.3649 53.9073H3.51554C2.86938 53.9073 2.34369 53.3816 2.34369 52.7354ZM57.2334 43.5148C56.0635 49.4327 52.6587 54.1247 47.1084 57.4701C41.5888 54.143 38.1902 49.4823 37.0021 43.6078C36.3373 40.3204 36.5773 37.5097 36.7695 36.1691C39.7929 35.8289 44.5682 34.1216 47.1085 32.2351C49.6493 34.1221 54.4261 35.8296 57.4496 36.1693C57.6411 37.4922 57.8787 40.2498 57.2334 43.5148Z" fill="#2D3142"/>
<path d="M12.4804 7.03192H39.0812C39.7284 7.03192 40.253 6.50729 40.253 5.86008C40.253 5.21287 39.7284 4.68823 39.0812 4.68823H12.4804C11.8332 4.68823 11.3086 5.21287 11.3086 5.86008C11.3086 6.50729 11.8332 7.03192 12.4804 7.03192Z" fill="#2D3142"/>
<path d="M40.253 10.5473C40.253 9.90012 39.7284 9.37549 39.0812 9.37549H12.4804C11.8332 9.37549 11.3086 9.90012 11.3086 10.5473C11.3086 11.1945 11.8332 11.7192 12.4804 11.7192H39.0812C39.7283 11.7192 40.253 11.1945 40.253 10.5473Z" fill="#2D3142"/>
<path d="M39.0817 14.063H25.7812C25.134 14.063 24.6094 14.5876 24.6094 15.2348C24.6094 15.882 25.134 16.4067 25.7812 16.4067H39.0817C39.7289 16.4067 40.2535 15.882 40.2535 15.2348C40.2535 14.5876 39.7288 14.063 39.0817 14.063Z" fill="#2D3142"/>
<path d="M39.0799 18.7505H32.166C31.5188 18.7505 30.9941 19.2751 30.9941 19.9223C30.9941 20.5695 31.5188 21.0942 32.166 21.0942H39.0799C39.7271 21.0942 40.2517 20.5695 40.2517 19.9223C40.2517 19.2751 39.727 18.7505 39.0799 18.7505Z" fill="#2D3142"/>
<path d="M51.4874 38.3901C50.5484 38.3901 49.6657 38.7559 49.0017 39.4198L45.7674 42.6541L45.2178 42.1045C44.5538 41.4406 43.6711 41.0749 42.7321 41.0749C41.7931 41.0749 40.9103 41.4407 40.2465 42.1045C39.5825 42.7685 39.2168 43.6512 39.2168 44.5902C39.2168 45.5292 39.5825 46.412 40.2464 47.076L43.2817 50.1113C43.967 50.7966 44.8672 51.1391 45.7673 51.1391C46.6674 51.1391 47.5677 50.7964 48.253 50.1113L53.973 44.3913C55.3436 43.0207 55.3436 40.7904 53.973 39.42C53.3093 38.7559 52.4265 38.3901 51.4874 38.3901ZM52.3159 42.7338L46.596 48.4538C46.1392 48.9106 45.3959 48.9105 44.9392 48.4538L41.9038 45.4185C41.6825 45.1973 41.5607 44.903 41.5607 44.5901C41.5607 44.2771 41.6826 43.983 41.9038 43.7618C42.1251 43.5404 42.4193 43.4186 42.7322 43.4186C43.0451 43.4186 43.3393 43.5405 43.5606 43.7618L44.9388 45.14C45.1585 45.3597 45.4566 45.4832 45.7674 45.4832C46.0782 45.4832 46.3763 45.3597 46.596 45.14L50.6589 41.0771C50.8802 40.8557 51.1744 40.7339 51.4873 40.7339C51.8003 40.7339 52.0944 40.8558 52.3157 41.0771C52.7727 41.5338 52.7727 42.277 52.3159 42.7338Z" fill="#2D3142"/>
<path d="M13.709 49.2188C13.0618 49.2188 12.5371 49.7434 12.5371 50.3906C12.5371 51.0379 13.0618 51.5625 13.709 51.5625H13.7098C14.357 51.5625 14.8813 51.0379 14.8813 50.3906C14.8813 49.7434 14.3562 49.2188 13.709 49.2188Z" fill="#2D3142"/>
</g>
<defs>
<clipPath id="clip0_1814_21901">
<rect width="60" height="60" fill="white"/>
</clipPath>
</defs>
</svg>
