<svg width="170" height="120" viewBox="0 0 170 120" fill="none" xmlns="http://www.w3.org/2000/svg">
<path d="M67.914 72.7271C69.342 71.5324 69.5886 70.0497 69.5886 68.7249V63.1415H61.8257V70.7165C61.8257 71.7989 60.95 72.6779 59.873 72.6779C58.7935 72.6779 57.9921 71.8001 57.9921 70.7165V49.257C57.9921 48.1747 58.7935 47.2969 59.873 47.2969C60.9488 47.2969 61.8257 48.1734 61.8257 49.257V56.8787H69.5798V48.9728C69.5786 44.6044 66.7351 41.0101 59.8063 41C52.6926 41 50.0039 44.612 50.0039 48.9804V71.3834C50.0039 75.7139 53.4287 78.9912 57.8071 78.9899H60.2127L67.914 72.7271ZM98.5229 73.6061V48.9867H93.1668V41.7338H112.559V48.9867H107.173V78.9483H104.877L98.5229 73.6061Z" fill="black"/>
<path class="path path-hover" d="M67.914 72.7271C69.342 71.5324 69.5886 70.0497 69.5886 68.7249V63.1415H61.8257V70.7165C61.8257 71.7989 60.95 72.6779 59.873 72.6779C58.7935 72.6779 57.9921 71.8001 57.9921 70.7165V49.257C57.9921 48.1747 58.7935 47.2969 59.873 47.2969C60.9488 47.2969 61.8257 48.1734 61.8257 49.257V56.8787H69.5798V48.9728C69.5786 44.6044 66.7351 41.0101 59.8063 41C52.6926 41 50.0039 44.612 50.0039 48.9804V71.3834C50.0039 75.7139 53.4287 78.9912 57.8071 78.9899H60.2127L67.914 72.7271ZM98.5229 73.6061V48.9867H93.1668V41.7338H112.559V48.9867H107.173V78.9483H104.877L98.5229 73.6061Z" fill="#B7BCD1"/>
<path d="M101.999 78.9999L83.1126 63.1187L63.543 78.9999H101.999Z" fill="#F6D33C"/>
<path class="path path-hover" d="M101.999 78.9999L83.1126 63.1187L63.543 78.9999H101.999Z" fill="#B7BCD1"/>
<path d="M88.5046 41.7744H77.6843L71.3809 70.1611L83.1184 60.6538L95.3566 70.9466L88.5046 41.7744ZM81.0248 58.8339L83.1184 48.1054L85.1956 58.8339H81.0248ZM118.449 42.9161C119.053 42.9161 119.569 43.1308 119.995 43.5614C120.419 43.9896 120.632 44.5061 120.632 45.1123C120.632 45.7223 120.419 46.2426 119.995 46.672C119.57 47.1027 119.056 47.3174 118.449 47.3174C117.843 47.3174 117.326 47.1027 116.903 46.672C116.697 46.4687 116.535 46.2256 116.426 45.9575C116.317 45.6894 116.264 45.4018 116.269 45.1123C116.269 44.5074 116.481 43.9896 116.905 43.5614C117.105 43.3535 117.345 43.189 117.611 43.078C117.876 42.967 118.162 42.9119 118.449 42.9161ZM120.997 45.1073C120.997 44.4051 120.749 43.8065 120.253 43.3126C119.758 42.8188 119.159 42.5713 118.455 42.5713C118.123 42.5661 117.793 42.6291 117.485 42.7566C117.178 42.8841 116.9 43.0733 116.668 43.3126C116.428 43.5448 116.238 43.8239 116.11 44.1326C115.982 44.4412 115.919 44.773 115.924 45.1073C115.924 45.8145 116.169 46.4169 116.66 46.9132C117.154 47.4133 117.752 47.6621 118.455 47.6621C119.159 47.6621 119.758 47.4133 120.253 46.9132C120.749 46.4144 120.997 45.812 120.997 45.1073ZM119.129 44.5604C119.129 44.7738 119.032 44.9191 118.839 44.9949C118.687 45.0427 118.527 45.0636 118.367 45.0567H117.921V44.0502H118.343C118.893 44.0502 119.129 44.1563 119.129 44.5604ZM117.429 43.7054V46.4977H117.921V45.4015H118.309C118.571 45.4015 118.754 45.4306 118.858 45.4912C119.034 45.5947 119.121 45.8069 119.121 46.1277V46.3487L119.132 46.4384C119.134 46.449 119.136 46.4596 119.139 46.4699L119.146 46.4965H119.603L119.585 46.4624C119.556 46.2439 119.554 45.9067 119.554 45.9067C119.552 45.7342 119.488 45.5683 119.374 45.4391C119.26 45.31 119.104 45.2263 118.934 45.2032C119.427 45.1212 119.603 44.8976 119.603 44.5149C119.603 44.1626 119.459 43.9264 119.17 43.8052C119.008 43.737 118.754 43.7042 118.408 43.7042H117.429V43.7054Z" fill="black"/>
<path class="path path-hover" d="M88.5046 41.7744H77.6843L71.3809 70.1611L83.1184 60.6538L95.3566 70.9466L88.5046 41.7744ZM81.0248 58.8339L83.1184 48.1054L85.1956 58.8339H81.0248ZM118.449 42.9161C119.053 42.9161 119.569 43.1308 119.995 43.5614C120.419 43.9896 120.632 44.5061 120.632 45.1123C120.632 45.7223 120.419 46.2426 119.995 46.672C119.57 47.1027 119.056 47.3174 118.449 47.3174C117.843 47.3174 117.326 47.1027 116.903 46.672C116.697 46.4687 116.535 46.2256 116.426 45.9575C116.317 45.6894 116.264 45.4018 116.269 45.1123C116.269 44.5074 116.481 43.9896 116.905 43.5614C117.105 43.3535 117.345 43.189 117.611 43.078C117.876 42.967 118.162 42.9119 118.449 42.9161ZM120.997 45.1073C120.997 44.4051 120.749 43.8065 120.253 43.3126C119.758 42.8188 119.159 42.5713 118.455 42.5713C118.123 42.5661 117.793 42.6291 117.485 42.7566C117.178 42.8841 116.9 43.0733 116.668 43.3126C116.428 43.5448 116.238 43.8239 116.11 44.1326C115.982 44.4412 115.919 44.773 115.924 45.1073C115.924 45.8145 116.169 46.4169 116.66 46.9132C117.154 47.4133 117.752 47.6621 118.455 47.6621C119.159 47.6621 119.758 47.4133 120.253 46.9132C120.749 46.4144 120.997 45.812 120.997 45.1073ZM119.129 44.5604C119.129 44.7738 119.032 44.9191 118.839 44.9949C118.687 45.0427 118.527 45.0636 118.367 45.0567H117.921V44.0502H118.343C118.893 44.0502 119.129 44.1563 119.129 44.5604ZM117.429 43.7054V46.4977H117.921V45.4015H118.309C118.571 45.4015 118.754 45.4306 118.858 45.4912C119.034 45.5947 119.121 45.8069 119.121 46.1277V46.3487L119.132 46.4384C119.134 46.449 119.136 46.4596 119.139 46.4699L119.146 46.4965H119.603L119.585 46.4624C119.556 46.2439 119.554 45.9067 119.554 45.9067C119.552 45.7342 119.488 45.5683 119.374 45.4391C119.26 45.31 119.104 45.2263 118.934 45.2032C119.427 45.1212 119.603 44.8976 119.603 44.5149C119.603 44.1626 119.459 43.9264 119.17 43.8052C119.008 43.737 118.754 43.7042 118.408 43.7042H117.429V43.7054Z" fill="#B7BCD1"/>
</svg>
