<svg width="170" height="120" viewBox="0 0 170 120" fill="none" xmlns="http://www.w3.org/2000/svg">
<path d="M119.592 44.3872H129V34.9998H119.592V44.3872Z" fill="#A32428"/>
<path class="path path-hover" d="M119.592 44.3872H129V34.9998H119.592V44.3872Z" fill="#B7BCD1"/>
<path d="M65.6449 79.8167C65.2954 79.5095 64.8659 79.2698 64.3575 79.0987C63.8479 78.9287 63.2684 78.8432 62.618 78.8432H59.8143V85.8694H62.5763C63.2267 85.8694 63.8107 85.7805 64.3259 85.6038C64.8422 85.426 65.2763 85.1807 65.6291 84.8655C65.982 84.5515 66.2525 84.1779 66.4397 83.7468C66.6268 83.3158 66.7193 82.8453 66.7193 82.3366V82.3164C66.7193 81.8077 66.6279 81.3406 66.4453 80.9163C66.2616 80.4909 65.9944 80.1251 65.6449 79.8167ZM64.663 82.367C64.663 82.9354 64.4792 83.3732 64.1106 83.6816C63.7431 83.9888 63.256 84.143 62.6518 84.143H61.8288V80.5697H62.6518C63.256 80.5697 63.7431 80.725 64.1106 81.0367C64.4792 81.3474 64.663 81.784 64.663 82.3468V82.367ZM70.1982 66.578H56.4469C55.1471 66.578 53.9397 66.0895 53.0479 65.2049C52.1393 64.3091 51.6455 62.9247 51.6455 61.6552V60.7549C51.6455 59.5056 52.1359 58.3306 53.0288 57.4483C53.9239 56.5625 55.1121 56.0718 56.377 56.0718H70.1982V46.7136H58.7185C53.8709 46.7452 41 47.0817 41 61.3333C41 75.5828 53.9239 75.6593 58.7873 75.6931L70.1982 75.6964V66.578ZM42.7575 85.8694H44.7822V78.8432H42.7575V85.8694ZM53.6691 82.5572L50.6715 78.8432H48.7877V85.8694H50.7707V82.0148L53.8833 85.8694H55.6521V78.8432H53.6691V82.5572ZM74.5656 82.7981C74.5656 83.2933 74.445 83.6579 74.2048 83.892C73.9647 84.1261 73.6423 84.2432 73.2364 84.2432C72.8317 84.2432 72.5082 84.1216 72.268 83.8774C72.0279 83.6332 71.9073 83.2561 71.9073 82.7474V78.8432H69.851V82.7879C69.851 83.3372 69.9288 83.8132 70.0855 84.2184C70.2411 84.6236 70.4643 84.9578 70.7551 85.2223C71.0449 85.4868 71.3977 85.6826 71.8137 85.8098C72.2297 85.9358 72.6964 86 73.2161 86C73.7347 86 74.2037 85.9358 74.6231 85.8098C75.0413 85.6826 75.3987 85.4868 75.6929 85.2223C75.9872 84.9578 76.2149 84.6191 76.3783 84.2083C76.5407 83.7964 76.6219 83.3068 76.6219 82.7384V78.8432H74.5656V82.7981ZM125.422 78.8432H123.408V85.8694H128.943V84.1633H125.422V78.8432ZM116.297 78.7926L113.202 85.8694H115.32L115.839 84.6146H118.644L119.172 85.8694H121.333L118.238 78.7926H116.297ZM116.431 83.1098L117.251 81.1121L118.062 83.1098H116.431ZM108.429 85.8694H110.453V78.8432H108.429V85.8694ZM119.592 46.7362V56.4106H107.048V46.7136H97.6389V63.4256C96.0967 61.4313 87.3643 51.1772 86.4951 50.1699C85.6271 49.1638 84.2709 47.8357 83.0162 47.3484C81.7648 46.8577 80.2497 46.7136 78.9025 46.7136H72.5724V75.6964H81.9587V59.4043C83.5787 61.2557 93.1871 71.9554 93.1871 71.9554C94.6357 73.7123 96.6108 74.7848 97.7596 75.1753C99.091 75.6289 99.9737 75.6964 101.377 75.6964H107.048V65.5268H119.592V75.6964H128.951V46.7362H119.592ZM85.4715 82.232C85.2359 82.0654 84.9507 81.9236 84.6147 81.8065C84.2788 81.6895 83.9034 81.5882 83.4885 81.5015C83.2382 81.4475 83.0331 81.3958 82.8696 81.3462C82.7073 81.2956 82.5787 81.2461 82.4863 81.1954C82.3916 81.1459 82.3262 81.0908 82.2879 81.03C82.2507 80.9703 82.2315 80.9006 82.2315 80.8195V80.8004C82.2315 80.6732 82.2913 80.5663 82.413 80.4796C82.5348 80.393 82.7163 80.3491 82.9587 80.3491C83.2833 80.3491 83.6215 80.4076 83.971 80.5246C84.3205 80.6417 84.661 80.8139 84.9935 81.0412L86.0014 79.6614C85.6068 79.353 85.1649 79.119 84.6767 78.9603C84.1886 78.8016 83.6328 78.7228 83.0105 78.7228C82.5742 78.7228 82.183 78.7779 81.837 78.8882C81.4909 78.9985 81.1944 79.1538 80.9486 79.3542C80.7028 79.5545 80.5157 79.7908 80.3883 80.0655C80.2598 80.3401 80.1955 80.6394 80.1955 80.967V80.9872C80.1955 81.3474 80.2666 81.6501 80.4086 81.8943C80.5507 82.1386 80.7446 82.3411 80.9903 82.5055C81.2361 82.6686 81.5247 82.8026 81.8572 82.9061C82.1898 83.0097 82.5494 83.1042 82.9372 83.192C83.1864 83.2449 83.3893 83.2967 83.5449 83.3473C83.7005 83.3968 83.8256 83.4486 83.9192 83.5026C84.0127 83.5555 84.0759 83.6107 84.1108 83.6681C84.1458 83.7243 84.1627 83.7896 84.1627 83.8628V83.883C84.1627 84.0372 84.0916 84.1554 83.9496 84.2387C83.8076 84.3219 83.6024 84.3636 83.3318 84.3636C82.4874 84.3636 81.7017 84.0833 80.9745 83.5206L79.8528 84.8183C80.3026 85.2088 80.8212 85.5014 81.4063 85.6973C81.9903 85.892 82.6081 85.9899 83.2597 85.9899C83.7027 85.9899 84.104 85.9381 84.4648 85.8346C84.8244 85.731 85.1322 85.5802 85.3881 85.3832C85.644 85.1863 85.8435 84.9477 85.9856 84.6675C86.1276 84.3872 86.1987 84.0665 86.1987 83.7052V83.6849C86.1987 83.3586 86.1355 83.0761 86.0115 82.8386C85.8875 82.6011 85.7071 82.3997 85.4715 82.232ZM104.338 82.6067C104.608 82.2522 104.742 81.8043 104.742 81.2618V81.2427C104.742 80.5528 104.528 80.0069 104.099 79.6063C103.856 79.3654 103.542 79.1775 103.154 79.0435C102.766 78.9107 102.292 78.8432 101.731 78.8432H98.2939V85.8694H100.309V83.7412H101.191L102.656 85.8694H104.981L103.247 83.4205C103.704 83.2336 104.068 82.9624 104.338 82.6067ZM102.718 81.3834C102.718 81.6377 102.624 81.8392 102.437 81.99C102.251 82.1408 101.984 82.2162 101.638 82.2162H100.309V80.5291H101.627C101.967 80.5291 102.233 80.5989 102.427 80.7351C102.621 80.8724 102.718 81.0817 102.718 81.3631V81.3834ZM89.0125 80.5494H91.1928V85.8694H93.2074V80.5494H95.3888V78.8432H89.0125V80.5494Z" fill="#231F20"/>
<path class="path path-hover" d="M65.6449 79.8167C65.2954 79.5095 64.8659 79.2698 64.3575 79.0987C63.8479 78.9287 63.2684 78.8432 62.618 78.8432H59.8143V85.8694H62.5763C63.2267 85.8694 63.8107 85.7805 64.3259 85.6038C64.8422 85.426 65.2763 85.1807 65.6291 84.8655C65.982 84.5515 66.2525 84.1779 66.4397 83.7468C66.6268 83.3158 66.7193 82.8453 66.7193 82.3366V82.3164C66.7193 81.8077 66.6279 81.3406 66.4453 80.9163C66.2616 80.4909 65.9944 80.1251 65.6449 79.8167ZM64.663 82.367C64.663 82.9354 64.4792 83.3732 64.1106 83.6816C63.7431 83.9888 63.256 84.143 62.6518 84.143H61.8288V80.5697H62.6518C63.256 80.5697 63.7431 80.725 64.1106 81.0367C64.4792 81.3474 64.663 81.784 64.663 82.3468V82.367ZM70.1982 66.578H56.4469C55.1471 66.578 53.9397 66.0895 53.0479 65.2049C52.1393 64.3091 51.6455 62.9247 51.6455 61.6552V60.7549C51.6455 59.5056 52.1359 58.3306 53.0288 57.4483C53.9239 56.5625 55.1121 56.0718 56.377 56.0718H70.1982V46.7136H58.7185C53.8709 46.7452 41 47.0817 41 61.3333C41 75.5828 53.9239 75.6593 58.7873 75.6931L70.1982 75.6964V66.578ZM42.7575 85.8694H44.7822V78.8432H42.7575V85.8694ZM53.6691 82.5572L50.6715 78.8432H48.7877V85.8694H50.7707V82.0148L53.8833 85.8694H55.6521V78.8432H53.6691V82.5572ZM74.5656 82.7981C74.5656 83.2933 74.445 83.6579 74.2048 83.892C73.9647 84.1261 73.6423 84.2432 73.2364 84.2432C72.8317 84.2432 72.5082 84.1216 72.268 83.8774C72.0279 83.6332 71.9073 83.2561 71.9073 82.7474V78.8432H69.851V82.7879C69.851 83.3372 69.9288 83.8132 70.0855 84.2184C70.2411 84.6236 70.4643 84.9578 70.7551 85.2223C71.0449 85.4868 71.3977 85.6826 71.8137 85.8098C72.2297 85.9358 72.6964 86 73.2161 86C73.7347 86 74.2037 85.9358 74.6231 85.8098C75.0413 85.6826 75.3987 85.4868 75.6929 85.2223C75.9872 84.9578 76.2149 84.6191 76.3783 84.2083C76.5407 83.7964 76.6219 83.3068 76.6219 82.7384V78.8432H74.5656V82.7981ZM125.422 78.8432H123.408V85.8694H128.943V84.1633H125.422V78.8432ZM116.297 78.7926L113.202 85.8694H115.32L115.839 84.6146H118.644L119.172 85.8694H121.333L118.238 78.7926H116.297ZM116.431 83.1098L117.251 81.1121L118.062 83.1098H116.431ZM108.429 85.8694H110.453V78.8432H108.429V85.8694ZM119.592 46.7362V56.4106H107.048V46.7136H97.6389V63.4256C96.0967 61.4313 87.3643 51.1772 86.4951 50.1699C85.6271 49.1638 84.2709 47.8357 83.0162 47.3484C81.7648 46.8577 80.2497 46.7136 78.9025 46.7136H72.5724V75.6964H81.9587V59.4043C83.5787 61.2557 93.1871 71.9554 93.1871 71.9554C94.6357 73.7123 96.6108 74.7848 97.7596 75.1753C99.091 75.6289 99.9737 75.6964 101.377 75.6964H107.048V65.5268H119.592V75.6964H128.951V46.7362H119.592ZM85.4715 82.232C85.2359 82.0654 84.9507 81.9236 84.6147 81.8065C84.2788 81.6895 83.9034 81.5882 83.4885 81.5015C83.2382 81.4475 83.0331 81.3958 82.8696 81.3462C82.7073 81.2956 82.5787 81.2461 82.4863 81.1954C82.3916 81.1459 82.3262 81.0908 82.2879 81.03C82.2507 80.9703 82.2315 80.9006 82.2315 80.8195V80.8004C82.2315 80.6732 82.2913 80.5663 82.413 80.4796C82.5348 80.393 82.7163 80.3491 82.9587 80.3491C83.2833 80.3491 83.6215 80.4076 83.971 80.5246C84.3205 80.6417 84.661 80.8139 84.9935 81.0412L86.0014 79.6614C85.6068 79.353 85.1649 79.119 84.6767 78.9603C84.1886 78.8016 83.6328 78.7228 83.0105 78.7228C82.5742 78.7228 82.183 78.7779 81.837 78.8882C81.4909 78.9985 81.1944 79.1538 80.9486 79.3542C80.7028 79.5545 80.5157 79.7908 80.3883 80.0655C80.2598 80.3401 80.1955 80.6394 80.1955 80.967V80.9872C80.1955 81.3474 80.2666 81.6501 80.4086 81.8943C80.5507 82.1386 80.7446 82.3411 80.9903 82.5055C81.2361 82.6686 81.5247 82.8026 81.8572 82.9061C82.1898 83.0097 82.5494 83.1042 82.9372 83.192C83.1864 83.2449 83.3893 83.2967 83.5449 83.3473C83.7005 83.3968 83.8256 83.4486 83.9192 83.5026C84.0127 83.5555 84.0759 83.6107 84.1108 83.6681C84.1458 83.7243 84.1627 83.7896 84.1627 83.8628V83.883C84.1627 84.0372 84.0916 84.1554 83.9496 84.2387C83.8076 84.3219 83.6024 84.3636 83.3318 84.3636C82.4874 84.3636 81.7017 84.0833 80.9745 83.5206L79.8528 84.8183C80.3026 85.2088 80.8212 85.5014 81.4063 85.6973C81.9903 85.892 82.6081 85.9899 83.2597 85.9899C83.7027 85.9899 84.104 85.9381 84.4648 85.8346C84.8244 85.731 85.1322 85.5802 85.3881 85.3832C85.644 85.1863 85.8435 84.9477 85.9856 84.6675C86.1276 84.3872 86.1987 84.0665 86.1987 83.7052V83.6849C86.1987 83.3586 86.1355 83.0761 86.0115 82.8386C85.8875 82.6011 85.7071 82.3997 85.4715 82.232ZM104.338 82.6067C104.608 82.2522 104.742 81.8043 104.742 81.2618V81.2427C104.742 80.5528 104.528 80.0069 104.099 79.6063C103.856 79.3654 103.542 79.1775 103.154 79.0435C102.766 78.9107 102.292 78.8432 101.731 78.8432H98.2939V85.8694H100.309V83.7412H101.191L102.656 85.8694H104.981L103.247 83.4205C103.704 83.2336 104.068 82.9624 104.338 82.6067ZM102.718 81.3834C102.718 81.6377 102.624 81.8392 102.437 81.99C102.251 82.1408 101.984 82.2162 101.638 82.2162H100.309V80.5291H101.627C101.967 80.5291 102.233 80.5989 102.427 80.7351C102.621 80.8724 102.718 81.0817 102.718 81.3631V81.3834ZM89.0125 80.5494H91.1928V85.8694H93.2074V80.5494H95.3888V78.8432H89.0125V80.5494Z" fill="#B7BCD1"/>
</svg>
