<svg width="170" height="120" viewBox="0 0 170 120" fill="none" xmlns="http://www.w3.org/2000/svg">
<path d="M46.8438 60.0001V71.2148H49.8714H52.899L52.9922 62.6636L53.1319 54.1592L58.1624 54.019L63.1464 53.8788V62.5702V71.2148H66.174H69.2016V60.0001V48.7854H58.0227H46.8438V60.0001Z" fill="#E44402"/>
<path class="path path-hover" d="M46.8438 60.0001V71.2148H49.8714H52.899L52.9922 62.6636L53.1319 54.1592L58.1624 54.019L63.1464 53.8788V62.5702V71.2148H66.174H69.2016V60.0001V48.7854H58.0227H46.8438V60.0001Z" fill="#B7BCD1"/>
<path d="M72.9277 60.0001V71.2148H75.8622H78.7501L83.8738 64.6729L88.9975 58.131L89.1372 64.6729L89.2769 71.2148H92.4909H95.7514V60.0001V48.7854H92.7704H89.7427L84.4793 55.4208L79.2159 62.1029L79.0762 55.4208L78.9364 48.7854H75.9554H72.9277V60.0001Z" fill="#E44402"/>
<path class="path path-hover" d="M72.9277 60.0001V71.2148H75.8622H78.7501L83.8738 64.6729L88.9975 58.131L89.1372 64.6729L89.2769 71.2148H92.4909H95.7514V60.0001V48.7854H92.7704H89.7427L84.4793 55.4208L79.2159 62.1029L79.0762 55.4208L78.9364 48.7854H75.9554H72.9277V60.0001Z" fill="#B7BCD1"/>
<path d="M99.0117 60.0001V71.2148H102.272H105.533V66.6355V62.1029L110.051 66.6355L114.523 71.2148H118.761H123L117.224 65.4206L111.448 59.6263L115.361 55.047C117.457 52.477 119.506 50.0471 119.879 49.5798C120.531 48.8322 120.345 48.7854 116.851 48.7854H113.172L109.445 53.3181L105.766 57.8974L105.626 53.3181L105.486 48.7854H102.272H99.0117V60.0001Z" fill="#E44402"/>
<path class="path path-hover" d="M99.0117 60.0001V71.2148H102.272H105.533V66.6355V62.1029L110.051 66.6355L114.523 71.2148H118.761H123L117.224 65.4206L111.448 59.6263L115.361 55.047C117.457 52.477 119.506 50.0471 119.879 49.5798C120.531 48.8322 120.345 48.7854 116.851 48.7854H113.172L109.445 53.3181L105.766 57.8974L105.626 53.3181L105.486 48.7854H102.272H99.0117V60.0001Z" fill="#B7BCD1"/>
</svg>
