<svg width="170" height="120" viewBox="0 0 170 120" fill="none"
	xmlns="http://www.w3.org/2000/svg">
	<g clip-path="url(#clip0_1814_21780)">
		<path d="M149.243 58.7687C148.723 58.6666 148.195 58.6124 147.665 58.6069C145.498 58.6069 144.235 59.6852 144.235 61.2404C144.235 64.1683 148.122 63.5296 148.122 65.259C148.122 66.0428 147.488 66.3746 146.603 66.3746C145.857 66.3571 145.119 66.2169 144.42 65.9598V67.6187C145.106 67.7906 145.811 67.8756 146.519 67.8717C148.739 67.8717 149.978 66.7022 149.978 65.0931C149.978 62.1403 146.032 62.7126 146.032 61.0786C146.032 60.44 146.544 60.0418 147.543 60.0418C148.112 60.0497 148.677 60.1349 149.222 60.2948L149.243 58.7687ZM142.77 67.7307V66.2418H138.991V63.8075H142.425V62.4265H138.991V60.2036H142.719V58.7562H137.262V67.7307H142.77ZM135.1 65.9433C134.462 66.143 133.799 66.2506 133.131 66.2626C131.41 66.2626 130.587 65.2009 130.587 63.314C130.587 61.5182 131.317 60.1994 133.051 60.1994C133.733 60.2085 134.406 60.3494 135.033 60.6142V58.9138C134.421 58.7575 133.792 58.6767 133.16 58.6733C130.184 58.6733 128.664 60.6847 128.664 63.4881C128.664 65.8437 129.701 67.8385 132.808 67.8385C133.582 67.8381 134.353 67.7349 135.1 67.5316V65.9433ZM126.578 58.7562H124.827V67.7307H126.578V58.7562ZM123.093 58.7562H121.288L119.537 64.1019C119.336 64.753 119.117 65.5078 118.987 66.1216H118.958C118.811 65.4954 118.597 64.724 118.421 64.1268L116.657 58.7562H114.718L117.774 67.7307H120.049L123.093 58.7562ZM109.239 60.1372C109.239 60.1372 109.659 60.0999 110.037 60.0999C111.154 60.0999 111.678 60.6183 111.678 61.4436C111.678 62.2689 111.057 62.8122 109.999 62.8122C109.647 62.8122 109.256 62.8122 109.256 62.8122L109.239 60.1372ZM114.139 67.7182L112.174 64.7779C111.867 64.301 111.477 63.8075 111.477 63.8075C112.066 63.6961 112.596 63.3805 112.971 62.9175C113.346 62.4544 113.541 61.8744 113.521 61.2818C113.521 59.4488 112.228 58.6899 110.163 58.6899C108.752 58.6899 107.501 58.7438 107.501 58.7438V67.7307H109.248V64.1144H109.735L112.023 67.7307L114.139 67.7182ZM105.528 67.7182V66.2418H101.75V63.8075H105.18V62.4265H101.75V60.2036H105.478V58.7562H100.02V67.7307L105.528 67.7182ZM97.3838 58.7687C96.8652 58.6673 96.3382 58.6131 95.8096 58.6069C93.6391 58.6069 92.3755 59.6852 92.3755 61.2404C92.3755 64.1683 96.2672 63.5296 96.2672 65.259C96.2672 66.0428 95.6332 66.3746 94.7432 66.3746C93.9986 66.3577 93.2621 66.2175 92.5644 65.9598V67.6187C93.2503 67.791 93.9557 67.876 94.6635 67.8717C96.8843 67.8717 98.1227 66.7022 98.1227 65.0931C98.1227 62.1403 94.1807 62.7126 94.1807 61.0786C94.1807 60.44 94.6929 60.0418 95.6878 60.0418C96.2566 60.0504 96.8215 60.1355 97.3671 60.2948L97.3838 58.7687ZM87.703 67.7307V66.2294H84.3949V58.7562H82.6443V67.7307H87.703ZM78.1607 64.4461H75.5369L76.4814 61.6261C76.6158 61.1865 76.7333 60.722 76.8299 60.299H76.8551C76.9516 60.7137 77.0734 61.174 77.2203 61.6385L78.1607 64.4461ZM81.0994 67.7307L78.0557 58.7562H75.7803L72.7367 67.7307H74.4999L75.1338 65.8147H78.5511L79.1724 67.7307H81.0994ZM71.0029 58.7562H69.2523V67.7307H71.0029V58.7562ZM66.8971 65.9433C66.2613 66.143 65.5995 66.2505 64.9324 66.2626C63.207 66.2626 62.3884 65.2009 62.3884 63.314C62.3884 61.5182 63.1146 60.1994 64.8485 60.1994C65.53 60.2085 66.2032 60.3494 66.83 60.6142V58.9138C66.2197 58.7579 65.5922 58.6771 64.9618 58.6733C61.9853 58.6733 60.4656 60.6847 60.4656 63.4881C60.4656 65.8437 61.5026 67.8385 64.6134 67.8385C65.3865 67.8381 66.1561 67.7349 66.9013 67.5316L66.8971 65.9433ZM58.375 67.7141V58.7562H56.6957V60.9335C56.6957 62.4099 56.7629 63.9941 56.8301 64.977H56.8049C56.4869 64.2979 56.1222 63.6411 55.7134 63.0112L53.0182 58.7562H51.0283V67.7307H52.7075V65.2839C52.7075 63.8324 52.6403 62.1445 52.5732 61.2404H52.5983C52.9019 61.9131 53.257 62.5619 53.6605 63.1812L56.5152 67.7431L58.375 67.7141ZM46.2004 64.4295H43.5766L44.517 61.6095C44.6513 61.1699 44.7731 60.7054 44.8654 60.2824H44.8948C44.9872 60.6971 45.1089 61.1574 45.2559 61.6219L46.2004 64.4295ZM49.1391 67.7141L46.0997 58.7562H43.8243L40.7849 67.7307H42.5481L43.1778 65.8147H46.5993L47.2164 67.7307L49.1391 67.7141ZM38.9755 67.7141V58.7562H37.2962V60.9335C37.2962 62.4099 37.3634 63.9941 37.4306 64.977H37.4054C37.0874 64.2979 36.7227 63.6411 36.3139 63.0112L33.6355 58.7562H31.6456V67.7307H33.3248V65.2839C33.3248 63.8324 33.2577 62.1445 33.1905 61.2404H33.2157C33.5314 61.9142 33.8991 62.5631 34.3156 63.1812L37.1703 67.7431L38.9755 67.7141ZM28.9 58.7562H27.1494V67.7307H28.9V58.7562ZM25.3736 60.2326V58.7562H20V67.7307H21.7506V63.9982H25.1553V62.5716H21.7506V60.2326H25.3736Z" fill="#4C5356"/>
		<path class="path path-hover" d="M149.243 58.7687C148.723 58.6666 148.195 58.6124 147.665 58.6069C145.498 58.6069 144.235 59.6852 144.235 61.2404C144.235 64.1683 148.122 63.5296 148.122 65.259C148.122 66.0428 147.488 66.3746 146.603 66.3746C145.857 66.3571 145.119 66.2169 144.42 65.9598V67.6187C145.106 67.7906 145.811 67.8756 146.519 67.8717C148.739 67.8717 149.978 66.7022 149.978 65.0931C149.978 62.1403 146.032 62.7126 146.032 61.0786C146.032 60.44 146.544 60.0418 147.543 60.0418C148.112 60.0497 148.677 60.1349 149.222 60.2948L149.243 58.7687ZM142.77 67.7307V66.2418H138.991V63.8075H142.425V62.4265H138.991V60.2036H142.719V58.7562H137.262V67.7307H142.77ZM135.1 65.9433C134.462 66.143 133.799 66.2506 133.131 66.2626C131.41 66.2626 130.587 65.2009 130.587 63.314C130.587 61.5182 131.317 60.1994 133.051 60.1994C133.733 60.2085 134.406 60.3494 135.033 60.6142V58.9138C134.421 58.7575 133.792 58.6767 133.16 58.6733C130.184 58.6733 128.664 60.6847 128.664 63.4881C128.664 65.8437 129.701 67.8385 132.808 67.8385C133.582 67.8381 134.353 67.7349 135.1 67.5316V65.9433ZM126.578 58.7562H124.827V67.7307H126.578V58.7562ZM123.093 58.7562H121.288L119.537 64.1019C119.336 64.753 119.117 65.5078 118.987 66.1216H118.958C118.811 65.4954 118.597 64.724 118.421 64.1268L116.657 58.7562H114.718L117.774 67.7307H120.049L123.093 58.7562ZM109.239 60.1372C109.239 60.1372 109.659 60.0999 110.037 60.0999C111.154 60.0999 111.678 60.6183 111.678 61.4436C111.678 62.2689 111.057 62.8122 109.999 62.8122C109.647 62.8122 109.256 62.8122 109.256 62.8122L109.239 60.1372ZM114.139 67.7182L112.174 64.7779C111.867 64.301 111.477 63.8075 111.477 63.8075C112.066 63.6961 112.596 63.3805 112.971 62.9175C113.346 62.4544 113.541 61.8744 113.521 61.2818C113.521 59.4488 112.228 58.6899 110.163 58.6899C108.752 58.6899 107.501 58.7438 107.501 58.7438V67.7307H109.248V64.1144H109.735L112.023 67.7307L114.139 67.7182ZM105.528 67.7182V66.2418H101.75V63.8075H105.18V62.4265H101.75V60.2036H105.478V58.7562H100.02V67.7307L105.528 67.7182ZM97.3838 58.7687C96.8652 58.6673 96.3382 58.6131 95.8096 58.6069C93.6391 58.6069 92.3755 59.6852 92.3755 61.2404C92.3755 64.1683 96.2672 63.5296 96.2672 65.259C96.2672 66.0428 95.6332 66.3746 94.7432 66.3746C93.9986 66.3577 93.2621 66.2175 92.5644 65.9598V67.6187C93.2503 67.791 93.9557 67.876 94.6635 67.8717C96.8843 67.8717 98.1227 66.7022 98.1227 65.0931C98.1227 62.1403 94.1807 62.7126 94.1807 61.0786C94.1807 60.44 94.6929 60.0418 95.6878 60.0418C96.2566 60.0504 96.8215 60.1355 97.3671 60.2948L97.3838 58.7687ZM87.703 67.7307V66.2294H84.3949V58.7562H82.6443V67.7307H87.703ZM78.1607 64.4461H75.5369L76.4814 61.6261C76.6158 61.1865 76.7333 60.722 76.8299 60.299H76.8551C76.9516 60.7137 77.0734 61.174 77.2203 61.6385L78.1607 64.4461ZM81.0994 67.7307L78.0557 58.7562H75.7803L72.7367 67.7307H74.4999L75.1338 65.8147H78.5511L79.1724 67.7307H81.0994ZM71.0029 58.7562H69.2523V67.7307H71.0029V58.7562ZM66.8971 65.9433C66.2613 66.143 65.5995 66.2505 64.9324 66.2626C63.207 66.2626 62.3884 65.2009 62.3884 63.314C62.3884 61.5182 63.1146 60.1994 64.8485 60.1994C65.53 60.2085 66.2032 60.3494 66.83 60.6142V58.9138C66.2197 58.7579 65.5922 58.6771 64.9618 58.6733C61.9853 58.6733 60.4656 60.6847 60.4656 63.4881C60.4656 65.8437 61.5026 67.8385 64.6134 67.8385C65.3865 67.8381 66.1561 67.7349 66.9013 67.5316L66.8971 65.9433ZM58.375 67.7141V58.7562H56.6957V60.9335C56.6957 62.4099 56.7629 63.9941 56.8301 64.977H56.8049C56.4869 64.2979 56.1222 63.6411 55.7134 63.0112L53.0182 58.7562H51.0283V67.7307H52.7075V65.2839C52.7075 63.8324 52.6403 62.1445 52.5732 61.2404H52.5983C52.9019 61.9131 53.257 62.5619 53.6605 63.1812L56.5152 67.7431L58.375 67.7141ZM46.2004 64.4295H43.5766L44.517 61.6095C44.6513 61.1699 44.7731 60.7054 44.8654 60.2824H44.8948C44.9872 60.6971 45.1089 61.1574 45.2559 61.6219L46.2004 64.4295ZM49.1391 67.7141L46.0997 58.7562H43.8243L40.7849 67.7307H42.5481L43.1778 65.8147H46.5993L47.2164 67.7307L49.1391 67.7141ZM38.9755 67.7141V58.7562H37.2962V60.9335C37.2962 62.4099 37.3634 63.9941 37.4306 64.977H37.4054C37.0874 64.2979 36.7227 63.6411 36.3139 63.0112L33.6355 58.7562H31.6456V67.7307H33.3248V65.2839C33.3248 63.8324 33.2577 62.1445 33.1905 61.2404H33.2157C33.5314 61.9142 33.8991 62.5631 34.3156 63.1812L37.1703 67.7431L38.9755 67.7141ZM28.9 58.7562H27.1494V67.7307H28.9V58.7562ZM25.3736 60.2326V58.7562H20V67.7307H21.7506V63.9982H25.1553V62.5716H21.7506V60.2326H25.3736Z" fill="#B7BCD1"/>
		<path d="M108.523 72.7402H108.103L107.582 73.7272C107.498 73.889 107.41 74.0714 107.335 74.2498C107.263 74.0797 107.196 73.9304 107.104 73.7438L106.566 72.7402H106.101L107.116 74.6396V75.8215H107.536V74.6396L108.523 72.7402ZM105.244 73.0927V72.7402H103.065V73.0969H103.959V75.8257H104.379V73.0969L105.244 73.0927ZM101.541 72.7402H101.122V75.8215H101.541V72.7402ZM99.6648 75.8215V75.4649H98.4054V72.7402H97.9855V75.8215H99.6648ZM95.9705 72.7402H95.5506V75.8215H95.9705V72.7402ZM92.2845 74.3991H92.5994C93.1913 74.3991 93.439 74.5981 93.439 74.9423C93.439 75.2866 93.2165 75.5064 92.7001 75.5064C92.5598 75.5065 92.4196 75.4982 92.2803 75.4815L92.2845 74.3991ZM92.2845 73.072H92.6665C93.1745 73.072 93.3215 73.2918 93.3215 73.5655C93.3215 73.8392 93.0821 74.0963 92.6036 74.0963C92.4566 74.0963 92.3727 74.0963 92.2845 74.0963V73.072ZM91.8647 75.8257H92.6581C93.5775 75.8257 93.8756 75.3073 93.8756 74.9009C93.881 74.7268 93.8203 74.557 93.7053 74.4249C93.5903 74.2929 93.4294 74.2082 93.2543 74.1876C93.4063 74.1402 93.5387 74.0455 93.6317 73.9177C93.7248 73.7899 93.7735 73.6358 93.7706 73.4784C93.7706 73.0139 93.4432 72.7195 92.7127 72.7195C92.2929 72.7195 91.8731 72.7195 91.8731 72.7195L91.8647 75.8257ZM89.7656 74.3037C89.7656 75.0792 89.3458 75.5022 88.7707 75.5022C88.1116 75.5022 87.7757 75.0045 87.7757 74.2581C87.7757 73.5116 88.1956 73.0637 88.7707 73.0637C89.4298 73.0637 89.7656 73.5613 89.7656 74.3078V74.3037ZM90.2106 74.2456C90.2106 73.3001 89.7195 72.7029 88.8127 72.7029C88.0066 72.7029 87.3307 73.2793 87.3307 74.3327C87.3307 75.2783 87.8219 75.8755 88.7287 75.8755C89.5348 75.8755 90.2106 75.299 90.2106 74.2456ZM85.9789 75.8215L85.5591 72.7402H84.9588L84.2661 74.6852C84.2115 74.8511 84.1612 75.0502 84.1192 75.2368C84.0799 75.0497 84.028 74.8654 83.9639 74.6852L83.2712 72.7402H82.6918L82.272 75.8215H82.6918L82.8975 74.0424C82.9311 73.7023 82.9605 73.3872 82.9689 73.13C83.0193 73.3415 83.1158 73.6484 83.1998 73.889L83.8841 75.8215H84.2703L85.0134 73.7853C85.0973 73.5282 85.1603 73.3125 85.2023 73.13C85.2023 73.3498 85.2443 73.6567 85.2905 74.0217L85.5339 75.8215H85.9789ZM77.9354 74.2995C77.9354 75.075 77.5155 75.4981 76.9404 75.4981C76.2813 75.4981 75.9497 75.0004 75.9497 74.2539C75.9497 73.5074 76.3695 73.0595 76.9404 73.0595C77.6037 73.0595 77.9354 73.5572 77.9354 74.3037V74.2995ZM78.3804 74.2415C78.3804 73.2959 77.8892 72.6987 76.9824 72.6987C76.1805 72.6987 75.5005 73.2752 75.5005 74.3286C75.5005 75.2741 75.9958 75.8713 76.8984 75.8713C77.7045 75.8713 78.3804 75.2948 78.3804 74.2415ZM74.6776 73.0969V72.7443H72.4568V73.0969H73.3552V75.8257H73.775V73.0969H74.6776ZM69.0605 72.7402H68.6072L68.0908 73.7272C68.0026 73.889 67.9145 74.0714 67.8389 74.2498C67.7717 74.0797 67.7004 73.9304 67.608 73.7438L67.0748 72.7402H66.6046L67.6206 74.6396V75.8215H68.0404V74.6396L69.0605 72.7402ZM65.6517 75.8215V75.469H64.2915V74.3991H65.5215V74.0631H64.2915V73.0969H65.6307V72.7485H63.8675V75.8298L65.6517 75.8215ZM62.7466 75.8215L61.3612 74.2166L62.6668 72.7402H62.1547L60.8952 74.1917V72.7402H60.4754V75.8215H60.8952V74.2954L62.1924 75.8215H62.7466ZM56.2941 75.8215V75.469H54.9381V74.3991H56.1681V74.0631H54.9381V73.0969H56.2773V72.7485H54.5141V75.8298L56.2941 75.8215ZM52.5158 75.8215V72.7402H52.096V74.0466H50.5049V72.7402H50.0851V75.8215H50.5049V74.3991H52.096V75.8215H52.5158ZM48.6661 73.0969V72.7443H46.4453V73.0969H47.3437V75.8257H47.7635V73.0969H48.6661Z" fill="black"/>
		<path class="path path-hover" d="M108.523 72.7402H108.103L107.582 73.7272C107.498 73.889 107.41 74.0714 107.335 74.2498C107.263 74.0797 107.196 73.9304 107.104 73.7438L106.566 72.7402H106.101L107.116 74.6396V75.8215H107.536V74.6396L108.523 72.7402ZM105.244 73.0927V72.7402H103.065V73.0969H103.959V75.8257H104.379V73.0969L105.244 73.0927ZM101.541 72.7402H101.122V75.8215H101.541V72.7402ZM99.6648 75.8215V75.4649H98.4054V72.7402H97.9855V75.8215H99.6648ZM95.9705 72.7402H95.5506V75.8215H95.9705V72.7402ZM92.2845 74.3991H92.5994C93.1913 74.3991 93.439 74.5981 93.439 74.9423C93.439 75.2866 93.2165 75.5064 92.7001 75.5064C92.5598 75.5065 92.4196 75.4982 92.2803 75.4815L92.2845 74.3991ZM92.2845 73.072H92.6665C93.1745 73.072 93.3215 73.2918 93.3215 73.5655C93.3215 73.8392 93.0821 74.0963 92.6036 74.0963C92.4566 74.0963 92.3727 74.0963 92.2845 74.0963V73.072ZM91.8647 75.8257H92.6581C93.5775 75.8257 93.8756 75.3073 93.8756 74.9009C93.881 74.7268 93.8203 74.557 93.7053 74.4249C93.5903 74.2929 93.4294 74.2082 93.2543 74.1876C93.4063 74.1402 93.5387 74.0455 93.6317 73.9177C93.7248 73.7899 93.7735 73.6358 93.7706 73.4784C93.7706 73.0139 93.4432 72.7195 92.7127 72.7195C92.2929 72.7195 91.8731 72.7195 91.8731 72.7195L91.8647 75.8257ZM89.7656 74.3037C89.7656 75.0792 89.3458 75.5022 88.7707 75.5022C88.1116 75.5022 87.7757 75.0045 87.7757 74.2581C87.7757 73.5116 88.1956 73.0637 88.7707 73.0637C89.4298 73.0637 89.7656 73.5613 89.7656 74.3078V74.3037ZM90.2106 74.2456C90.2106 73.3001 89.7195 72.7029 88.8127 72.7029C88.0066 72.7029 87.3307 73.2793 87.3307 74.3327C87.3307 75.2783 87.8219 75.8755 88.7287 75.8755C89.5348 75.8755 90.2106 75.299 90.2106 74.2456ZM85.9789 75.8215L85.5591 72.7402H84.9588L84.2661 74.6852C84.2115 74.8511 84.1612 75.0502 84.1192 75.2368C84.0799 75.0497 84.028 74.8654 83.9639 74.6852L83.2712 72.7402H82.6918L82.272 75.8215H82.6918L82.8975 74.0424C82.9311 73.7023 82.9605 73.3872 82.9689 73.13C83.0193 73.3415 83.1158 73.6484 83.1998 73.889L83.8841 75.8215H84.2703L85.0134 73.7853C85.0973 73.5282 85.1603 73.3125 85.2023 73.13C85.2023 73.3498 85.2443 73.6567 85.2905 74.0217L85.5339 75.8215H85.9789ZM77.9354 74.2995C77.9354 75.075 77.5155 75.4981 76.9404 75.4981C76.2813 75.4981 75.9497 75.0004 75.9497 74.2539C75.9497 73.5074 76.3695 73.0595 76.9404 73.0595C77.6037 73.0595 77.9354 73.5572 77.9354 74.3037V74.2995ZM78.3804 74.2415C78.3804 73.2959 77.8892 72.6987 76.9824 72.6987C76.1805 72.6987 75.5005 73.2752 75.5005 74.3286C75.5005 75.2741 75.9958 75.8713 76.8984 75.8713C77.7045 75.8713 78.3804 75.2948 78.3804 74.2415ZM74.6776 73.0969V72.7443H72.4568V73.0969H73.3552V75.8257H73.775V73.0969H74.6776ZM69.0605 72.7402H68.6072L68.0908 73.7272C68.0026 73.889 67.9145 74.0714 67.8389 74.2498C67.7717 74.0797 67.7004 73.9304 67.608 73.7438L67.0748 72.7402H66.6046L67.6206 74.6396V75.8215H68.0404V74.6396L69.0605 72.7402ZM65.6517 75.8215V75.469H64.2915V74.3991H65.5215V74.0631H64.2915V73.0969H65.6307V72.7485H63.8675V75.8298L65.6517 75.8215ZM62.7466 75.8215L61.3612 74.2166L62.6668 72.7402H62.1547L60.8952 74.1917V72.7402H60.4754V75.8215H60.8952V74.2954L62.1924 75.8215H62.7466ZM56.2941 75.8215V75.469H54.9381V74.3991H56.1681V74.0631H54.9381V73.0969H56.2773V72.7485H54.5141V75.8298L56.2941 75.8215ZM52.5158 75.8215V72.7402H52.096V74.0466H50.5049V72.7402H50.0851V75.8215H50.5049V74.3991H52.096V75.8215H52.5158ZM48.6661 73.0969V72.7443H46.4453V73.0969H47.3437V75.8257H47.7635V73.0969H48.6661Z" fill="#B7BCD1"/>
		<path fill-rule="evenodd" clip-rule="evenodd" d="M103.55 54.1405L100.502 45.1494H98.2269L95.1875 54.1239H96.9507L97.5804 52.2079H101.002L101.619 54.1239L103.55 54.1405ZM100.611 50.8559H97.983L98.9276 48.0358C99.062 47.5962 99.1837 47.1318 99.2761 46.7087H99.2929C99.3852 47.1235 99.507 47.5838 99.6539 48.0483L100.611 50.8559Z" fill="#4C5356"/>
		<path class="path path-hover" fill-rule="evenodd" clip-rule="evenodd" d="M103.55 54.1405L100.502 45.1494H98.2269L95.1875 54.1239H96.9507L97.5804 52.2079H101.002L101.619 54.1239L103.55 54.1405ZM100.611 50.8559H97.983L98.9276 48.0358C99.062 47.5962 99.1837 47.1318 99.2761 46.7087H99.2929C99.3852 47.1235 99.507 47.5838 99.6539 48.0483L100.611 50.8559Z" fill="#B7BCD1"/>
		<path fill-rule="evenodd" clip-rule="evenodd" d="M54.6284 45C57.3614 45 58.8014 46.6506 58.8014 49.4706C58.8014 52.581 56.7569 54.2689 54.3472 54.2689C51.6142 54.2689 50.1742 52.6225 50.1742 49.8024C50.1742 46.692 52.2187 45 54.6284 45ZM80.7029 45.1617C80.1884 45.0611 79.6657 45.0069 79.1412 45C76.9708 45 75.7072 46.0783 75.7072 47.6334C75.7072 49.289 76.9514 49.8042 78.0328 50.252C78.8639 50.5962 79.5988 50.9005 79.5988 51.652C79.5988 52.4359 78.9649 52.7676 78.0749 52.7676C77.3303 52.7508 76.5938 52.6106 75.8961 52.3529V54.0118C76.582 54.184 77.2874 54.269 77.9952 54.2647C80.216 54.2647 81.4544 53.0953 81.4544 51.4862C81.4544 49.7929 80.1582 49.2589 79.0523 48.8032C78.2297 48.4643 77.5124 48.1687 77.5124 47.4717C77.5124 46.833 78.0245 46.4349 79.0195 46.4349C79.5883 46.4435 80.1532 46.5286 80.6987 46.6879L80.7029 45.1617ZM112.227 49.4333H110.476V52.5561C110.1 52.6684 109.71 52.723 109.317 52.7179C107.432 52.7179 106.425 51.5484 106.425 49.6573C106.425 47.9984 107.311 46.5759 109.464 46.5759C110.285 46.5734 111.099 46.7268 111.861 47.028V45.3193C111.115 45.1209 110.346 45.0191 109.573 45.0166C106.29 45.0166 104.536 46.9823 104.536 49.8273C104.536 52.5022 106.135 54.2565 109.124 54.2565C110.187 54.2627 111.242 54.0728 112.235 53.6966L112.227 49.4333ZM120.514 52.6349V54.1237H115.01V45.1493H120.463V46.5967H116.735V48.8195H120.169V50.2005H116.735V52.6349H120.514ZM130.232 45.1493V54.1237L128.398 54.1362L125.543 49.5743C125.14 48.955 124.784 48.3061 124.481 47.6334H124.451C124.519 48.5375 124.586 50.2254 124.586 51.6769V54.1237H122.907V45.1493H124.901L127.592 49.4043C128.001 50.0332 128.364 50.6901 128.679 51.37H128.687C128.62 50.3872 128.553 48.8029 128.553 47.3266V45.1493H130.232ZM93.0328 45.1493H94.754L92.4912 54.1445H90.325L88.9396 49.2384C88.8073 48.6917 88.7077 48.1378 88.6416 47.5795H88.6164C88.5507 48.1299 88.4569 48.6767 88.3351 49.2177L86.9749 54.1237H84.7919L82.5207 45.1493H84.3889L85.6147 50.0637C85.7868 50.9014 85.9086 51.6189 86.0052 52.2948H86.0303C86.1298 51.5525 86.2699 50.8159 86.4502 50.0886L87.8229 45.1576H89.5736L90.9841 50.1342C91.1864 50.8412 91.3435 51.5601 91.4543 52.2866H91.4837C91.576 51.5981 91.6852 50.8641 91.8321 50.1591L93.0328 45.1493ZM71.0893 49.4333L74.6576 54.1237H72.4788L69.3009 49.8148V54.1237H67.5502V45.1493H69.3009V49.2218L72.3697 45.1534H74.4477L71.0893 49.4333ZM65.8962 54.1237V52.6225H62.5839V45.1493H60.8333V54.1237H65.8962ZM49.3808 45.1493H47.5756L45.8124 50.495C45.6109 51.1461 45.3926 51.9009 45.2625 52.5146H45.2331C45.0861 51.8884 44.872 51.1171 44.6957 50.5199L42.9451 45.1493H41.0098L44.0618 54.1237H46.3372L49.3808 45.1493ZM56.9331 49.6697C56.9331 51.652 55.9088 52.7137 54.4814 52.7137C52.8525 52.7137 52.0465 51.5152 52.0465 49.5909C52.0465 47.6666 53.0541 46.5593 54.4814 46.5593C56.1229 46.5593 56.9331 47.7537 56.9331 49.6697Z" fill="#4C5356"/>
		<path class="path path-hover" fill-rule="evenodd" clip-rule="evenodd" d="M54.6284 45C57.3614 45 58.8014 46.6506 58.8014 49.4706C58.8014 52.581 56.7569 54.2689 54.3472 54.2689C51.6142 54.2689 50.1742 52.6225 50.1742 49.8024C50.1742 46.692 52.2187 45 54.6284 45ZM80.7029 45.1617C80.1884 45.0611 79.6657 45.0069 79.1412 45C76.9708 45 75.7072 46.0783 75.7072 47.6334C75.7072 49.289 76.9514 49.8042 78.0328 50.252C78.8639 50.5962 79.5988 50.9005 79.5988 51.652C79.5988 52.4359 78.9649 52.7676 78.0749 52.7676C77.3303 52.7508 76.5938 52.6106 75.8961 52.3529V54.0118C76.582 54.184 77.2874 54.269 77.9952 54.2647C80.216 54.2647 81.4544 53.0953 81.4544 51.4862C81.4544 49.7929 80.1582 49.2589 79.0523 48.8032C78.2297 48.4643 77.5124 48.1687 77.5124 47.4717C77.5124 46.833 78.0245 46.4349 79.0195 46.4349C79.5883 46.4435 80.1532 46.5286 80.6987 46.6879L80.7029 45.1617ZM112.227 49.4333H110.476V52.5561C110.1 52.6684 109.71 52.723 109.317 52.7179C107.432 52.7179 106.425 51.5484 106.425 49.6573C106.425 47.9984 107.311 46.5759 109.464 46.5759C110.285 46.5734 111.099 46.7268 111.861 47.028V45.3193C111.115 45.1209 110.346 45.0191 109.573 45.0166C106.29 45.0166 104.536 46.9823 104.536 49.8273C104.536 52.5022 106.135 54.2565 109.124 54.2565C110.187 54.2627 111.242 54.0728 112.235 53.6966L112.227 49.4333ZM120.514 52.6349V54.1237H115.01V45.1493H120.463V46.5967H116.735V48.8195H120.169V50.2005H116.735V52.6349H120.514ZM130.232 45.1493V54.1237L128.398 54.1362L125.543 49.5743C125.14 48.955 124.784 48.3061 124.481 47.6334H124.451C124.519 48.5375 124.586 50.2254 124.586 51.6769V54.1237H122.907V45.1493H124.901L127.592 49.4043C128.001 50.0332 128.364 50.6901 128.679 51.37H128.687C128.62 50.3872 128.553 48.8029 128.553 47.3266V45.1493H130.232ZM93.0328 45.1493H94.754L92.4912 54.1445H90.325L88.9396 49.2384C88.8073 48.6917 88.7077 48.1378 88.6416 47.5795H88.6164C88.5507 48.1299 88.4569 48.6767 88.3351 49.2177L86.9749 54.1237H84.7919L82.5207 45.1493H84.3889L85.6147 50.0637C85.7868 50.9014 85.9086 51.6189 86.0052 52.2948H86.0303C86.1298 51.5525 86.2699 50.8159 86.4502 50.0886L87.8229 45.1576H89.5736L90.9841 50.1342C91.1864 50.8412 91.3435 51.5601 91.4543 52.2866H91.4837C91.576 51.5981 91.6852 50.8641 91.8321 50.1591L93.0328 45.1493ZM71.0893 49.4333L74.6576 54.1237H72.4788L69.3009 49.8148V54.1237H67.5502V45.1493H69.3009V49.2218L72.3697 45.1534H74.4477L71.0893 49.4333ZM65.8962 54.1237V52.6225H62.5839V45.1493H60.8333V54.1237H65.8962ZM49.3808 45.1493H47.5756L45.8124 50.495C45.6109 51.1461 45.3926 51.9009 45.2625 52.5146H45.2331C45.0861 51.8884 44.872 51.1171 44.6957 50.5199L42.9451 45.1493H41.0098L44.0618 54.1237H46.3372L49.3808 45.1493ZM56.9331 49.6697C56.9331 51.652 55.9088 52.7137 54.4814 52.7137C52.8525 52.7137 52.0465 51.5152 52.0465 49.5909C52.0465 47.6666 53.0541 46.5593 54.4814 46.5593C56.1229 46.5593 56.9331 47.7537 56.9331 49.6697Z" fill="#B7BCD1"/>
	</g>
	<defs>
		<clipPath id="clip0_1814_21780">
			<rect width="170" height="120" fill="white"/>
		</clipPath>
	</defs>
</svg>
