<svg width="170" height="120" viewBox="0 0 170 120" fill="none" xmlns="http://www.w3.org/2000/svg">
<path d="M130.979 46.0209C130.979 46.8229 131.268 47.6558 131.634 47.9181C131.893 48.1031 132.518 48.1494 134.941 48.1494C137.365 48.1494 137.99 48.1031 138.249 47.9181C138.615 47.6558 138.904 46.8229 138.904 46.0209V45.5273H134.941H130.979V46.0209Z" fill="#0196E3"/>
<path class="path path-hover" d="M130.979 46.0209C130.979 46.8229 131.268 47.6558 131.634 47.9181C131.893 48.1031 132.518 48.1494 134.941 48.1494C137.365 48.1494 137.99 48.1031 138.249 47.9181C138.615 47.6558 138.904 46.8229 138.904 46.0209V45.5273H134.941H130.979V46.0209Z" fill="#B7BCD1"/>
<path d="M35.1384 51.2805C34.3306 51.589 33.5685 52.2985 33.1874 53.1468L32.8216 53.9334V61.6609V69.3884L32.151 69.4656C31.7852 69.5118 31.3127 69.6815 31.0841 69.8357C30.5659 70.2213 30.0781 71.2393 30.0781 71.9488V72.5195H38.0038H45.9448L45.8533 71.9334C45.5942 70.4527 44.6645 69.4347 43.5366 69.4347H43.0336V60.2573V51.08L39.3451 51.0954C36.9064 51.0954 35.4737 51.1725 35.1384 51.2805ZM40.2901 61.7998V69.4347H37.9276H35.5499L35.5956 62.0928L35.6414 54.7509L36.0072 54.4579C36.312 54.2111 36.6168 54.1648 38.3239 54.1648H40.2901V61.7998Z" fill="#0196E3"/>
<path class="path path-hover" d="M35.1384 51.2805C34.3306 51.589 33.5685 52.2985 33.1874 53.1468L32.8216 53.9334V61.6609V69.3884L32.151 69.4656C31.7852 69.5118 31.3127 69.6815 31.0841 69.8357C30.5659 70.2213 30.0781 71.2393 30.0781 71.9488V72.5195H38.0038H45.9448L45.8533 71.9334C45.5942 70.4527 44.6645 69.4347 43.5366 69.4347H43.0336V60.2573V51.08L39.3451 51.0954C36.9064 51.0954 35.4737 51.1725 35.1384 51.2805ZM40.2901 61.7998V69.4347H37.9276H35.5499L35.5956 62.0928L35.6414 54.7509L36.0072 54.4579C36.312 54.2111 36.6168 54.1648 38.3239 54.1648H40.2901V61.7998Z" fill="#B7BCD1"/>
<path d="M49.8308 51.2957C49.0382 51.6042 48.1237 52.5297 47.8037 53.378C47.5598 54.0258 47.5293 54.8124 47.5293 61.7996C47.5293 70.4371 47.5141 70.2674 48.6115 71.378C49.5869 72.3651 50.4252 72.5656 53.3059 72.4885C55.3026 72.4422 55.6837 72.3805 56.2324 72.0875C57.1621 71.6093 57.9242 70.6222 58.1223 69.6813C58.2443 69.1415 58.2748 66.4577 58.2443 61.2443L58.1986 53.5939L57.7413 52.8382C57.4517 52.3754 56.9945 51.9127 56.5372 51.6196L55.7904 51.1569L53.1078 51.1261C51.0959 51.0952 50.2728 51.1415 49.8308 51.2957ZM55.0587 54.4577C55.2264 54.6274 55.4093 54.9975 55.455 55.2752C55.5008 55.5528 55.5312 58.6839 55.5008 62.216L55.455 68.6479L55.1045 69.0027C54.7844 69.3266 54.632 69.3574 52.8639 69.3574C50.7301 69.3574 50.5777 69.2957 50.349 68.2623C50.1509 67.414 50.1661 55.923 50.349 55.2135C50.6081 54.288 50.9282 54.1646 52.9706 54.1646C54.5558 54.1646 54.7996 54.1955 55.0587 54.4577Z" fill="#0196E3"/>
<path class="path path-hover" d="M49.8308 51.2957C49.0382 51.6042 48.1237 52.5297 47.8037 53.378C47.5598 54.0258 47.5293 54.8124 47.5293 61.7996C47.5293 70.4371 47.5141 70.2674 48.6115 71.378C49.5869 72.3651 50.4252 72.5656 53.3059 72.4885C55.3026 72.4422 55.6837 72.3805 56.2324 72.0875C57.1621 71.6093 57.9242 70.6222 58.1223 69.6813C58.2443 69.1415 58.2748 66.4577 58.2443 61.2443L58.1986 53.5939L57.7413 52.8382C57.4517 52.3754 56.9945 51.9127 56.5372 51.6196L55.7904 51.1569L53.1078 51.1261C51.0959 51.0952 50.2728 51.1415 49.8308 51.2957ZM55.0587 54.4577C55.2264 54.6274 55.4093 54.9975 55.455 55.2752C55.5008 55.5528 55.5312 58.6839 55.5008 62.216L55.455 68.6479L55.1045 69.0027C54.7844 69.3266 54.632 69.3574 52.8639 69.3574C50.7301 69.3574 50.5777 69.2957 50.349 68.2623C50.1509 67.414 50.1661 55.923 50.349 55.2135C50.6081 54.288 50.9282 54.1646 52.9706 54.1646C54.5558 54.1646 54.7996 54.1955 55.0587 54.4577Z" fill="#B7BCD1"/>
<path d="M62.3906 61.7226V72.3652H63.6862H64.9817L65.0122 68.0002L65.0579 63.6506L67.4661 63.6043L69.8591 63.5581V67.9694V72.3652H71.2308H72.6026V61.7226V51.0799H71.2308H69.8591V55.7843V60.4886H67.4204H64.9817V55.7843V51.0799H63.6862H62.3906V61.7226Z" fill="#0196E3"/>
<path class="path path-hover" d="M62.3906 61.7226V72.3652H63.6862H64.9817L65.0122 68.0002L65.0579 63.6506L67.4661 63.6043L69.8591 63.5581V67.9694V72.3652H71.2308H72.6026V61.7226V51.0799H71.2308H69.8591V55.7843V60.4886H67.4204H64.9817V55.7843V51.0799H63.6862H62.3906V61.7226Z" fill="#B7BCD1"/>
<path d="M79.1273 51.2342C77.9384 51.6044 77.0239 52.6069 76.7191 53.8563C76.6124 54.3344 76.5667 56.972 76.5972 62.1853C76.6429 69.666 76.6429 69.8357 76.9782 70.4372C77.3593 71.1622 77.9537 71.7483 78.7005 72.1493C79.1578 72.3961 79.5846 72.4424 81.6727 72.4424C84.4619 72.4424 84.9192 72.3036 85.8946 71.1313C86.5653 70.3447 86.7787 69.6198 86.7787 68.139V66.9668H85.4222H84.0656L84.0047 67.8306C83.898 69.0645 83.6084 69.3113 82.0994 69.4038C80.4838 69.4964 79.9046 69.3267 79.5846 68.6635C79.3407 68.1699 79.3102 67.5067 79.3102 61.7843C79.3102 55.2445 79.3559 54.6275 79.9199 54.319C80.0723 54.2265 80.8649 54.1648 81.6727 54.1648C82.4805 54.1648 83.2731 54.2265 83.4255 54.319C83.7608 54.5041 84.0352 55.2599 84.0352 56.0311V56.6326H85.4222H86.8092L86.7482 55.1056C86.7025 53.7483 86.6415 53.5015 86.23 52.8383C85.9556 52.3756 85.4984 51.9128 85.0411 51.6198C84.2943 51.1571 84.2638 51.1571 81.9165 51.1262C80.6057 51.1108 79.3559 51.1571 79.1273 51.2342Z" fill="#0196E3"/>
<path class="path path-hover" d="M79.1273 51.2342C77.9384 51.6044 77.0239 52.6069 76.7191 53.8563C76.6124 54.3344 76.5667 56.972 76.5972 62.1853C76.6429 69.666 76.6429 69.8357 76.9782 70.4372C77.3593 71.1622 77.9537 71.7483 78.7005 72.1493C79.1578 72.3961 79.5846 72.4424 81.6727 72.4424C84.4619 72.4424 84.9192 72.3036 85.8946 71.1313C86.5653 70.3447 86.7787 69.6198 86.7787 68.139V66.9668H85.4222H84.0656L84.0047 67.8306C83.898 69.0645 83.6084 69.3113 82.0994 69.4038C80.4838 69.4964 79.9046 69.3267 79.5846 68.6635C79.3407 68.1699 79.3102 67.5067 79.3102 61.7843C79.3102 55.2445 79.3559 54.6275 79.9199 54.319C80.0723 54.2265 80.8649 54.1648 81.6727 54.1648C82.4805 54.1648 83.2731 54.2265 83.4255 54.319C83.7608 54.5041 84.0352 55.2599 84.0352 56.0311V56.6326H85.4222H86.8092L86.7482 55.1056C86.7025 53.7483 86.6415 53.5015 86.23 52.8383C85.9556 52.3756 85.4984 51.9128 85.0411 51.6198C84.2943 51.1571 84.2638 51.1571 81.9165 51.1262C80.6057 51.1108 79.3559 51.1571 79.1273 51.2342Z" fill="#B7BCD1"/>
<path d="M88.9121 52.6224V54.1648H90.7411H92.5701V63.3422V72.5195H93.9419H95.3137V63.3422V54.1648H97.2189H99.1241V52.6224V51.08H94.0181H88.9121V52.6224Z" fill="#0196E3"/>
<path class="path path-hover" d="M88.9121 52.6224V54.1648H90.7411H92.5701V63.3422V72.5195H93.9419H95.3137V63.3422V54.1648H97.2189H99.1241V52.6224V51.08H94.0181H88.9121V52.6224Z" fill="#B7BCD1"/>
<path d="M102.172 61.7998V72.5195H103.544H104.915V68.1237V63.7278H107.247C109.168 63.7278 109.671 63.6661 110.174 63.4347C110.966 63.0645 111.515 62.5401 111.957 61.7072C112.292 61.044 112.308 60.9052 112.308 57.4039C112.308 53.9951 112.292 53.7484 111.988 53.1622C111.546 52.3293 110.921 51.7124 110.174 51.373C109.64 51.1262 109.122 51.08 105.876 51.08H102.172V61.7998ZM109.244 54.5504C109.579 54.9977 109.686 55.9386 109.61 57.9746C109.549 59.8872 109.396 60.3962 108.802 60.5504C108.634 60.5967 107.689 60.6429 106.714 60.6429H104.915V57.3884V54.134L106.973 54.1957C108.802 54.2419 109.046 54.2728 109.244 54.5504Z" fill="#0196E3"/>
<path class="path path-hover" d="M102.172 61.7998V72.5195H103.544H104.915V68.1237V63.7278H107.247C109.168 63.7278 109.671 63.6661 110.174 63.4347C110.966 63.0645 111.515 62.5401 111.957 61.7072C112.292 61.044 112.308 60.9052 112.308 57.4039C112.308 53.9951 112.292 53.7484 111.988 53.1622C111.546 52.3293 110.921 51.7124 110.174 51.373C109.64 51.1262 109.122 51.08 105.876 51.08H102.172V61.7998ZM109.244 54.5504C109.579 54.9977 109.686 55.9386 109.61 57.9746C109.549 59.8872 109.396 60.3962 108.802 60.5504C108.634 60.5967 107.689 60.6429 106.714 60.6429H104.915V57.3884V54.134L106.973 54.1957C108.802 54.2419 109.046 54.2728 109.244 54.5504Z" fill="#B7BCD1"/>
<path d="M117.642 51.4502C116.727 51.882 116.316 52.3139 115.904 53.2394C115.599 53.9026 115.584 54.2111 115.584 61.7998C115.584 70.6378 115.554 70.3293 116.727 71.4861C117.565 72.3036 118.419 72.5195 120.919 72.5195C123.998 72.5195 125.08 72.0722 125.872 70.4681L126.253 69.6815V61.9077C126.253 56.2162 126.208 53.9489 126.07 53.4861C125.827 52.6532 124.699 51.5119 123.876 51.2651C123.495 51.1571 122.29 51.08 120.827 51.08C118.602 51.08 118.343 51.1108 117.642 51.4502ZM123.068 54.4579L123.434 54.7509L123.479 61.5067C123.51 66.3345 123.464 68.3859 123.342 68.6943C123.129 69.2342 122.458 69.4347 120.919 69.4347C119.379 69.4347 118.709 69.2342 118.495 68.6943C118.373 68.3859 118.328 66.3345 118.358 61.5067L118.404 54.7509L118.77 54.4579C119.074 54.2111 119.379 54.1648 120.919 54.1648C122.458 54.1648 122.763 54.2111 123.068 54.4579Z" fill="#0196E3"/>
<path class="path path-hover" d="M117.642 51.4502C116.727 51.882 116.316 52.3139 115.904 53.2394C115.599 53.9026 115.584 54.2111 115.584 61.7998C115.584 70.6378 115.554 70.3293 116.727 71.4861C117.565 72.3036 118.419 72.5195 120.919 72.5195C123.998 72.5195 125.08 72.0722 125.872 70.4681L126.253 69.6815V61.9077C126.253 56.2162 126.208 53.9489 126.07 53.4861C125.827 52.6532 124.699 51.5119 123.876 51.2651C123.495 51.1571 122.29 51.08 120.827 51.08C118.602 51.08 118.343 51.1108 117.642 51.4502ZM123.068 54.4579L123.434 54.7509L123.479 61.5067C123.51 66.3345 123.464 68.3859 123.342 68.6943C123.129 69.2342 122.458 69.4347 120.919 69.4347C119.379 69.4347 118.709 69.2342 118.495 68.6943C118.373 68.3859 118.328 66.3345 118.358 61.5067L118.404 54.7509L118.77 54.4579C119.074 54.2111 119.379 54.1648 120.919 54.1648C122.458 54.1648 122.763 54.2111 123.068 54.4579Z" fill="#B7BCD1"/>
<path d="M129.912 60.4116C129.912 69.6044 129.912 69.7586 130.232 70.4373C130.415 70.8229 130.811 71.3473 131.116 71.6095C132.061 72.3961 132.778 72.5195 136.649 72.5195H140.124V61.7998V51.08H138.752H137.381V60.2728V69.4656L135.353 69.4039C133.951 69.373 133.235 69.2959 133.067 69.1571C132.579 68.7406 132.503 67.5221 132.503 59.2548V51.08H131.208H129.912V60.4116Z" fill="#0196E3"/>
<path class="path path-hover" d="M129.912 60.4116C129.912 69.6044 129.912 69.7586 130.232 70.4373C130.415 70.8229 130.811 71.3473 131.116 71.6095C132.061 72.3961 132.778 72.5195 136.649 72.5195H140.124V61.7998V51.08H138.752H137.381V60.2728V69.4656L135.353 69.4039C133.951 69.373 133.235 69.2959 133.067 69.1571C132.579 68.7406 132.503 67.5221 132.503 59.2548V51.08H131.208H129.912V60.4116Z" fill="#B7BCD1"/>
</svg>
