<svg width="60" height="60" viewBox="0 0 60 60" fill="none" xmlns="http://www.w3.org/2000/svg">
<path d="M33.2036 38.0402L38.039 33.2053L39.4066 34.5728L34.5716 39.4082L33.2036 38.0402Z" fill="currentColor"/>
<path d="M58.7146 52.5125L56.5311 50.329H59.9594V7.77722H9.67087V0.0405273H4.83543C2.16933 0.0405273 0 2.20986 0 4.87596V45.4936C0 48.1597 2.16933 50.329 4.83543 50.329H44.1252L52.5117 58.7155C53.3395 59.5433 54.4411 59.9999 55.6132 59.9999C58.0318 59.9999 60 58.0327 60 55.614C60 54.4429 59.5434 53.3417 58.7146 52.5125ZM54.4662 50.9991L50.9982 54.467L34.7485 38.2154L33.3324 33.3625L38.2183 34.7503L54.4662 50.9991ZM1.93417 4.87596C1.93417 3.27658 3.23606 1.9747 4.83543 1.9747H7.73669V40.6582H4.83543C3.74746 40.6582 2.7426 41.0189 1.93417 41.6271V4.87596ZM4.83543 48.3949C3.23606 48.3949 1.93417 47.093 1.93417 45.4936C1.93417 43.8942 3.23606 42.5923 4.83543 42.5923H9.67087V9.7114H58.0252V48.3949H54.597L39.2298 33.0268L30.4953 30.5463L33.0288 39.2326L42.191 48.3949H4.83543ZM55.6132 58.0657C54.9577 58.0657 54.3424 57.8103 53.8792 57.348L52.3658 55.8345L55.8337 52.3666L57.3471 53.8801C57.8103 54.3433 58.0658 54.9595 58.0658 55.614C58.0658 56.965 56.9651 58.0657 55.6132 58.0657Z" fill="currentColor"/>
<path d="M39.6511 13.5797H45.0022V15.5139H39.6511V13.5797Z" fill="currentColor"/>
<path d="M48.3538 29.0531H32.8805V20.3493H34.8146V27.1189H46.4197V23.8838H48.3538V29.0531Z" fill="currentColor"/>
<path d="M14.507 44.5265H16.4412V46.4606H14.507V44.5265Z" fill="currentColor"/>
<path d="M18.3752 44.5265H31.9145V46.4606H18.3752V44.5265Z" fill="currentColor"/>
<path d="M11.6045 43.9599V11.6456H43.9188L11.6045 43.9599ZM16.4399 16.481V31.9544L31.9133 16.481H16.4399Z" fill="#FE603A"/>
<path d="M15.4727 34.6205V15.5139H34.5793L15.4727 34.6205ZM17.4069 17.4481V29.9518L29.9106 17.4481H17.4069Z" fill="currentColor"/>
<path d="M49.3214 25.1848C45.5895 25.1848 42.5518 22.1471 42.5518 18.4152C42.5518 14.6833 45.5895 11.6456 49.3214 11.6456C53.0533 11.6456 56.091 14.6833 56.091 18.4152C56.091 22.1471 53.0533 25.1848 49.3214 25.1848ZM49.3214 15.5139C47.722 15.5139 46.4201 16.8158 46.4201 18.4152C46.4201 20.0146 47.722 21.3164 49.3214 21.3164C50.9208 21.3164 52.2227 20.0146 52.2227 18.4152C52.2227 16.8158 50.9208 15.5139 49.3214 15.5139Z" fill="#FE603A"/>
<path d="M49.3208 22.2835C47.1874 22.2835 45.4525 20.5486 45.4525 18.4152C45.4525 16.2817 47.1874 14.5468 49.3208 14.5468C51.4543 14.5468 53.1892 16.2817 53.1892 18.4152C53.1892 20.5486 51.4543 22.2835 49.3208 22.2835ZM49.3208 16.481C48.2541 16.481 47.3867 17.3484 47.3867 18.4152C47.3867 19.4819 48.2541 20.3493 49.3208 20.3493C50.3876 20.3493 51.255 19.4819 51.255 18.4152C51.255 17.3484 50.3876 16.481 49.3208 16.481Z" fill="currentColor"/>
</svg>
