<svg width="60" height="60" viewBox="0 0 60 60" fill="none" xmlns="http://www.w3.org/2000/svg">
<path d="M52.5 44.0623L48.75 43.1248C45.3281 52.2748 36.9469 58.1248 27.1031 58.1248C16.8094 58.1248 7.8 51.5716 4.6875 41.8216L8.25938 40.6779C10.875 48.8716 18.4406 54.3748 27.1031 54.3748C35.2125 54.3748 42.0187 49.631 45 42.1873L41.25 41.2498L49.6875 32.8123L52.5 44.0623Z" fill="#FF8700"/>
<path d="M29.8237 11.4016L29.8116 11.3838C28.9753 11.2948 28.1278 11.2498 27.2719 11.2498C17.4281 11.2498 9.04688 17.0998 5.625 26.2498L1.875 25.3123L4.6875 36.5623L13.125 28.1248L9.375 27.1873C12.3562 19.7435 19.1625 14.9998 27.2719 14.9998C29.2134 14.9998 31.1006 15.2763 32.8884 15.7976L32.8659 15.7657C31.5262 14.5798 30.4762 13.0873 29.8237 11.4016Z" fill="#FF8700"/>
<path d="M27.1875 23.4373C20.9841 23.4373 15.9375 28.4838 15.9375 34.6873C15.9375 40.8907 20.9841 45.9373 27.1875 45.9373C33.3909 45.9373 38.4375 40.8907 38.4375 34.6873C38.4375 28.4838 33.3909 23.4373 27.1875 23.4373ZM35.2941 29.9998H32.1478C31.59 28.1491 30.7631 26.7457 29.9644 25.7323C32.2303 26.4363 34.1231 27.9832 35.2941 29.9998ZM36.5625 34.6873C36.5625 35.667 36.4097 36.611 36.1303 37.4998H32.5875C32.7291 36.6391 32.8125 35.7045 32.8125 34.6873C32.8125 33.6701 32.73 32.7354 32.5875 31.8748H36.1294C36.4097 32.7635 36.5625 33.7076 36.5625 34.6873ZM27.1912 43.8373C26.4637 43.2363 25.0734 41.8291 24.2034 39.3748H30.18C29.3138 41.8329 27.9253 43.2354 27.1912 43.8373ZM23.7019 37.4998C23.5406 36.6523 23.4375 35.7241 23.4375 34.6873C23.4375 33.6495 23.5397 32.7223 23.6991 31.8748H30.6731C30.8344 32.7223 30.9375 33.6504 30.9375 34.6873C30.9375 35.7251 30.8353 36.6523 30.6759 37.4998H23.7019ZM17.8125 34.6873C17.8125 33.7076 17.9653 32.7635 18.2447 31.8748H21.7866C21.645 32.7354 21.5625 33.6701 21.5625 34.6873C21.5625 35.7045 21.645 36.6391 21.7875 37.4998H18.2456C17.9653 36.611 17.8125 35.667 17.8125 34.6873ZM27.1847 25.5373C27.9122 26.1382 29.3016 27.5454 30.1725 29.9998H24.1959C25.0613 27.5435 26.4478 26.141 27.1847 25.5373ZM24.4106 25.7323C23.6119 26.7448 22.785 28.1482 22.2272 29.9998H19.0809C20.2519 27.9832 22.1447 26.4363 24.4106 25.7323ZM19.0809 39.3748H22.2272C22.785 41.2254 23.6119 42.6288 24.4106 43.6423C22.1447 42.9382 20.2519 41.3913 19.0809 39.3748ZM29.9644 43.6423C30.7631 42.6298 31.59 41.2263 32.1478 39.3748H35.2941C34.1231 41.3913 32.2303 42.9382 29.9644 43.6423Z" fill="white"/>
<path d="M52.9941 10.5335C50.4309 11.1251 48.2944 12.6241 46.875 14.6426V14.216C46.875 8.23383 42.5925 3.17883 36.6909 2.19539L28.125 0.767578V7.34508C28.125 13.3273 32.4075 18.3823 38.3091 19.3657L45 20.4813V29.9998H46.875V25.121L52.5216 23.8179C56.3728 22.9291 59.0625 19.5485 59.0625 15.596V9.13383L52.9941 10.5335ZM30 7.34508V2.98195L36.3834 4.04602C41.3756 4.87758 45 9.15539 45 14.217V17.4241L35.3503 7.77445L34.0247 9.10008L43.2056 18.281L38.6166 17.516C33.6244 16.6845 30 12.4066 30 7.34508ZM57.1875 15.596C57.1875 18.6701 55.0959 21.2998 52.1006 21.9898L48.9122 22.7257L54.1003 17.5376L52.7747 16.212L46.875 22.1116V20.5826C46.875 16.6301 49.5647 13.2495 53.415 12.3607L57.1875 11.4907V15.596Z" fill="white"/>
</svg>
