<svg width="60" height="48" viewBox="0 0 60 48" fill="none" xmlns="http://www.w3.org/2000/svg">
<path d="M5.55835 14.2775L3.81741 14.9738L9.81738 29.9738L11.5583 29.2774L5.55835 14.2775Z" fill="currentColor"/>
<path d="M45 9.9375H3.75C2.19937 9.9375 0.9375 11.1994 0.9375 12.75C0.9375 14.3006 2.19937 15.5625 3.75 15.5625H44.8406C45.3591 15.5625 45.7781 15.1434 45.7781 14.625L45.9375 10.875C45.9375 10.3566 45.5184 9.9375 45 9.9375Z" fill="#FE603A"/>
<path d="M56.25 0.5625H45.9375V5.18062L41.8491 32.4375H20.625V34.3125H25.7381L31.7231 43.6237C33.2597 46.0116 35.8716 47.4375 38.7113 47.4375C42.8184 47.4375 46.2694 44.4928 46.9144 40.4363L52.3631 6.1875H56.25C57.8006 6.1875 59.0625 4.92562 59.0625 3.375C59.0625 1.82437 57.8006 0.5625 56.25 0.5625ZM41.5678 34.3125L40.6809 40.2281C40.5431 41.1459 39.7688 41.8125 38.8406 41.8125C38.2266 41.8125 37.6528 41.5106 37.3059 41.0044L32.7169 34.3125H41.5678ZM45.0619 40.1419C44.5622 43.2825 41.8913 45.5625 38.7113 45.5625C36.5128 45.5625 34.4906 44.4581 33.3009 42.6094L27.9675 34.3125H30.4444L35.76 42.0647C36.4566 43.0809 37.6078 43.6875 38.8406 43.6875C40.7044 43.6875 42.2587 42.3497 42.5344 40.5056L47.6822 6.1875H50.4637L45.0619 40.1419ZM56.25 4.3125H47.8125V2.4375H56.25C56.7666 2.4375 57.1875 2.8575 57.1875 3.375C57.1875 3.8925 56.7666 4.3125 56.25 4.3125Z" fill="currentColor"/>
<path d="M13.125 47.4375C18.3027 47.4375 22.5 43.2402 22.5 38.0625C22.5 32.8848 18.3027 28.6875 13.125 28.6875C7.94733 28.6875 3.75 32.8848 3.75 38.0625C3.75 43.2402 7.94733 47.4375 13.125 47.4375Z" fill="#FE603A"/>
<path d="M13.125 41.8125C11.0569 41.8125 9.375 40.1306 9.375 38.0625C9.375 35.9944 11.0569 34.3125 13.125 34.3125C15.1931 34.3125 16.875 35.9944 16.875 38.0625C16.875 40.1306 15.1931 41.8125 13.125 41.8125ZM13.125 36.1875C12.0909 36.1875 11.25 37.0284 11.25 38.0625C11.25 39.0966 12.0909 39.9375 13.125 39.9375C14.1591 39.9375 15 39.0966 15 38.0625C15 37.0284 14.1591 36.1875 13.125 36.1875Z" fill="currentColor"/>
<path d="M41.25 17.4375H14.0625V19.3125H41.25V17.4375Z" fill="currentColor"/>
<path d="M12.1875 17.4375H10.3125V19.3125H12.1875V17.4375Z" fill="currentColor"/>
</svg>
