<svg width="60" height="50" viewBox="0 0 60 50" fill="none" xmlns="http://www.w3.org/2000/svg">
<path d="M47.8125 15.3125H42.1875V7.8125H47.8125V15.3125Z" fill="#FE603A"/>
<path d="M23.2978 21.2806L27.1875 20.4162V12.1297C27.1875 11.5737 27.0244 11.0347 26.715 10.5697L25.5178 8.77344C25.1166 8.17156 24.4453 7.8125 23.7216 7.8125C22.5309 7.8125 21.5625 8.78094 21.5625 9.97156V22.2059C22.0406 21.7606 22.6294 21.4297 23.2978 21.2806Z" fill="#FE603A"/>
<path d="M47.8125 37.8125H15V43.4375H47.8125C48.8466 43.4375 49.6875 42.5966 49.6875 41.5625V39.6875C49.6875 38.6534 48.8466 37.8125 47.8125 37.8125Z" fill="#FE603A"/>
<path d="M23.4375 24.6875H25.3125V26.5625H23.4375V24.6875Z" fill="currentColor"/>
<path d="M27.1875 24.6875H29.0625V26.5625H27.1875V24.6875Z" fill="currentColor"/>
<path d="M25.3125 28.4375H27.1875V30.3125H25.3125V28.4375Z" fill="currentColor"/>
<path d="M53.3737 21.0031C53.1769 19.9119 52.4972 18.9819 51.5625 18.4325V5.9375H52.5C53.5341 5.9375 54.375 5.09656 54.375 4.0625V2.1875C54.375 1.15344 53.5341 0.3125 52.5 0.3125H31.875C30.8409 0.3125 30 1.15344 30 2.1875V4.0625C30 4.7 30.3216 5.2625 30.8091 5.60188L28.2553 19.22L23.0953 20.3666C21.0975 20.81 19.6303 22.4787 19.4438 24.5084L19.1925 26.9862L15.9375 25.0869V24.6875C15.9375 23.6534 15.0966 22.8125 14.0625 22.8125C12.5156 22.8125 11.2003 23.8672 10.8656 25.3766L7.68563 39.6875H6.97594C5.76375 39.6875 4.69125 40.46 4.30781 41.6103L3.9 42.8356L2.19 43.9756C1.40531 44.4988 0.9375 45.3734 0.9375 46.3156V49.0625H14.0625C15.0966 49.0625 15.9375 48.2216 15.9375 47.1875V43.4375H15V37.8125H15.9375V31.0072L18.6253 32.5747L18.0928 37.8125H21.1359C22.0097 36.8478 23.1984 36.1953 24.5062 36.0059L27.6038 37.8125H31.3247L15.9375 28.8369V27.2572L34.0322 37.8125H37.7531L30.33 33.4822L36.7819 30.9725C36.6497 31.3559 36.5625 31.76 36.5625 32.1875C36.5625 34.1094 38.0213 35.6797 39.8869 35.8944C39.4894 36.4822 39.1603 37.1244 38.9175 37.8125H40.9537C42.0225 35.5588 44.3034 34.0625 46.875 34.0625C50.4928 34.0625 53.4375 37.0062 53.4375 40.625C53.4375 44.2438 50.4928 47.1875 46.875 47.1875C44.3034 47.1875 42.0225 45.6912 40.9537 43.4375H38.9466C39.4772 44.9347 40.3847 46.2275 41.5753 47.1875H30.255C31.3641 46.2134 32.1863 44.9169 32.5697 43.4375H30.6094C29.8275 45.6341 27.7172 47.1875 25.3125 47.1875C22.9078 47.1875 20.7984 45.6341 20.0156 43.4375H18.0544C18.8981 46.6944 21.8813 49.0625 25.3125 49.0625H46.875C51.2109 49.0625 54.7894 45.7747 55.2572 41.5625H56.25C57.8006 41.5625 59.0625 40.3006 59.0625 38.75V27.5C59.0625 24.1784 56.58 21.4325 53.3737 21.0031ZM2.8125 47.1875V46.3156C2.8125 46.0016 2.96812 45.71 3.22969 45.5356L4.94156 44.3947C5.28562 44.1641 5.54719 43.8209 5.6775 43.4281L6.08625 42.2028C6.21469 41.8203 6.57281 41.5625 6.97594 41.5625H8.15344L9.94969 42.7597L9.49875 43.4375H7.5V45.3125H8.24813L6.99844 47.1875H2.8125ZM14.0625 47.1875H9.25125L12.5503 42.2403L9.49219 40.2013L12.6966 25.7834C12.8391 25.1375 13.4016 24.6875 14.0625 24.6875V47.1875ZM20.4047 33.6134L22.2947 34.7159C21.5034 35.0666 20.7759 35.5447 20.1478 36.14L20.4047 33.6134ZM57.0928 26.5625H53.4375V22.9072C55.2713 23.2813 56.7188 24.7288 57.0928 26.5625ZM49.6875 17.8962L40.8394 17.1875C40.6594 17.1875 40.4841 17.2081 40.3125 17.2409V5.9375H49.6875V17.8962ZM34.9622 20.6628L36.2878 19.3372L32.5378 15.5872L31.2122 16.9128L32.4244 18.125L30.9478 19.6016C30.7097 19.4328 30.4481 19.2987 30.165 19.2087L32.6522 5.9375H38.4375V18.5478C38.295 18.7831 38.1806 19.04 38.1103 19.3184L36.7678 24.6875H32.6691L32.1356 21.4831C32.1169 21.3688 32.0813 21.2609 32.0494 21.1513L33.75 19.4506L34.9622 20.6628ZM31.875 2.1875H52.5L52.5009 4.0625H31.875V2.1875ZM28.2609 32.2747L20.9728 28.0231L21.3103 24.6875C21.4219 23.4631 22.3031 22.4619 23.5013 22.1956L29.0578 20.9619C29.6081 20.8381 30.1912 21.2234 30.2859 21.7916L31.0809 26.5625H38.2322L39.9291 19.7731C40.0341 19.355 40.4081 19.0625 40.7644 19.0597L49.8384 19.7891C50.8059 19.8669 51.5634 20.6872 51.5634 21.6584V28.9813C49.7559 27.4728 47.4338 26.5625 44.9025 26.5625C43.6069 26.5625 42.3375 26.8006 41.13 27.2703L28.2609 32.2747ZM40.3125 34.0625C39.2784 34.0625 38.4375 33.2216 38.4375 32.1875C38.4375 31.1534 39.2784 30.3125 40.3125 30.3125C41.3466 30.3125 42.1875 31.1534 42.1875 32.1875C42.1875 33.2216 41.3466 34.0625 40.3125 34.0625ZM46.875 32.1875C45.8756 32.1875 44.9109 32.3656 44.0119 32.69C44.0344 32.5241 44.0625 32.36 44.0625 32.1875C44.0625 30.7738 43.2675 29.5559 42.1097 28.9166C43.0097 28.6044 43.9463 28.4375 44.9025 28.4375C48.9581 28.4375 52.3547 31.2828 53.2191 35.0797C51.6712 33.3116 49.4044 32.1875 46.875 32.1875ZM56.25 39.6875H55.3125V36.9725C55.3125 34.7628 54.6159 32.7162 53.4375 31.0297V28.4375H57.1875V30.3125H55.3125V32.1875H57.1875V38.75C57.1875 39.2666 56.7675 39.6875 56.25 39.6875Z" fill="currentColor"/>
</svg>
