<svg width="59" height="59" viewBox="0 0 59 59" fill="none" xmlns="http://www.w3.org/2000/svg">
<path d="M51.5 44.0623L47.75 43.1248C44.3281 52.2748 35.9469 58.1248 26.1031 58.1248C15.8094 58.1248 6.8 51.5716 3.6875 41.8216L7.25938 40.6779C9.875 48.8716 17.4406 54.3748 26.1031 54.3748C34.2125 54.3748 41.0187 49.631 44 42.1873L40.25 41.2498L48.6875 32.8123L51.5 44.0623Z" fill="#FE603A"/>
<path d="M28.8237 11.4016L28.8116 11.3838C27.9753 11.2948 27.1278 11.2498 26.2719 11.2498C16.4281 11.2498 8.04688 17.0998 4.625 26.2498L0.875 25.3123L3.6875 36.5623L12.125 28.1248L8.375 27.1873C11.3562 19.7435 18.1625 14.9998 26.2719 14.9998C28.2134 14.9998 30.1006 15.2763 31.8884 15.7976L31.8659 15.7657C30.5262 14.5798 29.4762 13.0873 28.8237 11.4016Z" fill="#FE603A"/>
<path d="M26.1875 23.4373C19.9841 23.4373 14.9375 28.4838 14.9375 34.6873C14.9375 40.8907 19.9841 45.9373 26.1875 45.9373C32.3909 45.9373 37.4375 40.8907 37.4375 34.6873C37.4375 28.4838 32.3909 23.4373 26.1875 23.4373ZM34.2941 29.9998H31.1478C30.59 28.1491 29.7631 26.7457 28.9644 25.7323C31.2303 26.4363 33.1231 27.9832 34.2941 29.9998ZM35.5625 34.6873C35.5625 35.667 35.4097 36.611 35.1303 37.4998H31.5875C31.7291 36.6391 31.8125 35.7045 31.8125 34.6873C31.8125 33.6701 31.73 32.7354 31.5875 31.8748H35.1294C35.4097 32.7635 35.5625 33.7076 35.5625 34.6873ZM26.1912 43.8373C25.4637 43.2363 24.0734 41.8291 23.2034 39.3748H29.18C28.3138 41.8329 26.9253 43.2354 26.1912 43.8373ZM22.7019 37.4998C22.5406 36.6523 22.4375 35.7241 22.4375 34.6873C22.4375 33.6495 22.5397 32.7223 22.6991 31.8748H29.6731C29.8344 32.7223 29.9375 33.6504 29.9375 34.6873C29.9375 35.7251 29.8353 36.6523 29.6759 37.4998H22.7019ZM16.8125 34.6873C16.8125 33.7076 16.9653 32.7635 17.2447 31.8748H20.7866C20.645 32.7354 20.5625 33.6701 20.5625 34.6873C20.5625 35.7045 20.645 36.6391 20.7875 37.4998H17.2456C16.9653 36.611 16.8125 35.667 16.8125 34.6873ZM26.1847 25.5373C26.9122 26.1382 28.3016 27.5454 29.1725 29.9998H23.1959C24.0613 27.5435 25.4478 26.141 26.1847 25.5373ZM23.4106 25.7323C22.6119 26.7448 21.785 28.1482 21.2272 29.9998H18.0809C19.2519 27.9832 21.1447 26.4363 23.4106 25.7323ZM18.0809 39.3748H21.2272C21.785 41.2254 22.6119 42.6288 23.4106 43.6423C21.1447 42.9382 19.2519 41.3913 18.0809 39.3748ZM28.9644 43.6423C29.7631 42.6298 30.59 41.2263 31.1478 39.3748H34.2941C33.1231 41.3913 31.2303 42.9382 28.9644 43.6423Z" fill="currentColor"/>
<path d="M51.9941 10.5335C49.4309 11.1251 47.2944 12.6241 45.875 14.6426V14.216C45.875 8.23383 41.5925 3.17883 35.6909 2.19539L27.125 0.767578V7.34508C27.125 13.3273 31.4075 18.3823 37.3091 19.3657L44 20.4813V29.9998H45.875V25.121L51.5216 23.8179C55.3728 22.9291 58.0625 19.5485 58.0625 15.596V9.13383L51.9941 10.5335ZM29 7.34508V2.98195L35.3834 4.04602C40.3756 4.87758 44 9.15539 44 14.217V17.4241L34.3503 7.77445L33.0247 9.10008L42.2056 18.281L37.6166 17.516C32.6244 16.6845 29 12.4066 29 7.34508ZM56.1875 15.596C56.1875 18.6701 54.0959 21.2998 51.1006 21.9898L47.9122 22.7257L53.1003 17.5376L51.7747 16.212L45.875 22.1116V20.5826C45.875 16.6301 48.5647 13.2495 52.415 12.3607L56.1875 11.4907V15.596Z" fill="currentColor"/>
</svg>
