<svg width="60" height="60" viewBox="0 0 60 60" fill="none" xmlns="http://www.w3.org/2000/svg">
<g clip-path="url(#clip0_1905_874)">
<path d="M59.5514 53.4077C57.9396 47.1706 52.3073 42.8146 45.8551 42.8146C45.3488 42.8146 44.8453 42.8411 44.3468 42.8942L47.6518 36.1349L47.6569 36.1376C47.8226 36.2186 47.9974 36.2566 48.1705 36.2566C48.604 36.2566 49.021 36.0149 49.2242 35.5988C49.5081 35.0175 49.2668 34.3157 48.6855 34.0319L44.2735 31.8763L45.5379 29.2904C45.6747 29.0112 45.6944 28.6889 45.5937 28.395C45.4926 28.1011 45.2792 27.859 44.9995 27.7225L44.7189 27.5857L52.7843 11.0874C52.9797 11.0851 53.1766 11.0751 53.3739 11.0558C55.2351 10.8755 56.9019 9.72007 57.7231 8.04054L57.8654 7.74894C57.9373 7.76268 58.0096 7.76908 58.0811 7.76908C58.515 7.76908 58.932 7.52739 59.1348 7.11128C59.4191 6.52992 59.1779 5.82817 58.5965 5.5439L48.2108 0.470501C47.6289 0.186687 46.9272 0.427929 46.6434 1.00929C46.4067 1.4936 46.5344 2.06123 46.9199 2.40181L46.778 2.69249C45.9563 4.37248 46.068 6.39671 47.0695 7.97599C47.1748 8.1417 47.2861 8.30146 47.4033 8.45573L39.3365 24.9563L39.0555 24.8185C38.4741 24.5347 37.7724 24.7755 37.4881 25.3568L36.2233 27.9436L31.81 25.788C31.2282 25.5042 30.5269 25.7455 30.2426 26.3268C29.9588 26.9082 30.1996 27.6099 30.7814 27.8942L30.7851 27.896L26.2303 37.2106C23.8307 37.5384 21.5277 38.3738 19.4691 39.6738C17.0631 41.1936 15.0797 43.2851 13.6935 45.7561C13.358 45.7291 13.0238 45.7159 12.6929 45.7159C7.69592 45.7159 3.14713 48.662 1.10367 53.2214C0.371246 54.856 0 56.5997 0 58.4032C0 58.7141 0.123596 59.0121 0.343323 59.2318C0.563049 59.4515 0.861053 59.5751 1.17188 59.5751H58.7453C59.3422 59.5751 59.8439 59.1265 59.9098 58.5332C59.9698 57.9963 60 57.4648 60 56.9526C60 55.7523 59.8489 54.5599 59.5514 53.4077ZM55.6174 7.01057C55.1509 7.96409 54.2047 8.62007 53.1477 8.72261C51.5044 8.88237 49.9333 8.1147 49.0489 6.72081C48.4804 5.8245 48.4167 4.67552 48.8832 3.722L49.0073 3.46839L55.741 6.75788L55.6174 7.01057ZM49.2105 10.0959C49.5808 10.3243 49.9727 10.5161 50.3801 10.6681L42.6132 26.5566L41.4427 25.9849L49.2105 10.0959ZM39.0793 27.4387L42.9176 29.3137L42.1674 30.8477L38.3295 28.9727L39.0793 27.4387ZM45.5461 35.1063L41.6084 43.1583C38.4654 39.4088 33.8205 37.1639 28.9146 37.0573L32.8917 28.9246L45.5461 35.1063ZM57.6526 57.2314H2.40875C2.49939 56.4239 2.68433 55.6351 2.96173 54.8725H12.0712C12.718 54.8725 13.2431 54.3479 13.2431 53.7006C13.2431 53.0534 12.718 52.5288 12.0712 52.5288H4.17297C6.35742 49.3711 10.193 47.5913 14.1884 48.169C14.6887 48.2409 15.1785 47.9845 15.4042 47.5323C17.9091 42.5147 22.9454 39.3974 28.5484 39.3974C33.2341 39.3974 37.6785 41.666 40.4375 45.4655C40.7455 45.8894 41.2971 46.0574 41.7892 45.877C42.0483 45.7822 42.3093 45.6966 42.5734 45.6202C42.5821 45.6179 42.5912 45.6152 42.5999 45.6129C43.6533 45.3112 44.7446 45.1583 45.8551 45.1583C50.7175 45.1583 55.0214 48.1223 56.7998 52.5292H27.2626C26.6153 52.5292 26.0907 53.0538 26.0907 53.7011C26.0907 54.3479 26.6153 54.873 27.2626 54.873H57.4731C57.5949 55.5564 57.6562 56.2527 57.6562 56.9526C57.6562 57.0446 57.6549 57.1375 57.6526 57.2314Z" fill="#2D3142"/>
<path d="M37.6428 48.6648C37.2797 48.6648 36.9227 48.4973 36.6934 48.1814C34.8019 45.5768 31.7573 44.0217 28.5488 44.0217C27.9016 44.0217 27.377 43.4971 27.377 42.8499C27.377 42.2026 27.9016 41.678 28.5488 41.678C32.5057 41.678 36.2589 43.5942 38.5899 46.804C38.9703 47.3282 38.854 48.0606 38.3303 48.441C38.122 48.592 37.8813 48.6648 37.6428 48.6648Z" fill="#2D3142"/>
<path d="M23.291 54.8729C23.215 54.8729 23.1377 54.8646 23.0626 54.8491C22.9875 54.8339 22.9138 54.8115 22.8433 54.7822C22.7719 54.7529 22.7037 54.7168 22.6405 54.6746C22.576 54.6325 22.5165 54.5831 22.4625 54.5295C22.2446 54.3112 22.1191 54.0091 22.1191 53.701C22.1191 53.6245 22.1274 53.5472 22.1425 53.4712C22.1576 53.397 22.18 53.3233 22.2093 53.2519C22.2386 53.1814 22.2748 53.1137 22.3174 53.0505C22.3595 52.9859 22.4084 52.926 22.4625 52.872C22.5165 52.8184 22.576 52.769 22.6405 52.7255C22.7037 52.6834 22.7719 52.6472 22.8433 52.6179C22.9138 52.5895 22.9875 52.5662 23.0626 52.5511C23.4435 52.4751 23.8477 52.6005 24.1196 52.872C24.1736 52.926 24.2226 52.9859 24.2647 53.0505C24.3073 53.1137 24.3434 53.1814 24.3727 53.2519C24.402 53.3233 24.4254 53.397 24.4405 53.4712C24.456 53.5472 24.4629 53.6245 24.4629 53.701C24.4629 54.0091 24.3375 54.3112 24.1196 54.5295C23.9017 54.7474 23.5991 54.8729 23.291 54.8729Z" fill="#2D3142"/>
</g>
<defs>
<clipPath id="clip0_1905_874">
<rect width="60" height="60" fill="white"/>
</clipPath>
</defs>
</svg>
