<svg width="60" height="60" viewBox="0 0 60 60" fill="none" xmlns="http://www.w3.org/2000/svg">
<g clip-path="url(#clip0_1905_861)">
<path d="M55.0781 22.4799C54.7701 22.4799 54.4675 22.6053 54.2496 22.8232C54.0317 23.0411 53.9062 23.3427 53.9062 23.6517C53.9062 23.9598 54.0317 24.2624 54.2496 24.4803C54.4675 24.6982 54.7701 24.8236 55.0781 24.8236C55.3862 24.8236 55.6888 24.6982 55.9067 24.4803C56.1246 24.2624 56.25 23.9598 56.25 23.6517C56.25 23.3437 56.1246 23.0411 55.9067 22.8232C55.6888 22.6053 55.3862 22.4799 55.0781 22.4799Z" fill="#2D3142"/>
<path d="M57.7295 37.9042L55.9657 33.6131C56.1484 33.1682 56.25 32.6816 56.25 32.1716V28.1355C56.25 27.4887 55.7254 26.9636 55.0781 26.9636C54.4308 26.9636 53.9062 27.4887 53.9062 28.1355V32.1716C53.9062 32.9796 53.2494 33.6364 52.4414 33.6364C51.6335 33.6364 50.9766 32.9796 50.9766 32.1716V15.4083L53.1299 14.1513C53.4055 13.9901 53.6646 13.8107 53.9062 13.6166V18.8694C53.9062 19.5167 54.4308 20.0413 55.0781 20.0413C55.7254 20.0413 56.25 19.5167 56.25 18.8694V9.12686C56.3388 7.90601 56.077 6.64853 55.4219 5.51373C54.5673 4.03378 53.1862 2.98184 51.5327 2.55109C49.8788 2.12033 48.1599 2.36523 46.6924 3.24048L28.5681 14.0464L22.6057 12.7322C21.4902 12.4864 20.3389 12.7556 19.4485 13.4715C18.5577 14.1874 18.0469 15.2531 18.0469 16.3957V24.3773H6.38672C5.06195 24.3773 3.98438 25.4548 3.98438 26.7796V37.4437C3.98438 38.7684 5.06195 39.846 6.38672 39.846H11.1058V42.1898H7.73438C3.46939 42.1898 0 45.6591 0 49.9241C0 54.1887 3.46939 57.6585 7.73438 57.6585H34.4531C38.7181 57.6585 42.1875 54.1887 42.1875 49.9241C42.1875 45.6591 38.7181 42.1898 34.4531 42.1898H31.2621V39.846H34.7168C36.6389 39.846 38.2031 38.2818 38.2031 36.3597V22.8657L48.6328 16.7766V32.1716C48.6328 33.5389 49.3575 34.7397 50.4424 35.4117L52.7454 40.8778L51.1748 42.4484H44.4923C43.8451 42.4484 43.3205 42.9734 43.3205 43.6203C43.3205 48.219 47.0618 51.9603 51.66 51.9603C56.2587 51.9603 60 48.219 60 43.6203C60 41.4761 59.1943 39.4574 57.7295 37.9042ZM35.8594 31.2886H32.3456C32.1053 31.2886 31.9098 31.0931 31.9098 30.8528V27.6704C31.9098 27.0236 31.3852 26.4985 30.7379 26.4985H26.9202C26.6798 26.4985 26.4844 26.3031 26.4844 26.0627V15.9869L34.9626 17.8555C35.4822 17.9704 35.8594 18.4391 35.8594 18.9715V31.2886ZM39.8438 49.9241C39.8438 52.8964 37.4254 55.3148 34.4531 55.3148H7.73438C4.76212 55.3148 2.34375 52.8964 2.34375 49.9241C2.34375 46.9519 4.76212 44.5335 7.73438 44.5335H34.4531C37.4254 44.5335 39.8438 46.9519 39.8438 49.9241ZM28.9183 42.1898H13.4496V39.846H28.9183V42.1898ZM34.7168 37.5023H6.38672C6.35468 37.5023 6.32812 37.4757 6.32812 37.4437V26.7796C6.32812 26.7471 6.35468 26.721 6.38672 26.721H19.2188C19.866 26.721 20.3906 26.196 20.3906 25.5491V16.3957C20.3906 15.9672 20.5824 15.5671 20.9166 15.2984C21.2508 15.0297 21.6829 14.9286 22.1013 15.021L24.1406 15.4706V26.0627C24.1406 27.5953 25.3876 28.8423 26.9202 28.8423H29.566V30.8528C29.566 32.3854 30.813 33.6323 32.3456 33.6323H35.8594V36.3597C35.8594 36.9896 35.3467 37.5023 34.7168 37.5023ZM35.4671 15.5667L31.9093 14.7825L47.8926 5.25326C48.8173 4.70212 49.9004 4.54785 50.9418 4.8193C51.9836 5.09076 52.8539 5.7536 53.3922 6.68561C53.7016 7.22165 53.8715 7.80118 53.914 8.38116C53.909 8.42374 53.9062 8.46722 53.9062 8.51117V9.04263C53.7909 10.2836 53.101 11.4541 51.9479 12.127L38.2031 20.1516V18.9715C38.2031 17.3483 37.0528 15.9164 35.4671 15.5667ZM53.194 35.9051C53.5583 35.8319 53.9035 35.706 54.2226 35.5366L55.3482 38.2754L54.5348 39.0884L53.194 35.9051ZM51.66 49.6165C48.755 49.6165 46.3257 47.5392 45.7791 44.7921H51.66C51.9708 44.7921 52.2688 44.669 52.4886 44.4493L56.6483 40.2896C57.3038 41.2674 57.6562 42.4168 57.6562 43.6203C57.6562 46.9267 54.9664 49.6165 51.66 49.6165Z" fill="#2D3142"/>
<path d="M49.8047 9.68311C50.1128 9.68311 50.4153 9.55768 50.6332 9.33978C50.8511 9.12189 50.9766 8.81931 50.9766 8.51123C50.9766 8.20316 50.8511 7.90057 50.6332 7.68268C50.4153 7.46478 50.1128 7.33936 49.8047 7.33936C49.4966 7.33936 49.194 7.46478 48.9761 7.68268C48.7582 7.90057 48.6328 8.20316 48.6328 8.51123C48.6328 8.81931 48.7582 9.12189 48.9761 9.33978C49.194 9.55768 49.4966 9.68311 49.8047 9.68311Z" fill="#2D3142"/>
<path d="M43.0938 13.4953C43.4018 13.4953 43.7039 13.3699 43.9223 13.1515C44.1402 12.9336 44.2656 12.6315 44.2656 12.3234C44.2656 12.014 44.1402 11.7128 43.9223 11.4949C43.7039 11.277 43.4018 11.1516 43.0938 11.1516C42.7843 11.1516 42.4831 11.2765 42.2652 11.4949C42.0459 11.7128 41.9219 12.014 41.9219 12.3234C41.9219 12.6315 42.0459 12.9336 42.2652 13.1515C42.4831 13.3699 42.7857 13.4953 43.0938 13.4953Z" fill="#2D3142"/>
<path d="M34.4531 53.4398C36.3918 53.4398 37.9688 51.8624 37.9688 49.9242C37.9688 47.9856 36.3918 46.4086 34.4531 46.4086C32.5145 46.4086 30.9375 47.9856 30.9375 49.9242C30.9375 51.8624 32.5145 53.4398 34.4531 53.4398ZM34.4531 48.7523C35.0995 48.7523 35.625 49.2778 35.625 49.9242C35.625 50.5701 35.0995 51.0961 34.4531 51.0961C33.8068 51.0961 33.2812 50.5701 33.2812 49.9242C33.2812 49.2778 33.8068 48.7523 34.4531 48.7523Z" fill="#2D3142"/>
<path d="M27.8758 48.7601H14.4922C13.8449 48.7601 13.3203 49.2847 13.3203 49.9319C13.3203 50.5788 13.8449 51.1038 14.4922 51.1038H27.8758C28.5231 51.1038 29.0477 50.5788 29.0477 49.9319C29.0477 49.2847 28.5231 48.7601 27.8758 48.7601Z" fill="#2D3142"/>
<path d="M7.73438 46.4163C5.79575 46.4163 4.21875 47.9933 4.21875 49.9319C4.21875 51.8701 5.79575 53.4476 7.73438 53.4476C9.673 53.4476 11.25 51.8701 11.25 49.9319C11.25 47.9933 9.673 46.4163 7.73438 46.4163ZM7.73438 51.1038C7.08801 51.1038 6.5625 50.5779 6.5625 49.9319C6.5625 49.2856 7.08801 48.7601 7.73438 48.7601C8.38074 48.7601 8.90625 49.2856 8.90625 49.9319C8.90625 50.5779 8.38074 51.1038 7.73438 51.1038Z" fill="#2D3142"/>
<path d="M16.8774 28.596H9.28125C8.63443 28.596 8.10938 29.1206 8.10938 29.7679C8.10938 30.4147 8.63443 30.9398 9.28125 30.9398H16.8774C17.5247 30.9398 18.0493 30.4147 18.0493 29.7679C18.0493 29.1206 17.5247 28.596 16.8774 28.596Z" fill="#2D3142"/>
<path d="M16.8774 33.2836H9.28125C8.63443 33.2836 8.10938 33.8082 8.10938 34.4554C8.10938 35.1023 8.63443 35.6273 9.28125 35.6273H16.8774C17.5247 35.6273 18.0493 35.1023 18.0493 34.4554C18.0493 33.8082 17.5247 33.2836 16.8774 33.2836Z" fill="#2D3142"/>
<path d="M20.6348 33.2836C20.3253 33.2836 20.0232 33.4085 19.8067 33.6269C19.5874 33.8448 19.4629 34.1469 19.4629 34.4554C19.4629 34.7635 19.5874 35.0656 19.8067 35.2835C20.0232 35.5019 20.3258 35.6273 20.6348 35.6273C20.9433 35.6273 21.2454 35.5019 21.4633 35.2835C21.6812 35.0656 21.8066 34.7635 21.8066 34.4554C21.8066 34.1469 21.6817 33.8448 21.4633 33.6269C21.2454 33.409 20.9433 33.2836 20.6348 33.2836Z" fill="#2D3142"/>
</g>
<defs>
<clipPath id="clip0_1905_861">
<rect width="60" height="60" fill="white"/>
</clipPath>
</defs>
</svg>
