<svg width="60" height="60" viewBox="0 0 60 60" fill="none" xmlns="http://www.w3.org/2000/svg">
<path d="M50.2259 36.7658C47.3644 36.7658 44.7861 38.0018 42.997 39.9681L37.5305 37.9544H39.4167C41.7349 37.9544 43.9594 37.0989 45.6802 35.5456L56.2977 25.9615H57.3356C57.9979 25.9615 58.5349 25.4246 58.5349 24.7622V19.9652C58.5349 19.3028 57.9979 18.7659 57.3356 18.7659H56.1492L48.6129 4.3299C48.4505 4.01888 48.1602 3.79458 47.8182 3.71595C47.4764 3.63779 47.1171 3.71255 46.8353 3.92161L35.103 12.6249L28.8355 10.3534C28.4302 10.2063 27.9771 10.2884 27.649 10.5683L18.0311 18.7659H16.5596C15.8974 18.7659 15.3604 19.3028 15.3604 19.9652V24.7622C15.3604 25.4246 15.8974 25.9615 16.5596 25.9615H16.8594V28.6069C16.8594 29.2218 16.9207 29.8224 17.0346 30.4045L12.7922 28.8417V19.709C12.7922 17.7251 11.1782 16.1111 9.1943 16.1111H3.59789C1.61402 16.1111 0 17.7251 0 19.709C0 21.6929 1.61402 23.3069 3.59789 23.3069H5.59676V31.3264C5.59676 31.359 5.59805 31.3915 5.60063 31.4236C5.63684 32.8769 6.55957 34.1855 7.93184 34.7043L18.4227 38.5727L11.5479 49.1235C11.1861 49.6784 11.3429 50.4215 11.8979 50.7831C12.1 50.9149 12.3271 50.9778 12.5514 50.9778C12.9434 50.9778 13.3274 50.7859 13.5573 50.4331L20.7308 39.4239L40.4557 46.6972C40.5402 52.0143 44.889 56.3144 50.2259 56.3144C55.6153 56.3144 60 51.9297 60 46.5402C60 41.1506 55.6153 36.7658 50.2259 36.7658ZM44.0729 33.7652C42.7937 34.9198 41.1401 35.5558 39.4167 35.5558H31.0192L19.868 31.448C19.4774 30.58 19.2581 29.6188 19.2581 28.6069V25.9615H52.718L44.0729 33.7652ZM28.6741 12.8461L34.8914 15.0994C35.2693 15.2367 35.6913 15.1749 36.0145 14.9351L47.1363 6.68466L51.2085 14.4848H46.3178C45.6555 14.4848 45.1185 15.0217 45.1185 15.6841C45.1185 16.3464 45.6555 16.8834 46.3178 16.8834H52.4606L53.4434 18.7658H21.7288L28.6741 12.8461ZM17.7591 21.1645H18.4729H55.4223H56.1361V23.5631H55.8363H18.0589H17.7592V21.1645H17.7591ZM8.7709 32.4571C8.30672 32.2817 7.99629 31.8289 7.99793 31.3305C7.99805 31.3017 7.99711 31.2731 7.99512 31.2445V22.1074C7.99512 21.445 7.45805 20.9081 6.79582 20.9081H3.59789C2.9366 20.9081 2.39859 20.3701 2.39859 19.7088C2.39859 19.0475 2.9366 18.5095 3.59789 18.5095H9.19453C9.85582 18.5095 10.3938 19.0475 10.3938 19.7088V29.6777C10.3938 30.1802 10.7071 30.6295 11.1785 30.8029L50.7745 45.3891C51.072 45.5029 51.3079 45.7254 51.439 46.0158C51.5708 46.3079 51.5809 46.6335 51.4676 46.9333C51.2412 47.532 50.5631 47.873 49.9124 47.6273L8.7709 32.4571ZM50.2259 53.9156C46.522 53.9156 43.4481 51.1709 42.9287 47.6088L49.0733 49.8746C49.4827 50.0293 49.9105 50.1077 50.3453 50.1077C51.8324 50.1077 53.1851 49.173 53.7109 47.7816C54.0509 46.8828 54.0203 45.9052 53.625 45.0292C53.2297 44.1533 52.5171 43.4836 51.6183 43.1437C51.6151 43.1425 51.6118 43.1413 51.6087 43.14L45.4939 40.8876C46.7757 39.8127 48.4261 39.164 50.2259 39.164C54.2927 39.164 57.6014 42.4727 57.6014 46.5395C57.6014 50.6065 54.2927 53.9156 50.2259 53.9156Z" fill="#2D3142"/>
<path d="M41.4052 14.485H39.4063C38.7441 14.485 38.207 15.0219 38.207 15.6843C38.207 16.3466 38.7441 16.8836 39.4063 16.8836H41.4052C42.0674 16.8836 42.6045 16.3466 42.6045 15.6843C42.6045 15.0219 42.0675 14.485 41.4052 14.485Z" fill="#2D3142"/>
</svg>
