<svg width="60" height="60" viewBox="0 0 60 60" fill="none" xmlns="http://www.w3.org/2000/svg">
<g clip-path="url(#clip0_1905_817)">
<path d="M12.6853 39.6116H8.37891C7.7318 39.6116 7.20703 40.1363 7.20703 40.7834V45.0899C7.20703 45.737 7.7318 46.2617 8.37891 46.2617H12.6853C13.3324 46.2617 13.8572 45.737 13.8572 45.0899V40.7834C13.8572 40.1362 13.3325 39.6116 12.6853 39.6116ZM11.5134 43.918H9.55078V41.9553H11.5134V43.918Z" fill="#2D3142"/>
<path d="M22.2322 39.6116H17.9258C17.2787 39.6116 16.7539 40.1363 16.7539 40.7834V45.0899C16.7539 45.737 17.2787 46.2617 17.9258 46.2617H22.2322C22.8793 46.2617 23.4041 45.737 23.4041 45.0899V40.7834C23.4041 40.1362 22.8794 39.6116 22.2322 39.6116ZM21.0603 43.918H19.0977V41.9553H21.0603V43.918Z" fill="#2D3142"/>
<path d="M12.6853 48.6552H8.37891C7.7318 48.6552 7.20703 49.1799 7.20703 49.827V54.1334C7.20703 54.7805 7.7318 55.3053 8.37891 55.3053H12.6853C13.3324 55.3053 13.8572 54.7805 13.8572 54.1334V49.827C13.8572 49.1798 13.3325 48.6552 12.6853 48.6552ZM11.5134 52.9616H9.55078V50.9989H11.5134V52.9616Z" fill="#2D3142"/>
<path d="M22.2322 48.6552H17.9258C17.2787 48.6552 16.7539 49.1799 16.7539 49.827V54.1334C16.7539 54.7805 17.2787 55.3053 17.9258 55.3053H22.2322C22.8793 55.3053 23.4041 54.7805 23.4041 54.1334V49.827C23.4041 49.1798 22.8794 48.6552 22.2322 48.6552ZM21.0603 52.9616H19.0977V50.9989H21.0603V52.9616Z" fill="#2D3142"/>
<path d="M17.8129 30.2848C17.5938 30.0668 17.2926 29.9414 16.9844 29.9414C16.675 29.9414 16.3738 30.0667 16.1559 30.2848C15.9368 30.5027 15.8125 30.8051 15.8125 31.1133C15.8125 31.4215 15.9368 31.7238 16.1559 31.9417C16.3738 32.1596 16.6762 32.2852 16.9844 32.2852C17.2926 32.2852 17.5938 32.1598 17.8129 31.9417C18.0307 31.7238 18.1562 31.4215 18.1562 31.1133C18.1562 30.8051 18.0309 30.5027 17.8129 30.2848Z" fill="#2D3142"/>
<path d="M58.8281 57.6559H57.6562V27.883C57.6562 27.2359 57.1315 26.7112 56.4844 26.7112H50.8743V11.6146C50.8743 11.1809 50.6347 10.7826 50.2515 10.5794L30.564 0.136315C30.2007 -0.0563413 29.7632 -0.0447398 29.4109 0.16737C29.0585 0.379362 28.843 0.760456 28.843 1.17155V13.1247H16.9836C16.3365 13.1247 15.8118 13.6494 15.8118 14.2965V26.4515C15.8118 27.0986 16.3365 27.6233 16.9836 27.6233C17.6307 27.6233 18.1555 27.0986 18.1555 26.4515V15.4684H34.093V20.1487H30.0149C29.3678 20.1487 28.843 20.6734 28.843 21.3205C28.843 21.9676 29.3678 22.4924 30.0149 22.4924H34.093V26.7112H30.0149C29.3678 26.7112 28.843 27.2359 28.843 27.883C28.843 28.5301 29.3678 29.0549 30.0149 29.0549H34.093V33.2737H30.0149C29.3678 33.2737 28.843 33.7984 28.843 34.4455C28.843 35.0926 29.3678 35.6174 30.0149 35.6174H34.093V39.8362H30.0149C29.3678 39.8362 28.843 40.3609 28.843 41.008C28.843 41.6551 29.3678 42.1799 30.0149 42.1799H34.093V46.3987H30.0149C29.3678 46.3987 28.843 46.9234 28.843 47.5705C28.843 48.2176 29.3678 48.7424 30.0149 48.7424H34.093V52.9612H30.0149C29.3678 52.9612 28.843 53.4859 28.843 54.133C28.843 54.7801 29.3678 55.3049 30.0149 55.3049H34.093V57.6559H28.125V36.0934C28.125 35.4463 27.6002 34.9216 26.9531 34.9216H3.51562C2.86852 34.9216 2.34375 35.4463 2.34375 36.0934V57.6559H1.17188C0.524766 57.6559 0 58.1807 0 58.8278C0 59.4749 0.524766 59.9997 1.17188 59.9997H58.8281C59.4752 59.9997 60 59.4749 60 58.8278C60 58.1807 59.4754 57.6559 58.8281 57.6559ZM25.7812 57.6559H4.6875V37.2653H25.7812V57.6559ZM40.3125 27.883V57.6559H36.4368V14.2965C36.4368 13.6494 35.912 13.1247 35.2649 13.1247H31.1868V3.11967L48.5305 12.3196V26.7112H41.4844C40.8373 26.7112 40.3125 27.2359 40.3125 27.883ZM55.3125 33.2737H48.9844C48.3373 33.2737 47.8125 33.7984 47.8125 34.4455C47.8125 35.0926 48.3373 35.6174 48.9844 35.6174H55.3125V39.8362H48.9844C48.3373 39.8362 47.8125 40.3609 47.8125 41.008C47.8125 41.6551 48.3373 42.1799 48.9844 42.1799H55.3125V46.3987H48.9844C48.3373 46.3987 47.8125 46.9234 47.8125 47.5705C47.8125 48.2176 48.3373 48.7424 48.9844 48.7424H55.3125V52.9612H51.7579C51.1107 52.9612 50.586 53.4859 50.586 54.133C50.586 54.7801 51.1107 55.3049 51.7579 55.3049H55.3125V57.6559H42.6562V29.0549H55.3125V33.2737Z" fill="#2D3142"/>
<path d="M47.2737 53.3053C47.0559 53.0872 46.7547 52.9618 46.4453 52.9618C46.1371 52.9618 45.8348 53.0872 45.6168 53.3053C45.3988 53.5231 45.2734 53.8255 45.2734 54.1337C45.2734 54.4419 45.3987 54.7442 45.6168 54.9622C45.8349 55.1802 46.1371 55.3055 46.4453 55.3055C46.7547 55.3055 47.0559 55.1803 47.2737 54.9622C47.4929 54.7442 47.6172 54.4419 47.6172 54.1337C47.6172 53.8243 47.4929 53.5231 47.2737 53.3053Z" fill="#2D3142"/>
<path d="M40.3125 13.2422C39.6654 13.2422 39.1406 13.767 39.1406 14.4141V16.6016C39.1406 17.2488 39.6654 17.7735 40.3125 17.7735C40.9596 17.7735 41.4844 17.2487 41.4844 16.6016V14.4141C41.4844 13.767 40.9596 13.2422 40.3125 13.2422Z" fill="#2D3142"/>
<path d="M40.3125 20.1489C39.6654 20.1489 39.1406 20.6736 39.1406 21.3207V23.7339C39.1406 24.3811 39.6654 24.9057 40.3125 24.9057C40.9596 24.9057 41.4844 24.381 41.4844 23.7339V21.3207C41.4844 20.6736 40.9596 20.1489 40.3125 20.1489Z" fill="#2D3142"/>
<path d="M45 13.2422C44.3529 13.2422 43.8281 13.767 43.8281 14.4141V16.6016C43.8281 17.2488 44.3529 17.7735 45 17.7735C45.6471 17.7735 46.1719 17.2487 46.1719 16.6016V14.4141C46.1719 13.767 45.6471 13.2422 45 13.2422Z" fill="#2D3142"/>
<path d="M45 20.1489C44.3529 20.1489 43.8281 20.6736 43.8281 21.3207V23.7339C43.8281 24.3811 44.3529 24.9057 45 24.9057C45.6471 24.9057 46.1719 24.381 46.1719 23.7339V21.3207C46.1719 20.6736 45.6471 20.1489 45 20.1489Z" fill="#2D3142"/>
</g>
<defs>
<clipPath id="clip0_1905_817">
<rect width="60" height="60" fill="white"/>
</clipPath>
</defs>
</svg>
