<svg width="22" height="22" viewBox="0 0 22 22" fill="none" xmlns="http://www.w3.org/2000/svg">
<g clip-path="url(#clip0_1901_2340)">
<path d="M0.602364 9.33241C0.213699 8.28257 -0.067747 7.21039 0.0171337 6.0712C0.0707425 5.36982 0.334319 4.77119 0.848071 4.27977C1.4065 3.75262 1.93365 3.19866 2.48314 2.66257C3.19793 1.95672 4.09587 1.96119 4.81066 2.66257C5.25293 3.09591 5.69074 3.53818 6.12854 3.98046C6.55295 4.40486 6.98182 4.82926 7.40622 5.25813C8.15228 6.01313 8.15675 6.89321 7.41069 7.64373C6.8746 8.17982 6.34298 8.72037 5.79796 9.24753C5.655 9.38602 5.6416 9.50217 5.71754 9.6764C6.07493 10.5341 6.59315 11.2981 7.17392 12.0128C8.34438 13.4514 9.66673 14.729 11.2437 15.7163C11.5832 15.9263 11.954 16.0827 12.307 16.2748C12.4901 16.373 12.6107 16.3418 12.7582 16.1899C13.2898 15.6404 13.8348 15.0998 14.3798 14.5593C15.0946 13.8534 15.9881 13.849 16.7029 14.5593C17.5785 15.4259 18.4496 16.2971 19.3163 17.1727C20.0445 17.9054 20.04 18.8033 19.3074 19.5404C18.8115 20.0408 18.2888 20.5143 17.8242 21.037C17.1452 21.7965 16.2874 22.0466 15.3135 21.993C13.8929 21.9171 12.5839 21.4435 11.3197 20.8315C8.51414 19.4689 6.11961 17.5792 4.11374 15.1936C2.63057 13.4246 1.4065 11.5036 0.602364 9.33241ZM22.0012 10.9317C22.0012 4.90521 17.096 0 11.0695 0V2.08181C15.9479 2.08181 19.9194 6.05333 19.9194 10.9317H22.0012ZM16.0149 10.9317H18.0967C18.0967 7.0585 14.9427 3.90451 11.0695 3.90451V5.98632C12.3918 5.98632 13.6338 6.50007 14.5675 7.43376C15.5012 8.36745 16.0149 9.60939 16.0149 10.9317Z" fill="currentColor"/>
</g>
<defs>
<clipPath id="clip0_1901_2340">
<rect width="22" height="22" fill="currentColor"/>
</clipPath>
</defs>
</svg>
