<svg width="60" height="60" viewBox="0 0 60 60" fill="none" xmlns="http://www.w3.org/2000/svg">
<path fill-rule="evenodd" clip-rule="evenodd" d="M49.6175 6.79688H56.3672C57.0144 6.79688 57.5391 6.27221 57.5391 5.625V2.92969C57.5391 2.28248 57.0144 1.75781 56.3672 1.75781H3.75C3.10279 1.75781 2.57812 2.28248 2.57812 2.92969V5.625C2.57812 6.27221 3.10279 6.79688 3.75 6.79688H6.2809C6.01227 7.28328 5.85938 7.84253 5.85938 8.4375C5.85938 10.1976 7.19744 11.6452 8.91184 11.8185C8.83214 12.0639 8.78906 12.3257 8.78906 12.5977C8.78906 13.9892 9.9171 15.1172 11.3086 15.1172H13.8281V20.625C13.8281 21.2722 14.3528 21.7969 15 21.7969H19.3359C19.9831 21.7969 20.5078 21.2722 20.5078 20.625V15.1172H23.0273C24.4188 15.1172 25.5469 13.9892 25.5469 12.5977C25.5469 12.3257 25.5038 12.0639 25.4241 11.8185C27.1385 11.6452 28.4766 10.1976 28.4766 8.4375C28.4766 7.84253 28.3237 7.28328 28.055 6.79688H38.7418C38.4732 7.28328 38.3203 7.84253 38.3203 8.4375C38.3203 10.2752 39.7789 11.7722 41.6016 11.834V14.0625H36.4453C34.3095 14.0625 32.5781 15.7939 32.5781 17.9297C32.5781 20.0655 34.3095 21.7969 36.4453 21.7969H37.6073C37.6297 21.8681 37.6554 21.9379 37.6842 22.006C38.04 22.8472 38.8729 23.4375 39.8438 23.4375H48.5156C49.5651 23.4375 50.4534 22.7478 50.7521 21.7969H51.9141C54.0499 21.7969 55.7812 20.0655 55.7812 17.9297C55.7812 15.7939 54.0499 14.0625 51.9141 14.0625H46.7578V11.834C48.5805 11.7722 50.0391 10.2752 50.0391 8.4375C50.0391 7.84253 49.8862 7.28328 49.6175 6.79688ZM4.33594 3.51562V5.03906H55.7812V3.51562H4.33594ZM45 14.0625H43.3594V11.8359H45V14.0625ZM39.8438 18.3984C38.7943 18.3984 37.906 19.0882 37.6073 20.0391H36.4453C35.2803 20.0391 34.3359 19.0947 34.3359 17.9297C34.3359 16.7647 35.2803 15.8203 36.4453 15.8203H51.9141C53.079 15.8203 54.0234 16.7647 54.0234 17.9297C54.0234 19.0947 53.079 20.0391 51.9141 20.0391H50.7521C50.7297 19.9678 50.704 19.898 50.6752 19.8299C50.3194 18.9887 49.4864 18.3984 48.5156 18.3984H39.8438ZM46.6406 10.0781H41.7188C40.8127 10.0781 40.0781 9.34359 40.0781 8.4375C40.0781 7.53141 40.8127 6.79688 41.7188 6.79688H46.6406C47.5467 6.79688 48.2812 7.53141 48.2812 8.4375C48.2812 9.34359 47.5467 10.0781 46.6406 10.0781ZM7.61719 8.4375C7.61719 7.53141 8.35172 6.79688 9.25781 6.79688H25.0781C25.9842 6.79688 26.7188 7.53141 26.7188 8.4375C26.7188 9.34359 25.9842 10.0781 25.0781 10.0781H9.25781C8.35172 10.0781 7.61719 9.34359 7.61719 8.4375ZM10.5469 12.5977C10.5469 12.177 10.8879 11.8359 11.3086 11.8359H23.0273C23.448 11.8359 23.7891 12.177 23.7891 12.5977C23.7891 13.0183 23.448 13.3594 23.0273 13.3594H11.3086C10.8879 13.3594 10.5469 13.0183 10.5469 12.5977ZM15.5859 15.1172V20.0391H18.75V15.1172H15.5859ZM48.5156 20.1562C48.8392 20.1562 49.1016 20.4186 49.1016 20.7422V21.0938C49.1016 21.4174 48.8392 21.6797 48.5156 21.6797H39.8438C39.5201 21.6797 39.2578 21.4174 39.2578 21.0938V20.7422C39.2578 20.4186 39.5201 20.1562 39.8438 20.1562H48.5156Z" fill="white"/>
<path fill-rule="evenodd" clip-rule="evenodd" d="M5.85938 27.7734C5.85938 28.8629 6.60273 29.7788 7.60991 30.0415C6.5294 31.1044 5.85938 32.5833 5.85938 34.2188V36.6797H3.04688C1.75246 36.6797 0.703125 37.729 0.703125 39.0234V51.9141C0.703125 53.0062 1.45006 53.9238 2.46094 54.184V56.0156C2.46094 57.31 3.51027 58.3594 4.80469 58.3594H55.1953C56.4897 58.3594 57.5391 57.31 57.5391 56.0156V54.184C58.5499 53.9238 59.2969 53.0062 59.2969 51.9141V39.0234C59.2969 37.729 58.2475 36.6797 56.9531 36.6797H55.7812V34.2188C55.7812 32.5833 55.1112 31.1044 54.0307 30.0415C55.0379 29.7788 55.7812 28.8629 55.7812 27.7734V27.4219C55.7812 26.1275 54.7319 25.0781 53.4375 25.0781H36.4453C35.1509 25.0781 34.1016 26.1275 34.1016 27.4219V27.7734C34.1016 28.8629 34.8449 29.7788 35.8521 30.0415C34.7716 31.1044 34.1016 32.5833 34.1016 34.2188V36.6797H27.5391V34.2188C27.5391 32.5833 26.869 31.1044 25.7885 30.0415C26.7957 29.7788 27.5391 28.8629 27.5391 27.7734V27.4219C27.5391 26.1275 26.4897 25.0781 25.1953 25.0781H8.20312C6.90871 25.0781 5.85938 26.1275 5.85938 27.4219V27.7734ZM3.04688 38.4375H5.85938V40.8984C5.85938 44.1345 8.48271 46.7578 11.7188 46.7578H21.6797C24.9157 46.7578 27.5391 44.1345 27.5391 40.8984V38.4375H34.1016V40.8984C34.1016 44.1345 36.7249 46.7578 39.9609 46.7578H49.9219C53.1579 46.7578 55.7812 44.1345 55.7812 40.8984V38.4375H56.9531C57.2767 38.4375 57.5391 38.6998 57.5391 39.0234V50.8594C57.5391 49.565 56.4897 48.5156 55.1953 48.5156H4.80469C3.51027 48.5156 2.46094 49.565 2.46094 50.8594V39.0234C2.46094 38.6998 2.72327 38.4375 3.04688 38.4375ZM25.1953 26.8359H8.20312C7.87952 26.8359 7.61719 27.0983 7.61719 27.4219V27.7734C7.61719 28.097 7.87952 28.3594 8.20312 28.3594H25.1953C25.5189 28.3594 25.7812 28.097 25.7812 27.7734V27.4219C25.7812 27.0983 25.5189 26.8359 25.1953 26.8359ZM7.61719 34.2188C7.61719 31.9535 9.45352 30.1172 11.7188 30.1172H21.6797C23.9449 30.1172 25.7812 31.9535 25.7812 34.2188V40.8984C25.7812 43.1637 23.9449 45 21.6797 45H11.7188C9.45352 45 7.61719 43.1637 7.61719 40.8984V34.2188ZM49.9219 30.1172C52.1871 30.1172 54.0234 31.9535 54.0234 34.2188V40.8984C54.0234 43.1637 52.1871 45 49.9219 45H39.9609C37.6957 45 35.8594 43.1637 35.8594 40.8984V34.2188C35.8594 31.9535 37.6957 30.1172 39.9609 30.1172H49.9219ZM53.4375 26.8359H36.4453C36.1217 26.8359 35.8594 27.0983 35.8594 27.4219V27.7734C35.8594 28.097 36.1217 28.3594 36.4453 28.3594H53.4375C53.7611 28.3594 54.0234 28.097 54.0234 27.7734V27.4219C54.0234 27.0983 53.7611 26.8359 53.4375 26.8359ZM18.8672 50.2734H41.1328C39.8384 50.2734 38.7891 51.3228 38.7891 52.6172V54.2578C38.7891 55.5522 39.8384 56.6016 41.1328 56.6016H18.8672C20.1616 56.6016 21.2109 55.5522 21.2109 54.2578V52.6172C21.2109 51.3228 20.1616 50.2734 18.8672 50.2734ZM12.0703 50.2734C13.3647 50.2734 14.4141 51.3228 14.4141 52.6172C14.4141 51.3228 15.4634 50.2734 16.7578 50.2734H12.0703ZM14.4141 54.2578C14.4141 55.5522 13.3647 56.6016 12.0703 56.6016H16.7578C15.4634 56.6016 14.4141 55.5522 14.4141 54.2578ZM45.5859 52.6172C45.5859 51.3228 44.5366 50.2734 43.2422 50.2734H47.9297C46.6353 50.2734 45.5859 51.3228 45.5859 52.6172ZM52.3828 52.6172C52.3828 51.3228 51.3335 50.2734 50.0391 50.2734H55.1953C55.5189 50.2734 55.7812 50.5358 55.7812 50.8594V56.0156C55.7812 56.3392 55.5189 56.6016 55.1953 56.6016H50.0391C51.3335 56.6016 52.3828 55.5522 52.3828 54.2578V52.6172ZM45.5859 54.2578C45.5859 55.5522 46.6353 56.6016 47.9297 56.6016H43.2422C44.5366 56.6016 45.5859 55.5522 45.5859 54.2578ZM9.96094 50.2734H4.80469C4.48108 50.2734 4.21875 50.5358 4.21875 50.8594V56.0156C4.21875 56.3392 4.48108 56.6016 4.80469 56.6016H9.96094C8.66652 56.6016 7.61719 55.5522 7.61719 54.2578V52.6172C7.61719 51.3228 8.66652 50.2734 9.96094 50.2734ZM9.96094 52.0312H12.0703C12.3939 52.0312 12.6562 52.2936 12.6562 52.6172V54.2578C12.6562 54.5814 12.3939 54.8438 12.0703 54.8438H9.96094C9.63733 54.8438 9.375 54.5814 9.375 54.2578V52.6172C9.375 52.2936 9.63733 52.0312 9.96094 52.0312ZM43.2422 52.0312H41.1328C40.8092 52.0312 40.5469 52.2936 40.5469 52.6172V54.2578C40.5469 54.5814 40.8092 54.8438 41.1328 54.8438H43.2422C43.5658 54.8438 43.8281 54.5814 43.8281 54.2578V52.6172C43.8281 52.2936 43.5658 52.0312 43.2422 52.0312ZM16.7578 52.0312H18.8672C19.1908 52.0312 19.4531 52.2936 19.4531 52.6172V54.2578C19.4531 54.5814 19.1908 54.8438 18.8672 54.8438H16.7578C16.4342 54.8438 16.1719 54.5814 16.1719 54.2578V52.6172C16.1719 52.2936 16.4342 52.0312 16.7578 52.0312ZM50.0391 52.0312H47.9297C47.6061 52.0312 47.3438 52.2936 47.3438 52.6172V54.2578C47.3438 54.5814 47.6061 54.8438 47.9297 54.8438H50.0391C50.3627 54.8438 50.625 54.5814 50.625 54.2578V52.6172C50.625 52.2936 50.3627 52.0312 50.0391 52.0312Z" fill="white"/>
</svg>
