<svg width="15" height="15" viewBox="0 0 15 15" fill="none" xmlns="http://www.w3.org/2000/svg">
<g clip-path="url(#clip0_1814_21621)">
<path d="M7.5 0.00012207C3.38058 0.00012207 0 3.38071 0 7.50012C0 8.85968 0.366554 10.1832 1.06167 11.3411L0 15.0001L3.65902 13.9385C4.81693 14.6336 6.14044 15.0001 7.5 15.0001C11.6194 15.0001 15 11.6195 15 7.50012C15 3.38071 11.6194 0.00012207 7.5 0.00012207ZM12.1891 10.6691L11.8402 11.018C11.3465 11.5117 10.2111 11.4726 9.48154 11.3317C7.05574 10.8632 4.22756 8.12188 3.68214 5.74792C3.41206 4.57192 3.56117 3.54951 3.95119 3.15938L4.30012 2.81045C4.49272 2.61796 4.8056 2.61819 4.99798 2.81045L6.39393 4.20651C6.48708 4.29967 6.53812 4.42315 6.53812 4.55533C6.53812 4.68751 6.48708 4.8111 6.39393 4.90392L6.04511 5.25319C5.66059 5.63863 5.66059 6.26473 6.04511 6.64925L8.35029 8.92411C8.73596 9.30978 9.36012 9.31023 9.74636 8.92411L10.0953 8.57529C10.2754 8.39413 10.6119 8.39356 10.7935 8.57529L12.1891 9.9709C12.3786 10.1596 12.3858 10.4723 12.1891 10.6691Z" fill="currentColor"/>
</g>
<defs>
<clipPath id="clip0_1814_21621">
<rect width="15" height="15" fill="white"/>
</clipPath>
</defs>
</svg>
