<svg width="18" height="14" viewBox="0 0 18 14" fill="none" xmlns="http://www.w3.org/2000/svg">
<path fill-rule="evenodd" clip-rule="evenodd" d="M2.86333 1.9541C2.52535 1.9541 2.25 2.22885 2.25 2.56827V11.4316C2.25 11.7712 2.52532 12.0453 2.8625 12.0449H15.1367C15.4753 12.0449 15.75 11.7704 15.75 11.4316V2.56827C15.75 2.22915 15.475 1.9541 15.1358 1.9541H2.86333ZM0.75 2.56827C0.75 1.40102 1.69632 0.454102 2.86333 0.454102H15.1358C16.3034 0.454102 17.25 1.40072 17.25 2.56827V11.4316C17.25 12.5994 16.3031 13.5449 15.1367 13.5449L2.86416 13.5449C2.86389 13.5449 2.86444 13.5449 2.86416 13.5449M2.86416 13.5449C1.69672 13.5458 0.75 12.5984 0.75 11.4316V2.56827" fill="currentColor"/>
<path fill-rule="evenodd" clip-rule="evenodd" d="M17.0073 1.61526C17.2478 1.95249 17.1694 2.42085 16.8322 2.66137L10.3838 7.26054C9.54288 7.85984 8.41419 7.85874 7.57457 7.25833L1.16286 2.67246C0.825947 2.43149 0.748172 1.96303 0.98914 1.62612C1.23011 1.28922 1.69857 1.21144 2.03548 1.45241L8.44709 6.03821C8.44711 6.03822 8.44708 6.03819 8.44709 6.03821C8.76574 6.26604 9.19387 6.26651 9.51287 6.0393C9.51294 6.03926 9.5128 6.03935 9.51287 6.0393L15.9612 1.44016C16.2984 1.19964 16.7668 1.27804 17.0073 1.61526Z" fill="currentColor"/>
</svg>
