<svg width="16" height="16" viewBox="0 0 16 16" fill="none" xmlns="http://www.w3.org/2000/svg">
<g clip-path="url(#clip0_1814_21617)">
<path d="M12.0004 0.00345114L9.92554 0.00012207C7.59455 0.00012207 6.08817 1.54564 6.08817 3.93774V5.75325H4.00203C3.82176 5.75325 3.67578 5.8994 3.67578 6.07967V8.71013C3.67578 8.8904 3.82193 9.03638 4.00203 9.03638H6.08817V15.6739C6.08817 15.8541 6.23414 16.0001 6.41441 16.0001H9.13623C9.3165 16.0001 9.46248 15.854 9.46248 15.6739V9.03638H11.9017C12.0819 9.03638 12.2279 8.8904 12.2279 8.71013L12.2289 6.07967C12.2289 5.99311 12.1944 5.91022 12.1334 5.84896C12.0723 5.78771 11.989 5.75325 11.9025 5.75325H9.46248V4.21422C9.46248 3.4745 9.63875 3.09898 10.6023 3.09898L12 3.09849C12.1801 3.09849 12.3261 2.95234 12.3261 2.77224V0.3297C12.3261 0.149764 12.1803 0.00378404 12.0004 0.00345114Z" fill="currentColor"/>
</g>
<defs>
<clipPath id="clip0_1814_21617">
<rect width="16" height="16" fill="white"/>
</clipPath>
</defs>
</svg>
