<svg width="24" height="24" viewBox="0 0 24 24" fill="none" xmlns="http://www.w3.org/2000/svg">
<path d="M5.126 5.9999C5.34844 5.14166 5.84957 4.38158 6.55074 3.83897C7.2519 3.29636 8.1134 3.00195 9 3.00195C9.8866 3.00195 10.7481 3.29636 11.4493 3.83897C12.1504 4.38158 12.6516 5.14166 12.874 5.9999H21C21.2652 5.9999 21.5196 6.10525 21.7071 6.29279C21.8946 6.48033 22 6.73468 22 6.9999C22 7.26511 21.8946 7.51947 21.7071 7.707C21.5196 7.89454 21.2652 7.9999 21 7.9999H12.874C12.6516 8.85814 12.1504 9.61822 11.4493 10.1608C10.7481 10.7034 9.8866 10.9978 9 10.9978C8.1134 10.9978 7.2519 10.7034 6.55074 10.1608C5.84957 9.61822 5.34844 8.85814 5.126 7.9999H3C2.73478 7.9999 2.48043 7.89454 2.29289 7.707C2.10536 7.51947 2 7.26511 2 6.9999C2 6.73468 2.10536 6.48033 2.29289 6.29279C2.48043 6.10525 2.73478 5.9999 3 5.9999H5.126ZM7 6.9999C7 7.53033 7.21071 8.03904 7.58579 8.41411C7.96086 8.78918 8.46957 8.9999 9 8.9999C9.53043 8.9999 10.0391 8.78918 10.4142 8.41411C10.7893 8.03904 11 7.53033 11 6.9999C11 6.46946 10.7893 5.96076 10.4142 5.58568C10.0391 5.21061 9.53043 4.9999 9 4.9999C8.46957 4.9999 7.96086 5.21061 7.58579 5.58568C7.21071 5.96076 7 6.46946 7 6.9999ZM11 16.9999C10.999 16.0256 11.3537 15.0845 11.9974 14.3532C12.6411 13.6218 13.5295 13.1506 14.496 13.0278C15.4625 12.9051 16.4406 13.1393 17.2467 13.6865C18.0528 14.2337 18.6314 15.0563 18.874 15.9999H21C21.2652 15.9999 21.5196 16.1053 21.7071 16.2928C21.8946 16.4803 22 16.7347 22 16.9999C22 17.2651 21.8946 17.5195 21.7071 17.707C21.5196 17.8945 21.2652 17.9999 21 17.9999H18.874C18.6283 18.9404 18.0486 19.7593 17.2433 20.3037C16.438 20.8481 15.4621 21.0808 14.4978 20.9583C13.5335 20.8359 12.6467 20.3666 12.003 19.6382C11.3594 18.9097 11.0028 17.972 11 16.9999ZM13 16.9999C13 17.5303 13.2107 18.039 13.5858 18.4141C13.9609 18.7892 14.4696 18.9999 15 18.9999C15.5304 18.9999 16.0391 18.7892 16.4142 18.4141C16.7893 18.039 17 17.5303 17 16.9999C17 16.4695 16.7893 15.9608 16.4142 15.5857C16.0391 15.2106 15.5304 14.9999 15 14.9999C14.4696 14.9999 13.9609 15.2106 13.5858 15.5857C13.2107 15.9608 13 16.4695 13 16.9999ZM2 16.9999C2 16.7347 2.10536 16.4803 2.29289 16.2928C2.48043 16.1053 2.73478 15.9999 3 15.9999H8C8.26522 15.9999 8.51957 16.1053 8.70711 16.2928C8.89464 16.4803 9 16.7347 9 16.9999C9 17.2651 8.89464 17.5195 8.70711 17.707C8.51957 17.8945 8.26522 17.9999 8 17.9999H3C2.73478 17.9999 2.48043 17.8945 2.29289 17.707C2.10536 17.5195 2 17.2651 2 16.9999Z" fill="black"/>
</svg>
