<svg width="26" height="26" viewBox="0 0 26 26" fill="none" xmlns="http://www.w3.org/2000/svg">
<g clip-path="url(#clip0_1814_23986)">
<path d="M0.760587 19.8555H20.6677C20.8463 19.8555 21.0188 19.7931 21.1557 19.6792C21.3469 19.5191 25.7086 15.7669 25.9745 7.66748H4.59464C4.3297 15.0196 0.312829 18.4753 0.271085 18.5098C0.0263588 18.7166 -0.0636804 19.0544 0.0464183 19.3549C0.155755 19.6547 0.440702 19.8555 0.760587 19.8555Z" fill="#B7BCD1"/>
<path d="M25.2377 3.09699H21.429V2.33524C21.429 1.90866 21.0938 1.57349 20.6672 1.57349C20.2406 1.57349 19.9055 1.90866 19.9055 2.33524V3.09699H16.0459V2.33524C16.0459 1.90866 15.7108 1.57349 15.2842 1.57349C14.8576 1.57349 14.5224 1.90866 14.5224 2.33524V3.09699H10.7137V2.33524C10.7137 1.90866 10.3785 1.57349 9.9519 1.57349C9.52532 1.57349 9.19015 1.90866 9.19015 2.33524V3.09699H5.38138C4.9548 3.09699 4.61963 3.43216 4.61963 3.85875V6.144H25.9995V3.85875C25.9995 3.43216 25.6643 3.09699 25.2377 3.09699Z" fill="#B7BCD1"/>
<path d="M22.1344 20.8471C21.7208 21.1915 21.2016 21.379 20.6682 21.379H4.62061V23.6643C4.62061 24.0854 4.96131 24.4261 5.38236 24.4261H25.2387C25.6598 24.4261 26.0005 24.0854 26.0005 23.6643V15.1252C24.5318 18.7284 22.4824 20.5559 22.1344 20.8471Z" fill="#B7BCD1"/>
</g>
<defs>
<clipPath id="clip0_1814_23986">
<rect width="26" height="26" fill="white"/>
</clipPath>
</defs>
</svg>
