<svg width="22" height="22" viewBox="0 0 22 22" fill="none" xmlns="http://www.w3.org/2000/svg">
<path d="M9.06728 18.1189C4.07186 18.1189 0.0078125 14.0549 0.0078125 9.05947C0.0078125 4.06405 4.07186 0 9.06728 0C14.0627 0 18.1268 4.06405 18.1268 9.05947C18.1268 14.0549 14.0627 18.1189 9.06728 18.1189ZM9.06728 1.71744C5.01886 1.71744 1.72525 5.01105 1.72525 9.05947C1.72525 13.1079 5.01886 16.4015 9.06728 16.4015C13.1157 16.4015 16.4093 13.1079 16.4093 9.05947C16.4093 5.01105 13.1157 1.71744 9.06728 1.71744ZM21.7395 21.7485C22.0748 21.4131 22.0748 20.8694 21.7395 20.534L17.8967 16.6913C17.5614 16.3559 17.0176 16.3559 16.6823 16.6913C16.347 17.0266 16.347 17.5704 16.6823 17.9057L20.5251 21.7485C20.6927 21.9161 20.9125 22 21.1323 22C21.3521 22 21.5718 21.9161 21.7395 21.7485Z" fill="#9CA1BB"/>
</svg>
