<svg width="24" height="24" viewBox="0 0 24 24" fill="none" xmlns="http://www.w3.org/2000/svg">
<path d="M4.56292 22.6014C3.47022 22.6014 2.44347 22.1756 1.67125 21.4035C0.0770313 19.8091 0.0770313 17.2147 1.67125 15.6205L14.3129 2.97825C15.3313 1.95871 16.6869 1.39795 18.128 1.39795C19.5694 1.39795 20.9249 1.95871 21.9434 2.97825C22.9629 3.9975 23.5243 5.35223 23.5243 6.79336C23.5243 8.23476 22.9635 9.58945 21.9443 10.6081L11.9926 20.5589C11.6938 20.8575 11.2099 20.8575 10.9113 20.5589C10.6125 20.2601 10.6125 19.7763 10.9113 19.4775L20.8628 9.52668C21.5932 8.79637 21.9949 7.82554 21.9949 6.79336C21.9949 5.76136 21.5924 4.78992 20.8621 4.05951C20.1317 3.3292 19.1608 2.92729 18.128 2.92729C17.0954 2.92729 16.1246 3.3292 15.3941 4.05951L2.75266 16.7017C1.75502 17.7002 1.75502 19.3238 2.75266 20.3221C3.72039 21.2885 5.40527 21.2885 6.37295 20.3221L14.8616 11.8328C15.0924 11.602 15.2246 11.2825 15.2246 10.9568C15.2246 10.6266 15.0955 10.3153 14.8609 10.0807C14.3785 9.59836 13.5922 9.5969 13.1098 10.0807L7.31242 15.8788C7.01383 16.1776 6.52975 16.1776 6.23116 15.8788C5.93237 15.5801 5.93237 15.0961 6.23116 14.7975L12.0283 8.99953C13.1067 7.92122 14.8624 7.92122 15.9423 8.99953C16.4658 9.52293 16.754 10.2183 16.754 10.9568C16.754 11.6856 16.4583 12.3988 15.943 12.9141L7.45441 21.4035C6.68219 22.1756 5.65539 22.6014 4.56292 22.6014Z" fill="#636B87"/>
</svg>
