<svg width="30" height="30" viewBox="0 0 30 30" fill="none" xmlns="http://www.w3.org/2000/svg">
<path fill-rule="evenodd" clip-rule="evenodd" d="M20 14.5L19.295 13.795L15.5 17.585V8H14.5V17.585L10.705 13.795L10 14.5L15 19.5L20 14.5ZM20 19V21H10V19H9V21C9 21.5523 9.44772 22 10 22H20C20.5523 22 21 21.5523 21 21V19H20Z" fill="currentColor"/>
<path fill-rule="evenodd" clip-rule="evenodd" d="M20 14.5L19.295 13.795L15.5 17.585V8H14.5V17.585L10.705 13.795L10 14.5L15 19.5L20 14.5ZM20 19V21H10V19H9V21C9 21.5523 9.44772 22 10 22H20C20.5523 22 21 21.5523 21 21V19H20Z" fill="currentColor"/>
</svg>
