<svg width="25" height="25" viewBox="0 0 25 25" fill="none" xmlns="http://www.w3.org/2000/svg">
<path d="M19.873 11.7676C17.0463 11.7676 14.7461 14.0678 14.7461 16.8945C14.7461 17.9738 15.0787 19.0067 15.7167 19.8929L19.2873 24.7067C19.4253 24.8913 19.6427 25 19.873 25H19.8738C20.1041 25 20.3215 24.8906 20.4596 24.706L24.1746 19.6811C24.7146 18.8515 25 17.888 25 16.8945C25 14.0678 22.6998 11.7676 19.873 11.7676ZM19.873 19.0918C18.6614 19.0918 17.6758 18.1062 17.6758 16.8945C17.6758 15.6829 18.6614 14.6973 19.873 14.6973C21.0847 14.6973 22.0703 15.6829 22.0703 16.8945C22.0703 18.1062 21.0847 19.0918 19.873 19.0918Z" fill="white"/>
<path d="M1.10938 0.104709C0.882617 -0.0304957 0.601562 -0.0347437 0.37124 0.095432C0.141602 0.225559 0 0.468772 0 0.732687V15.4299C0 15.6874 0.135205 15.9256 0.355469 16.0579L7.37305 20.2391V3.83376L1.10938 0.104709Z" fill="white"/>
<path d="M23.1797 4.49888L16.2109 0.317383V11.4185C17.2593 10.7151 18.5185 10.3026 19.873 10.3026C21.2276 10.3026 22.4868 10.7151 23.5352 11.4185V5.12686C23.5352 4.86938 23.4 4.6312 23.1797 4.49888Z" fill="white"/>
<path d="M14.7461 0.317383L8.83789 3.8333V20.2388L13.3341 17.5704C13.3109 17.3459 13.2812 17.1224 13.2812 16.8944C13.2812 15.3409 13.8438 13.9302 14.7461 12.8023V0.317383Z" fill="white"/>
</svg>
