<svg width="60" height="60" viewBox="0 0 60 60" fill="none" xmlns="http://www.w3.org/2000/svg">
<g clip-path="url(#clip0_1814_25790)">
<path d="M14.7656 14.1801C14.7656 16.7647 16.8684 18.8675 19.453 18.8675C22.0376 18.8675 24.1404 16.7647 24.1404 14.1801C24.1404 11.5954 22.0376 9.49268 19.453 9.49268C16.8684 9.49268 14.7656 11.5956 14.7656 14.1801ZM21.7967 14.1801C21.7967 15.4724 20.7453 16.5238 19.453 16.5238C18.1607 16.5238 17.1093 15.4724 17.1093 14.1801C17.1093 12.8878 18.1607 11.8364 19.453 11.8364C20.7453 11.8364 21.7967 12.8878 21.7967 14.1801Z" fill="currentColor"/>
<path d="M7.73438 14.1799C7.73438 20.6416 12.9912 25.8984 19.4529 25.8984C24.1293 25.8984 28.3459 23.1053 30.1963 18.8673H51.7959C51.9779 18.8673 52.1573 18.825 52.32 18.7436L59.3511 15.228C59.6881 15.0595 59.9235 14.7394 59.9838 14.3675C60.044 13.9957 59.922 13.6177 59.6556 13.3512L52.6245 6.32009C52.1668 5.8626 51.425 5.8626 50.9672 6.32009L48.2804 9.00714L45.5934 6.32021C45.1357 5.86272 44.3939 5.86272 43.9361 6.32021L41.2493 9.00714L38.5623 6.32021C38.1046 5.86272 37.3628 5.86272 36.905 6.32021L33.7327 9.49253H30.1962C28.3458 5.25453 24.1293 2.46143 19.4528 2.46143C12.9912 2.46143 7.73438 7.71834 7.73438 14.1799ZM28.2947 11.055C28.4602 11.5232 28.9028 11.8362 29.3995 11.8362H34.2182C34.529 11.8362 34.827 11.7127 35.0468 11.493L37.7337 8.80617L40.4207 11.4931C40.8784 11.9506 41.6202 11.9506 42.078 11.4931L44.7648 8.80617L47.4518 11.4931C47.9095 11.9506 48.6513 11.9506 49.1091 11.4931L51.7959 8.80617L56.8487 13.859L51.5193 16.5236H29.3995C28.9029 16.5236 28.4602 16.8366 28.2947 17.3049C26.973 21.0431 23.4197 23.5547 19.4529 23.5547C14.2836 23.5547 10.0781 19.3492 10.0781 14.1799C10.0781 9.01066 14.2836 4.80513 19.4529 4.80513C23.4198 4.80513 26.973 7.31675 28.2947 11.055Z" fill="currentColor"/>
<path d="M45.9365 48.3979C46.5837 48.3979 47.1084 47.8733 47.1084 47.2261C47.1084 46.5789 46.5837 46.0542 45.9365 46.0542C45.2893 46.0542 44.7646 46.5789 44.7646 47.2261C44.7646 47.8733 45.2893 48.3979 45.9365 48.3979Z" fill="currentColor"/>
<path d="M48.5698 34.9694L41.8619 39.4209C41.0473 37.9875 39.5049 37.0309 37.7851 37.0309H32.0806C31.5003 37.0309 30.9502 36.8283 30.5317 36.4602L29.706 35.7342C25.2934 31.8499 18.6372 31.8495 14.2234 35.7339L12.449 37.2947L9.3748 39.4679V38.7888C9.3748 38.1417 8.85005 37.6169 8.20295 37.6169H1.17185C0.524754 37.6169 0 38.1417 0 38.7888V56.3665C0 57.0136 0.524754 57.5384 1.17185 57.5384H8.20295C8.85005 57.5384 9.3748 57.0136 9.3748 56.3665V53.4369H13.0593L33.2832 57.5153C33.3601 57.5307 33.4376 57.5384 33.5149 57.5384C33.7626 57.5384 34.0064 57.4597 34.2093 57.3106L42.3862 51.2959C42.9074 50.9125 43.0192 50.1789 42.6358 49.6576C42.2523 49.1363 41.5189 49.0246 40.9974 49.408L33.2384 55.1153L13.408 51.1164C13.3318 51.101 13.2541 51.0933 13.1763 51.0933H9.3748V42.3382C14.3809 38.7965 13.5213 39.5194 15.7716 37.4936C19.3027 34.3861 24.6274 34.386 28.158 37.494L28.9839 38.2202C29.8304 38.9648 30.9299 39.3748 32.0806 39.3748H37.7852C39.073 39.3748 40.1289 40.4401 40.1289 41.7314C40.1289 43.0166 39.0776 44.0622 37.7852 44.0622H23.723C23.076 44.0622 22.5512 44.587 22.5512 45.2341C22.5512 45.8812 23.076 46.4059 23.723 46.4059H37.7852C40.3366 46.4059 42.417 44.3622 42.4702 41.8303L49.8622 36.9248C52.1855 35.395 55.1734 35.7109 57.1154 37.5523L49.4904 43.1609C48.9691 43.5444 48.8573 44.2779 49.2408 44.7993C49.6242 45.3205 50.3576 45.4325 50.8791 45.0489L59.5226 38.691C60.0379 38.3119 60.154 37.5897 59.7834 37.0681C57.2091 33.4461 52.2852 32.5231 48.5698 34.9694ZM7.0311 55.1945H2.3437V39.9605H7.0311V55.1945Z" fill="currentColor"/>
</g>
<defs>
<clipPath id="clip0_1814_25790">
<rect width="60" height="60" fill="white"/>
</clipPath>
</defs>
</svg>
