<svg width="26" height="26" viewBox="0 0 26 26" fill="none" xmlns="http://www.w3.org/2000/svg">
<g clip-path="url(#clip0_1814_23977)">
<path d="M20.6172 9.44507C20.8975 9.44507 21.125 9.21754 21.125 8.93726C21.125 8.65697 20.8975 8.42944 20.6172 8.42944C20.3369 8.42944 20.1094 8.65697 20.1094 8.93726C20.1094 9.21754 20.3369 9.44507 20.6172 9.44507Z" fill="#116ACC"/>
<path d="M20.2204 22.4579C20.4884 22.793 21.0291 22.6648 21.1148 22.2411L25.481 0.612666C25.5131 0.459529 25.4736 0.299648 25.3717 0.17924C25.3715 0.17924 25.3715 0.17924 25.3713 0.179042V0.178844C25.2362 0.019954 25.0555 0.00924231 25.0503 0.00408481C24.974 -0.00384975 24.9045 -0.00146938 24.8228 0.0261033L1.16807 7.43719C0.708661 7.5812 0.690015 8.22787 1.14149 8.39727L8.88444 11.3009L7.92654 18.0062C7.92614 18.0088 7.92634 18.0112 7.92614 18.0136C7.87516 18.4137 8.29133 18.7148 8.65652 18.5323L14.6731 15.5237L20.2204 22.4579ZM20.3342 20.9746C20.0081 20.5667 13.4915 12.4211 13.1846 12.0375L24.1771 1.93853L20.3342 20.9746ZM2.88095 7.96484L21.8047 2.03593L9.37837 10.4013L2.88095 7.96484ZM9.91574 11.264L19.6816 4.68945L12.1483 11.6104C12.1463 11.6122 12.1448 11.6141 12.1428 11.6159C12.1362 11.6221 12.1301 11.6286 12.1237 11.6352C12.118 11.6413 12.1122 11.6475 12.1069 11.6538C12.1021 11.6594 12.0975 11.6649 12.0932 11.6707C12.0866 11.6788 12.0805 11.6869 12.0747 11.6955C12.0729 11.6981 12.071 11.7002 12.0694 11.7028L9.24864 15.9337L9.91574 11.264ZM9.91256 16.7686L12.5292 12.8438L14.0243 14.7126L9.91256 16.7686Z" fill="#116ACC"/>
<path d="M19.1762 18.0494C19.4535 18.0909 19.7122 17.9 19.7539 17.6225L20.7455 11.0093C20.7871 10.732 20.5961 10.4733 20.3186 10.4316C20.0411 10.3904 19.7828 10.5812 19.7412 10.8585L18.7494 17.4718C18.7077 17.7493 18.8989 18.0077 19.1762 18.0494Z" fill="#116ACC"/>
<path d="M0.656586 25.8513C0.85495 26.0496 1.1763 26.0494 1.37466 25.8513L4.72643 22.4997C4.92459 22.3013 4.92459 21.9798 4.72643 21.7814C4.52806 21.5833 4.20651 21.5833 4.00815 21.7814L0.656586 25.133C0.458221 25.3314 0.458221 25.6529 0.656586 25.8513Z" fill="#116ACC"/>
<path d="M9.08627 21.7814L5.73471 25.1332C5.53635 25.3314 5.53635 25.6529 5.73471 25.8513C5.93307 26.0496 6.25462 26.0496 6.45299 25.8513L9.80455 22.4997C10.0029 22.3013 10.0029 21.9798 9.80455 21.7814C9.60619 21.5833 9.28464 21.5833 9.08627 21.7814Z" fill="#116ACC"/>
<path d="M0.656586 20.7731C0.85495 20.9712 1.1763 20.9712 1.37466 20.7731L4.72643 17.4215C4.92459 17.2231 4.92459 16.9016 4.72643 16.7032C4.52806 16.5049 4.20651 16.5049 4.00815 16.7032L0.656586 20.0548C0.458221 20.2531 0.458221 20.5747 0.656586 20.7731Z" fill="#116ACC"/>
</g>
<defs>
<clipPath id="clip0_1814_23977">
<rect width="26" height="26" fill="white"/>
</clipPath>
</defs>
</svg>
