<svg width="60" height="60" viewBox="0 0 60 60" fill="none" xmlns="http://www.w3.org/2000/svg">
<g clip-path="url(#clip0_1814_21923)">
<path d="M33.5159 46.2921C32.8689 46.2921 32.3438 46.8172 32.3438 47.4642C32.3438 48.1112 32.8689 48.6363 33.5159 48.6363C34.1629 48.6363 34.688 48.1112 34.688 47.4642C34.688 46.8172 34.1629 46.2921 33.5159 46.2921Z" fill="#2D3142"/>
<path d="M45.7066 46.2921H38.2053C37.558 46.2921 37.0332 46.8169 37.0332 47.4642C37.0332 48.1116 37.558 48.6363 38.2053 48.6363H45.7066C46.3539 48.6363 46.8787 48.1116 46.8787 47.4642C46.8787 46.8169 46.3539 46.2921 45.7066 46.2921Z" fill="#2D3142"/>
<path d="M59.1122 28.8256L52.3725 18.1286L53.4067 13.9926C53.5217 13.5327 53.3484 13.0489 52.9675 12.7666C52.5866 12.4843 52.0732 12.4593 51.6667 12.703L49.7128 13.875L43.8577 4.50742C42.7799 2.78266 40.9223 1.75293 38.888 1.75293H21.1122C19.078 1.75293 17.2201 2.78277 16.1426 4.50731L9.78284 14.6828L3.85152 16.1657C3.39155 16.2807 3.0462 16.6614 2.97648 17.1303C2.90675 17.5993 3.12624 18.0639 3.53288 18.3079L6.42671 20.0438L0.885617 28.829C-0.188876 30.5475 -0.293407 32.7419 0.614562 34.559L8.98081 51.1791C9.96859 53.1531 11.9772 54.3795 14.2227 54.3795H29.1503L32.689 57.9056C33.0263 58.2416 33.5303 58.3386 33.9659 58.1576C34.4034 57.976 34.6885 57.5488 34.6885 57.0752V54.3794H45.7776C48.023 54.3794 50.0316 53.1531 51.0182 51.1816L59.3873 34.5558C60.2934 32.742 60.1888 30.5474 59.1122 28.8256ZM38.8879 4.09715C40.1084 4.09715 41.2231 4.71484 41.8697 5.74973L48.335 16.0934C48.673 16.6343 49.3854 16.805 49.9318 16.4773L50.4462 16.1689L47.822 26.6648C43.1141 25.4876 38.7483 24.396 37.3273 24.0406L39.13 22.9588C39.401 22.7962 39.5951 22.5306 39.6677 22.2229C39.7403 21.9152 39.6853 21.5909 39.5154 21.3242L28.5416 4.09715H38.8879ZM33.9658 34.4263C33.5284 34.2448 33.0245 34.3443 32.689 34.6784L29.2678 38.0873H11.8927L18.6732 27.3914L21.5052 29.091C21.9117 29.335 22.4251 29.3099 22.8061 29.0277C23.1871 28.7455 23.3604 28.2616 23.2456 27.8017L21.885 22.3599L29.9284 10.6371L36.8916 21.568L33.695 23.4862C33.2884 23.73 33.0689 24.1948 33.1387 24.6638C33.2084 25.1328 33.5539 25.5134 34.0137 25.6282L40.3082 27.2021L46.8396 38.0872H34.6884V35.5086C34.6884 35.0351 34.4032 34.608 33.9658 34.4263ZM18.1303 5.74949C18.7769 4.71473 19.8914 4.09691 21.1119 4.09691H25.7621L28.5596 8.48852L21.1255 19.3231L19.6506 13.4238C19.5753 13.1222 19.3832 12.8629 19.1165 12.703C18.8501 12.5432 18.5309 12.4956 18.2292 12.5711L13.0591 13.8638L18.1303 5.74949ZM2.70987 33.5082C2.16601 32.4195 2.22859 31.1028 2.87077 30.0757L9.04878 20.2806C9.39917 19.725 9.22468 18.9888 8.6603 18.6502L7.16558 17.7537C8.468 17.428 16.017 15.5406 17.6608 15.1296L20.285 25.6251L18.8987 24.7933C18.3533 24.4661 17.6462 24.6336 17.3058 25.1707L6.83054 41.6941L2.70987 33.5082ZM14.2226 52.0352C12.8704 52.0352 11.6651 51.3051 11.0758 50.1275L8.05913 44.1346L10.4065 40.4315H26.9152L21.867 45.4618C21.6463 45.6816 21.5222 45.9804 21.5222 46.2919C21.5222 46.6035 21.6463 46.9022 21.867 47.1221L26.7975 52.035H14.2226V52.0352ZM48.9229 50.13C48.3348 51.3052 47.1294 52.0353 45.7773 52.0353H33.5162C32.8689 52.0353 32.3441 52.56 32.3441 53.2074V54.2529C31.2913 53.2039 25.052 46.9868 24.3549 46.2921L32.3441 38.3312V39.2596C32.3441 39.907 32.8689 40.4317 33.5162 40.4317H53.805L48.9229 50.13ZM57.2916 33.505L54.9851 38.0874H49.5735L43.5246 28.0064L48.3905 29.2231C49.0143 29.3791 49.654 29.0021 49.812 28.3703L51.5855 21.2767L57.1267 30.0718C57.7712 31.1028 57.8339 32.4195 57.2916 33.505Z" fill="#2D3142"/>
</g>
<defs>
<clipPath id="clip0_1814_21923">
<rect width="60" height="60" fill="white"/>
</clipPath>
</defs>
</svg>
