<svg width="24" height="24" viewBox="0 0 24 24" fill="none" xmlns="http://www.w3.org/2000/svg">
<path fill-rule="evenodd" clip-rule="evenodd" d="M12 0.5C12.8284 0.5 13.5 1.17157 13.5 2V22C13.5 22.8284 12.8284 23.5 12 23.5C11.1716 23.5 10.5 22.8284 10.5 22V2C10.5 1.17157 11.1716 0.5 12 0.5Z" fill="white"/>
<path fill-rule="evenodd" clip-rule="evenodd" d="M23.5 12C23.5 12.8284 22.8284 13.5 22 13.5L2 13.5C1.17157 13.5 0.5 12.8284 0.5 12C0.5 11.1716 1.17157 10.5 2 10.5L22 10.5C22.8284 10.5 23.5 11.1716 23.5 12Z" fill="white"/>
</svg>
