<svg width="16" height="16" viewBox="0 0 16 16" fill="none" xmlns="http://www.w3.org/2000/svg">
<g clip-path="url(#clip0_1814_21610)">
<path d="M11 0.00012207H5C2.239 0.00012207 0 2.23912 0 5.00012V11.0001C0 13.7611 2.239 16.0001 5 16.0001H11C13.761 16.0001 16 13.7611 16 11.0001V5.00012C16 2.23912 13.761 0.00012207 11 0.00012207ZM14.5 11.0001C14.5 12.9301 12.93 14.5001 11 14.5001H5C3.07 14.5001 1.5 12.9301 1.5 11.0001V5.00012C1.5 3.07012 3.07 1.50012 5 1.50012H11C12.93 1.50012 14.5 3.07012 14.5 5.00012V11.0001Z" fill="currentColor"/>
<path d="M8 4.00012C5.791 4.00012 4 5.79112 4 8.00012C4 10.2091 5.791 12.0001 8 12.0001C10.209 12.0001 12 10.2091 12 8.00012C12 5.79112 10.209 4.00012 8 4.00012ZM8 10.5001C6.622 10.5001 5.5 9.37812 5.5 8.00012C5.5 6.62112 6.622 5.50012 8 5.50012C9.378 5.50012 10.5 6.62112 10.5 8.00012C10.5 9.37812 9.378 10.5001 8 10.5001Z" fill="currentColor"/>
<path d="M12.2986 4.23311C12.593 4.23311 12.8316 3.99448 12.8316 3.70011C12.8316 3.40575 12.593 3.16711 12.2986 3.16711C12.0043 3.16711 11.7656 3.40575 11.7656 3.70011C11.7656 3.99448 12.0043 4.23311 12.2986 4.23311Z" fill="currentColor"/>
</g>
<defs>
<clipPath id="clip0_1814_21610">
<rect width="16" height="16" fill="white"/>
</clipPath>
</defs>
</svg>
