<svg width="20" height="20" viewBox="0 0 20 20" fill="none" xmlns="http://www.w3.org/2000/svg">
<rect width="20" height="20" rx="10" fill="#91CEFF"/>
<path d="M12.8802 14.0288L12.7537 14.5428C12.3743 14.6917 12.0711 14.805 11.8454 14.883C11.6194 14.9611 11.3569 15 11.0577 15C10.5983 15 10.241 14.8881 9.98615 14.6659C9.73129 14.4428 9.60383 14.1601 9.60383 13.8171C9.60383 13.6843 9.61308 13.5478 9.6323 13.4086C9.6517 13.2693 9.68253 13.1124 9.72472 12.9371L10.199 11.2683C10.2412 11.1086 10.277 10.9572 10.3057 10.814C10.3349 10.6717 10.3489 10.5408 10.3489 10.4229C10.3489 10.2098 10.3045 10.0608 10.2162 9.97695C10.1278 9.89338 9.95921 9.85095 9.7089 9.85095C9.5863 9.85095 9.46029 9.87047 9.33185 9.90822C9.20284 9.94614 9.09258 9.98276 9 10.0168L9.12682 9.50233C9.43749 9.37658 9.73446 9.2689 10.0185 9.17953C10.3026 9.08991 10.571 9.04506 10.8249 9.04506C11.2811 9.04506 11.6332 9.15468 11.8804 9.37392C12.1276 9.59332 12.2512 9.87773 12.2512 10.2282C12.2512 10.3007 12.2431 10.4285 12.2256 10.6111C12.2086 10.7941 12.1769 10.9618 12.1306 11.1144L11.6584 12.7764C11.6197 12.9099 11.5849 13.0625 11.5546 13.2342C11.5234 13.4048 11.5084 13.5352 11.5084 13.6226C11.5084 13.8433 11.5579 13.994 11.6572 14.0741C11.7571 14.1542 11.9293 14.194 12.1739 14.194C12.2887 14.194 12.4193 14.1738 12.5645 14.134C12.7092 14.0942 12.8148 14.0593 12.8802 14.0288ZM13 7.05102C13 7.3406 12.8902 7.58791 12.6696 7.79126C12.4496 7.99533 12.1844 8.09745 11.8742 8.09745C11.5631 8.09745 11.2972 7.99533 11.0747 7.79126C10.8525 7.58783 10.7412 7.3406 10.7412 7.05102C10.7412 6.76201 10.8525 6.5143 11.0747 6.30837C11.2968 6.10276 11.5631 6 11.8742 6C12.1843 6 12.4496 6.10301 12.6696 6.30837C12.8904 6.5143 13 6.76209 13 7.05102Z" fill="white"/>
</svg>
