<svg width="26" height="26" viewBox="0 0 26 26" fill="none" xmlns="http://www.w3.org/2000/svg">
<path d="M23.8675 13.9787C23.5075 13.7609 23.0392 13.8764 22.8215 14.2363C22.6038 14.5962 22.7191 15.0645 23.079 15.2822C23.9801 15.8273 24.4763 16.4206 24.4763 16.953C24.4763 17.5162 23.9284 18.1399 22.9336 18.7092C21.782 19.3682 20.138 19.8997 18.1794 20.2463C17.7652 20.3196 17.4888 20.7148 17.5621 21.1291C17.6274 21.4985 17.9487 21.7582 18.3113 21.7582C18.3553 21.7582 18.4 21.7543 18.4449 21.7464C23.1755 20.9094 25.9997 19.1175 25.9997 16.953C25.9997 15.5607 24.8403 14.5671 23.8675 13.9787Z" fill="#9CA1BB"/>
<path d="M13.457 20.8307L11.4258 19.3073C11.0893 19.0549 10.6118 19.1231 10.3594 19.4596C10.1069 19.7962 10.1752 20.2736 10.5117 20.5261L10.5979 20.5907C8.33711 20.423 6.26549 20.0183 4.60845 19.4107C2.67673 18.7025 1.52344 17.7837 1.52344 16.9531C1.52344 16.4209 2.01967 15.8275 2.92084 15.2824C3.28077 15.0647 3.39605 14.5964 3.17835 14.2365C2.96055 13.8765 2.49239 13.7612 2.1323 13.9789C1.15959 14.5673 0 15.5609 0 16.9531C0 17.9951 0.665895 18.791 1.22454 19.2753C1.911 19.8703 2.87305 20.3971 4.08403 20.841C5.94826 21.5246 8.28151 21.9688 10.8081 22.1319L10.5117 22.3542C10.1752 22.6066 10.1069 23.084 10.3594 23.4206C10.509 23.6201 10.7377 23.7253 10.9694 23.7253C11.1284 23.7253 11.2888 23.6756 11.4258 23.5729L13.457 22.0495C13.6488 21.9056 13.7617 21.6798 13.7617 21.4401C13.7617 21.2004 13.6488 20.9746 13.457 20.8307Z" fill="#9CA1BB"/>
<path d="M6.73318 14.6658L12.2396 17.7534V10.0945L6.34399 6.78864V14.0014C6.34399 14.2769 6.49283 14.531 6.73318 14.6658Z" fill="#9CA1BB"/>
<path d="M18.897 5.46904L13.3739 2.3721C13.1425 2.2423 12.8602 2.2423 12.6288 2.3721L7.10571 5.46904L13.0014 8.77485L18.897 5.46904Z" fill="#9CA1BB"/>
<path d="M19.6574 14.0014V6.7886L13.7617 10.0945V17.7535L19.2682 14.6659C19.5085 14.531 19.6574 14.277 19.6574 14.0014Z" fill="#9CA1BB"/>
</svg>
