<svg width="16" height="20" viewBox="0 0 16 20" fill="none" xmlns="http://www.w3.org/2000/svg">
<path d="M8 0C3.8 0 0.382812 3.41719 0.382812 7.61719C0.382812 9.2793 0.907813 10.8586 1.90234 12.1836L7.53047 19.7637C7.54453 19.7821 7.56602 19.7891 7.58164 19.8055C7.86289 20.1067 8.26875 20.0309 8.46914 19.7637C10.0898 17.6012 13.0605 13.5625 14.2027 12.0391L14.2035 12.0371L14.2105 12.0277C15.1309 10.7348 15.6172 9.20977 15.6172 7.61719C15.6172 3.41719 12.2 0 8 0ZM8 11.7266C5.73867 11.7266 3.89062 9.87852 3.89062 7.61719C3.89062 5.35586 5.73867 3.50781 8 3.50781C10.2613 3.50781 12.1094 5.35586 12.1094 7.61719C12.1094 9.87852 10.2613 11.7266 8 11.7266Z" fill="currentColor"/>
</svg>
