<svg width="30" height="30" viewBox="0 0 30 30" fill="none" xmlns="http://www.w3.org/2000/svg">
<circle cx="15" cy="15" r="15" transform="rotate(90 15 15)" fill="white"/>
<path d="M9.46793 12.6905L9.46784 12.6904C9.32933 12.5531 9.32945 12.3326 9.46776 12.1956L9.46793 12.1954C9.60857 12.056 9.83852 12.056 9.97912 12.1954L9.97913 12.1954L14.6484 16.8253L15.0004 17.1744L15.3525 16.8253L20.0215 12.1956C20.0215 12.1956 20.0216 12.1956 20.0216 12.1955C20.1624 12.056 20.3923 12.0562 20.5329 12.1955L20.533 12.1956C20.6713 12.3327 20.6714 12.5533 20.5329 12.6906L20.5329 12.6906L15.256 17.923C15.256 17.923 15.2559 17.9231 15.2559 17.9231C15.1859 17.9924 15.0945 18.0276 15.0005 18.0276C14.9064 18.0276 14.8148 17.9923 14.7448 17.9229L9.46793 12.6905Z" fill="white" stroke="#2D3142"/>
</svg>
