<svg width="26" height="26" viewBox="0 0 26 26" fill="none" xmlns="http://www.w3.org/2000/svg">
<path d="M22.75 5.6875H17.875V4.875C17.875 4.22853 17.6182 3.60855 17.1611 3.15143C16.704 2.69431 16.084 2.4375 15.4375 2.4375H10.5625C9.91603 2.4375 9.29605 2.69431 8.83893 3.15143C8.38181 3.60855 8.125 4.22853 8.125 4.875V5.6875H3.25C2.60413 5.68943 1.98526 5.94686 1.52856 6.40356C1.07186 6.86026 0.814429 7.47913 0.8125 8.125V10.5625C0.834933 11.5397 1.19038 12.4799 1.82 13.2275C2.81424 14.3899 4.18125 15.1711 5.6875 15.4375V13.1137C5.6875 12.4673 5.94431 11.8473 6.40143 11.3902C6.85855 10.9331 7.47853 10.6763 8.125 10.6763C8.77147 10.6763 9.39145 10.9331 9.84857 11.3902C10.3057 11.8473 10.5625 12.4673 10.5625 13.1137V15.5512H15.4375V13.1137C15.4375 12.4673 15.6943 11.8473 16.1514 11.3902C16.6085 10.9331 17.2285 10.6763 17.875 10.6763C18.5215 10.6763 19.1415 10.9331 19.5986 11.3902C20.0557 11.8473 20.3125 12.4673 20.3125 13.1137V15.4375C21.8 15.177 23.1519 14.4107 24.1394 13.2681C24.8114 12.527 25.1849 11.563 25.1875 10.5625V8.125C25.1856 7.47913 24.9281 6.86026 24.4714 6.40356C24.0147 5.94686 23.3959 5.68943 22.75 5.6875ZM9.75 4.875C9.75 4.65951 9.8356 4.45285 9.98798 4.30048C10.1403 4.1481 10.347 4.0625 10.5625 4.0625H15.4375C15.653 4.0625 15.8597 4.1481 16.012 4.30048C16.1644 4.45285 16.25 4.65951 16.25 4.875V5.6875H9.75V4.875Z" fill="#B7BCD1"/>
<path d="M20.1906 17.095C20.0392 17.5824 19.7379 18.0096 19.3296 18.3159C18.9213 18.6221 18.4269 18.7918 17.9166 18.8008C17.4063 18.8098 16.9061 18.6577 16.4873 18.366C16.0685 18.0743 15.7523 17.658 15.5837 17.1763H10.4163C10.2477 17.6574 9.93197 18.0734 9.51379 18.365C9.09561 18.6567 8.59622 18.8093 8.08644 18.8012C7.57666 18.7931 7.08236 18.6247 6.67365 18.3199C6.26493 18.0152 5.96255 17.5894 5.80938 17.1031C4.27135 16.9069 2.82048 16.2786 1.625 15.2913V21.125C1.62693 21.7709 1.88436 22.3897 2.34106 22.8465C2.79776 23.3032 3.41663 23.5606 4.0625 23.5625H21.9375C22.5834 23.5606 23.2022 23.3032 23.6589 22.8465C24.1156 22.3897 24.3731 21.7709 24.375 21.125V15.2913C23.1842 16.2797 21.7347 16.9057 20.1987 17.095H20.1906Z" fill="#B7BCD1"/>
<path d="M8.9375 16.3613V13.1113C8.9375 12.8958 8.8519 12.6892 8.69952 12.5368C8.54715 12.3844 8.34049 12.2988 8.125 12.2988C7.90951 12.2988 7.70285 12.3844 7.55048 12.5368C7.3981 12.6892 7.3125 12.8958 7.3125 13.1113V16.3613C7.3125 16.5768 7.3981 16.7835 7.55048 16.9358C7.70285 17.0882 7.90951 17.1738 8.125 17.1738C8.34049 17.1738 8.54715 17.0882 8.69952 16.9358C8.8519 16.7835 8.9375 16.5768 8.9375 16.3613Z" fill="#B7BCD1"/>
<path d="M18.6875 16.3613V13.1113C18.6875 12.8958 18.6019 12.6892 18.4495 12.5368C18.2972 12.3844 18.0905 12.2988 17.875 12.2988C17.6595 12.2988 17.4528 12.3844 17.3005 12.5368C17.1481 12.6892 17.0625 12.8958 17.0625 13.1113V16.3613C17.0625 16.5768 17.1481 16.7835 17.3005 16.9358C17.4528 17.0882 17.6595 17.1738 17.875 17.1738C18.0905 17.1738 18.2972 17.0882 18.4495 16.9358C18.6019 16.7835 18.6875 16.5768 18.6875 16.3613Z" fill="#B7BCD1"/>
</svg>
