<svg width="56" height="52" viewBox="0 0 56 52" fill="none" xmlns="http://www.w3.org/2000/svg">
<path d="M51.4062 18.9813C51.1187 18.9813 50.8363 19.0984 50.6329 19.3017C50.4296 19.5051 50.3125 19.7867 50.3125 20.0751C50.3125 20.3626 50.4296 20.645 50.6329 20.8484C50.8363 21.0517 51.1187 21.1688 51.4062 21.1688C51.6938 21.1688 51.9762 21.0517 52.1796 20.8484C52.3829 20.645 52.5 20.3626 52.5 20.0751C52.5 19.7875 52.3829 19.5051 52.1796 19.3017C51.9762 19.0984 51.6938 18.9813 51.4062 18.9813Z" fill="currentColor"/>
<path d="M53.8809 33.3773L52.2347 29.3723C52.4052 28.9571 52.5 28.5029 52.5 28.0269V24.2599C52.5 23.6562 52.0104 23.1662 51.4062 23.1662C50.8021 23.1662 50.3125 23.6562 50.3125 24.2599V28.0269C50.3125 28.781 49.6994 29.3941 48.9453 29.3941C48.1912 29.3941 47.5781 28.781 47.5781 28.0269V12.3812L49.5879 11.208C49.8451 11.0576 50.0869 10.8901 50.3125 10.7089V15.6116C50.3125 16.2157 50.8021 16.7053 51.4062 16.7053C52.0104 16.7053 52.5 16.2157 52.5 15.6116V6.51852C52.5829 5.37905 52.3385 4.20541 51.7271 3.14626C50.9294 1.76498 49.6404 0.783166 48.0972 0.381127C46.5536 -0.0209112 44.9493 0.207666 43.5795 1.02456L26.6636 11.1101L21.0987 9.88351C20.0575 9.65408 18.983 9.9053 18.152 10.5735C17.3206 11.2417 16.8438 12.2364 16.8438 13.3028V20.7522H5.96094C4.72449 20.7522 3.71875 21.758 3.71875 22.9944V32.9475C3.71875 34.184 4.72449 35.1897 5.96094 35.1897H10.3654V37.3772H7.21875C3.2381 37.3772 0 40.6153 0 44.596C0 48.5762 3.2381 51.8147 7.21875 51.8147H32.1562C36.1369 51.8147 39.375 48.5762 39.375 44.596C39.375 40.6153 36.1369 37.3772 32.1562 37.3772H29.1779V35.1897H32.4023C34.1964 35.1897 35.6562 33.7298 35.6562 31.9358V19.3415L45.3906 13.6582V28.0269C45.3906 29.3031 46.067 30.4238 47.0795 31.051L49.229 36.1527L47.7631 37.6186H41.5262C40.9221 37.6186 40.4324 38.1087 40.4324 38.7124C40.4324 43.0045 43.9243 46.4964 48.216 46.4964C52.5081 46.4964 56 43.0045 56 38.7124C56 36.7111 55.248 34.827 53.8809 33.3773ZM33.4688 27.2028H30.1892C29.9649 27.2028 29.7825 27.0204 29.7825 26.796V23.8258C29.7825 23.2221 29.2928 22.7321 28.6887 22.7321H25.1255C24.9012 22.7321 24.7188 22.5496 24.7188 22.3253V12.9212L32.6318 14.6652C33.1167 14.7725 33.4688 15.21 33.4688 15.7069V27.2028ZM37.1875 44.596C37.1875 47.3701 34.9304 49.6272 32.1562 49.6272H7.21875C4.44464 49.6272 2.1875 47.3701 2.1875 44.596C2.1875 41.8219 4.44464 39.5647 7.21875 39.5647H32.1562C34.9304 39.5647 37.1875 41.8219 37.1875 44.596ZM26.9904 37.3772H12.5529V35.1897H26.9904V37.3772ZM32.4023 33.0022H5.96094C5.93103 33.0022 5.90625 32.9774 5.90625 32.9475V22.9944C5.90625 22.9641 5.93103 22.9397 5.96094 22.9397H17.9375C18.5416 22.9397 19.0312 22.4497 19.0312 21.846V13.3028C19.0312 12.9029 19.2103 12.5294 19.5222 12.2787C19.834 12.0279 20.2374 11.9334 20.6279 12.0197L22.5312 12.4393V22.3253C22.5312 23.7558 23.6951 24.9196 25.1255 24.9196H27.595V26.796C27.595 28.2265 28.7588 29.3903 30.1892 29.3903H33.4688V31.9358C33.4688 32.5237 32.9902 33.0022 32.4023 33.0022ZM33.1026 12.529L29.782 11.7971L44.6998 2.90316C45.5628 2.38876 46.5737 2.24478 47.5457 2.49813C48.5181 2.75149 49.3303 3.37014 49.8327 4.24001C50.1215 4.74032 50.28 5.28121 50.3198 5.82253C50.3151 5.86227 50.3125 5.90286 50.3125 5.94387V6.4399C50.2048 7.59817 49.561 8.69064 48.4847 9.31869L35.6562 16.8083V15.7069C35.6562 14.1919 34.5826 12.8554 33.1026 12.529ZM49.6477 31.5116C49.9878 31.4432 50.3099 31.3257 50.6077 31.1676L51.6583 33.7238L50.8991 34.4826L49.6477 31.5116ZM48.216 44.3089C45.5047 44.3089 43.2373 42.37 42.7272 39.8061H48.216C48.5061 39.8061 48.7842 39.6912 48.9893 39.4861L52.8717 35.6037C53.4835 36.5163 53.8125 37.5891 53.8125 38.7124C53.8125 41.7984 51.302 44.3089 48.216 44.3089Z" fill="currentColor"/>
<path d="M46.4844 7.03765C46.7719 7.03765 47.0543 6.92059 47.2577 6.71722C47.4611 6.51385 47.5781 6.23144 47.5781 5.9439C47.5781 5.65636 47.4611 5.37395 47.2577 5.17059C47.0543 4.96722 46.7719 4.85015 46.4844 4.85015C46.1968 4.85015 45.9144 4.96722 45.7111 5.17059C45.5077 5.37395 45.3906 5.65636 45.3906 5.9439C45.3906 6.23144 45.5077 6.51385 45.7111 6.71722C45.9144 6.92059 46.1968 7.03765 46.4844 7.03765Z" fill="currentColor"/>
<path d="M40.2205 10.5957C40.5081 10.5957 40.7901 10.4787 40.9939 10.2749C41.1972 10.0715 41.3143 9.78953 41.3143 9.50199C41.3143 9.21317 41.1972 8.93204 40.9939 8.72867C40.7901 8.5253 40.5081 8.40824 40.2205 8.40824C39.9317 8.40824 39.6506 8.52488 39.4472 8.72867C39.2426 8.93204 39.1268 9.21317 39.1268 9.50199C39.1268 9.78953 39.2426 10.0715 39.4472 10.2749C39.6506 10.4787 39.933 10.5957 40.2205 10.5957Z" fill="currentColor"/>
<path d="M32.1562 47.8773C33.9656 47.8773 35.4375 46.405 35.4375 44.596C35.4375 42.7866 33.9656 41.3148 32.1562 41.3148C30.3469 41.3148 28.875 42.7866 28.875 44.596C28.875 46.405 30.3469 47.8773 32.1562 47.8773ZM32.1562 43.5023C32.7595 43.5023 33.25 43.9927 33.25 44.596C33.25 45.1988 32.7595 45.6898 32.1562 45.6898C31.553 45.6898 31.0625 45.1988 31.0625 44.596C31.0625 43.9927 31.553 43.5023 32.1562 43.5023Z" fill="currentColor"/>
<path d="M26.0175 43.5095H13.5261C12.922 43.5095 12.4324 43.9991 12.4324 44.6033C12.4324 45.207 12.922 45.697 13.5261 45.697H26.0175C26.6216 45.697 27.1113 45.207 27.1113 44.6033C27.1113 43.9991 26.6216 43.5095 26.0175 43.5095Z" fill="currentColor"/>
<path d="M7.21875 41.322C5.40936 41.322 3.9375 42.7939 3.9375 44.6033C3.9375 46.4122 5.40936 47.8845 7.21875 47.8845C9.02814 47.8845 10.5 46.4122 10.5 44.6033C10.5 42.7939 9.02814 41.322 7.21875 41.322ZM7.21875 45.697C6.61548 45.697 6.125 45.2061 6.125 44.6033C6.125 44 6.61548 43.5095 7.21875 43.5095C7.82202 43.5095 8.3125 44 8.3125 44.6033C8.3125 45.2061 7.82202 45.697 7.21875 45.697Z" fill="currentColor"/>
<path d="M15.7526 24.6897H8.66293C8.05923 24.6897 7.56918 25.1794 7.56918 25.7835C7.56918 26.3872 8.05923 26.8773 8.66293 26.8773H15.7526C16.3568 26.8773 16.8464 26.3872 16.8464 25.7835C16.8464 25.1794 16.3568 24.6897 15.7526 24.6897Z" fill="currentColor"/>
<path d="M15.7526 29.0647H8.66293C8.05923 29.0647 7.56918 29.5544 7.56918 30.1585C7.56918 30.7622 8.05923 31.2522 8.66293 31.2522H15.7526C16.3568 31.2522 16.8464 30.7622 16.8464 30.1585C16.8464 29.5544 16.3568 29.0647 15.7526 29.0647Z" fill="currentColor"/>
<path d="M19.2586 29.0647C18.9698 29.0647 18.6878 29.1814 18.4857 29.3852C18.2811 29.5886 18.1649 29.8705 18.1649 30.1585C18.1649 30.446 18.2811 30.728 18.4857 30.9314C18.6878 31.1352 18.9702 31.2522 19.2586 31.2522C19.5466 31.2522 19.8286 31.1352 20.0319 30.9314C20.2353 30.728 20.3524 30.446 20.3524 30.1585C20.3524 29.8705 20.2357 29.5886 20.0319 29.3852C19.8286 29.1818 19.5466 29.0647 19.2586 29.0647Z" fill="currentColor"/>
</svg>
