<svg width="22" height="21" viewBox="0 0 22 21" fill="none" xmlns="http://www.w3.org/2000/svg">
<path d="M19.6898 0.25H2.31047C1.86927 0.250347 1.43766 0.378749 1.06802 0.619621C0.698371 0.860493 0.406588 1.20348 0.228079 1.60695C0.0495695 2.01043 -0.00799067 2.45704 0.0623841 2.89259C0.132759 3.32814 0.328043 3.7339 0.624535 4.06062L8.15641 12.3441V20.1562C8.15648 20.309 8.19958 20.4586 8.28077 20.5879C8.36197 20.7172 8.47797 20.8211 8.61547 20.8875C8.72537 20.9417 8.84638 20.9695 8.96891 20.9688C9.15358 20.9686 9.33268 20.9056 9.47672 20.79L11.0002 19.5713L13.5392 17.54C13.6342 17.4639 13.7109 17.3675 13.7637 17.2578C13.8164 17.1481 13.8438 17.028 13.8439 16.9062V12.3441L21.3758 4.06062C21.6723 3.7339 21.8676 3.32814 21.9379 2.89259C22.0083 2.45704 21.9508 2.01043 21.7722 1.60695C21.5937 1.20348 21.302 0.860493 20.9323 0.619621C20.5627 0.378749 20.131 0.250347 19.6898 0.25Z" fill="#B7BCD1"/>
</svg>
