<svg width="60" height="60" viewBox="0 0 60 60" fill="none" xmlns="http://www.w3.org/2000/svg">
<g clip-path="url(#clip0_1814_25799)">
<path d="M55.0781 22.48C54.7701 22.48 54.4675 22.6054 54.2496 22.8233C54.0317 23.0412 53.9062 23.3429 53.9062 23.6519C53.9062 23.9599 54.0317 24.2625 54.2496 24.4804C54.4675 24.6983 54.7701 24.8237 55.0781 24.8237C55.3862 24.8237 55.6888 24.6983 55.9067 24.4804C56.1246 24.2625 56.25 23.9599 56.25 23.6519C56.25 23.3438 56.1246 23.0412 55.9067 22.8233C55.6888 22.6054 55.3862 22.48 55.0781 22.48Z" fill="currentColor"/>
<path d="M57.7295 37.9043L55.9657 33.6132C56.1484 33.1683 56.25 32.6817 56.25 32.1717V28.1356C56.25 27.4888 55.7254 26.9637 55.0781 26.9637C54.4308 26.9637 53.9062 27.4888 53.9062 28.1356V32.1717C53.9062 32.9797 53.2494 33.6366 52.4414 33.6366C51.6335 33.6366 50.9766 32.9797 50.9766 32.1717V15.4084L53.1299 14.1514C53.4055 13.9903 53.6646 13.8108 53.9062 13.6167V18.8696C53.9062 19.5168 54.4308 20.0414 55.0781 20.0414C55.7254 20.0414 56.25 19.5168 56.25 18.8696V9.12698C56.3388 7.90613 56.077 6.64865 55.4219 5.51385C54.5673 4.0339 53.1862 2.98196 51.5327 2.55121C49.8788 2.12045 48.1599 2.36536 46.6924 3.2406L28.5681 14.0466L22.6057 12.7323C21.4902 12.4865 20.3389 12.7557 19.4485 13.4716C18.5577 14.1876 18.0469 15.2532 18.0469 16.3958V24.3774H6.38672C5.06195 24.3774 3.98438 25.455 3.98438 26.7797V37.4438C3.98438 38.7686 5.06195 39.8461 6.38672 39.8461H11.1058V42.1899H7.73438C3.46939 42.1899 0 45.6593 0 49.9243C0 54.1888 3.46939 57.6586 7.73438 57.6586H34.4531C38.7181 57.6586 42.1875 54.1888 42.1875 49.9243C42.1875 45.6593 38.7181 42.1899 34.4531 42.1899H31.2621V39.8461H34.7168C36.6389 39.8461 38.2031 38.282 38.2031 36.3598V22.8658L48.6328 16.7767V32.1717C48.6328 33.5391 49.3575 34.7398 50.4424 35.4118L52.7454 40.8779L51.1748 42.4485H44.4923C43.8451 42.4485 43.3205 42.9736 43.3205 43.6204C43.3205 48.2191 47.0618 51.9604 51.66 51.9604C56.2587 51.9604 60 48.2191 60 43.6204C60 41.4762 59.1943 39.4575 57.7295 37.9043ZM35.8594 31.2887H32.3456C32.1053 31.2887 31.9098 31.0932 31.9098 30.8529V27.6705C31.9098 27.0237 31.3852 26.4987 30.7379 26.4987H26.9202C26.6798 26.4987 26.4844 26.3032 26.4844 26.0629V15.987L34.9626 17.8556C35.4822 17.9705 35.8594 18.4393 35.8594 18.9716V31.2887ZM39.8438 49.9243C39.8438 52.8965 37.4254 55.3149 34.4531 55.3149H7.73438C4.76212 55.3149 2.34375 52.8965 2.34375 49.9243C2.34375 46.952 4.76212 44.5336 7.73438 44.5336H34.4531C37.4254 44.5336 39.8438 46.952 39.8438 49.9243ZM28.9183 42.1899H13.4496V39.8461H28.9183V42.1899ZM34.7168 37.5024H6.38672C6.35468 37.5024 6.32812 37.4758 6.32812 37.4438V26.7797C6.32812 26.7472 6.35468 26.7211 6.38672 26.7211H19.2188C19.866 26.7211 20.3906 26.1961 20.3906 25.5493V16.3958C20.3906 15.9673 20.5824 15.5673 20.9166 15.2986C21.2508 15.0298 21.6829 14.9287 22.1013 15.0211L24.1406 15.4707V26.0629C24.1406 27.5955 25.3876 28.8424 26.9202 28.8424H29.566V30.8529C29.566 32.3855 30.813 33.6324 32.3456 33.6324H35.8594V36.3598C35.8594 36.9897 35.3467 37.5024 34.7168 37.5024ZM35.4671 15.5668L31.9093 14.7827L47.8926 5.25339C48.8173 4.70224 49.9004 4.54797 50.9418 4.81943C51.9836 5.09088 52.8539 5.75372 53.3922 6.68573C53.7016 7.22177 53.8715 7.8013 53.914 8.38129C53.909 8.42386 53.9062 8.46735 53.9062 8.51129V9.04276C53.7909 10.2838 53.101 11.4543 51.9479 12.1272L38.2031 20.1518V18.9716C38.2031 17.3484 37.0528 15.9165 35.4671 15.5668ZM53.194 35.9052C53.5583 35.832 53.9035 35.7061 54.2226 35.5367L55.3482 38.2755L54.5348 39.0885L53.194 35.9052ZM51.66 49.6166C48.755 49.6166 46.3257 47.5393 45.7791 44.7923H51.66C51.9708 44.7923 52.2688 44.6691 52.4886 44.4494L56.6483 40.2897C57.3038 41.2675 57.6562 42.4169 57.6562 43.6204C57.6562 46.9268 54.9664 49.6166 51.66 49.6166Z" fill="currentColor"/>
<path d="M49.8047 9.68311C50.1128 9.68311 50.4153 9.55768 50.6332 9.33978C50.8511 9.12189 50.9766 8.81931 50.9766 8.51123C50.9766 8.20316 50.8511 7.90057 50.6332 7.68268C50.4153 7.46478 50.1128 7.33936 49.8047 7.33936C49.4966 7.33936 49.194 7.46478 48.9761 7.68268C48.7582 7.90057 48.6328 8.20316 48.6328 8.51123C48.6328 8.81931 48.7582 9.12189 48.9761 9.33978C49.194 9.55768 49.4966 9.68311 49.8047 9.68311Z" fill="currentColor"/>
<path d="M43.0933 13.4951C43.4013 13.4951 43.7035 13.3697 43.9218 13.1513C44.1397 12.9334 44.2651 12.6313 44.2651 12.3232C44.2651 12.0138 44.1397 11.7126 43.9218 11.4947C43.7035 11.2768 43.4013 11.1514 43.0933 11.1514C42.7838 11.1514 42.4826 11.2763 42.2647 11.4947C42.0454 11.7126 41.9214 12.0138 41.9214 12.3232C41.9214 12.6313 42.0454 12.9334 42.2647 13.1513C42.4826 13.3697 42.7852 13.4951 43.0933 13.4951Z" fill="currentColor"/>
<path d="M34.4531 53.4399C36.3918 53.4399 37.9688 51.8625 37.9688 49.9243C37.9688 47.9857 36.3918 46.4087 34.4531 46.4087C32.5145 46.4087 30.9375 47.9857 30.9375 49.9243C30.9375 51.8625 32.5145 53.4399 34.4531 53.4399ZM34.4531 48.7524C35.0995 48.7524 35.625 49.278 35.625 49.9243C35.625 50.5702 35.0995 51.0962 34.4531 51.0962C33.8068 51.0962 33.2812 50.5702 33.2812 49.9243C33.2812 49.278 33.8068 48.7524 34.4531 48.7524Z" fill="currentColor"/>
<path d="M27.8758 48.7603H14.4922C13.8449 48.7603 13.3203 49.2849 13.3203 49.9321C13.3203 50.5789 13.8449 51.104 14.4922 51.104H27.8758C28.5231 51.104 29.0477 50.5789 29.0477 49.9321C29.0477 49.2849 28.5231 48.7603 27.8758 48.7603Z" fill="currentColor"/>
<path d="M7.73438 46.4165C5.79575 46.4165 4.21875 47.9935 4.21875 49.9321C4.21875 51.8703 5.79575 53.4478 7.73438 53.4478C9.673 53.4478 11.25 51.8703 11.25 49.9321C11.25 47.9935 9.673 46.4165 7.73438 46.4165ZM7.73438 51.104C7.08801 51.104 6.5625 50.578 6.5625 49.9321C6.5625 49.2858 7.08801 48.7603 7.73438 48.7603C8.38074 48.7603 8.90625 49.2858 8.90625 49.9321C8.90625 50.578 8.38074 51.104 7.73438 51.104Z" fill="currentColor"/>
<path d="M16.8779 28.5962H9.28174C8.63492 28.5962 8.10986 29.1208 8.10986 29.7681C8.10986 30.4149 8.63492 30.9399 9.28174 30.9399H16.8779C17.5251 30.9399 18.0497 30.4149 18.0497 29.7681C18.0497 29.1208 17.5251 28.5962 16.8779 28.5962Z" fill="currentColor"/>
<path d="M16.8779 33.2837H9.28174C8.63492 33.2837 8.10986 33.8083 8.10986 34.4556C8.10986 35.1024 8.63492 35.6274 9.28174 35.6274H16.8779C17.5251 35.6274 18.0497 35.1024 18.0497 34.4556C18.0497 33.8083 17.5251 33.2837 16.8779 33.2837Z" fill="currentColor"/>
<path d="M20.6343 33.2837C20.3248 33.2837 20.0227 33.4087 19.8062 33.627C19.5869 33.8449 19.4624 34.147 19.4624 34.4556C19.4624 34.7636 19.5869 35.0658 19.8062 35.2837C20.0227 35.502 20.3253 35.6274 20.6343 35.6274C20.9428 35.6274 21.2449 35.502 21.4628 35.2837C21.6807 35.0658 21.8062 34.7636 21.8062 34.4556C21.8062 34.147 21.6812 33.8449 21.4628 33.627C21.2449 33.4091 20.9428 33.2837 20.6343 33.2837Z" fill="currentColor"/>
</g>
<defs>
<clipPath id="clip0_1814_25799">
<rect width="60" height="60" fill="white"/>
</clipPath>
</defs>
</svg>
