<svg width="16" height="16" viewBox="0 0 16 16" fill="none" xmlns="http://www.w3.org/2000/svg">
<g clip-path="url(#clip0_1814_21607)">
<path d="M16 3.03906C15.405 3.30006 14.771 3.47306 14.11 3.55706C14.79 3.15106 15.309 2.51306 15.553 1.74406C14.919 2.12206 14.219 2.38906 13.473 2.53806C12.871 1.89706 12.013 1.50006 11.077 1.50006C9.261 1.50006 7.799 2.97406 7.799 4.78106C7.799 5.04106 7.821 5.29106 7.875 5.52906C5.148 5.39606 2.735 4.08906 1.114 2.09806C0.831 2.58906 0.665 3.15106 0.665 3.75606C0.665 4.89206 1.25 5.89906 2.122 6.48206C1.595 6.47206 1.078 6.31906 0.64 6.07806C0.64 6.08806 0.64 6.10106 0.64 6.11406C0.64 7.70806 1.777 9.03206 3.268 9.33706C3.001 9.41006 2.71 9.44506 2.408 9.44506C2.198 9.44506 1.986 9.43306 1.787 9.38906C2.212 10.6881 3.418 11.6431 4.852 11.6741C3.736 12.5471 2.319 13.0731 0.785 13.0731C0.516 13.0731 0.258 13.0611 0 13.0281C1.453 13.9651 3.175 14.5001 5.032 14.5001C11.068 14.5001 14.368 9.50006 14.368 5.16606C14.368 5.02106 14.363 4.88106 14.356 4.74206C15.007 4.28006 15.554 3.70306 16 3.03906Z" fill="currentColor"/>
</g>
<defs>
<clipPath id="clip0_1814_21607">
<rect width="16" height="16" fill="white"/>
</clipPath>
</defs>
</svg>
