<svg width="60" height="60" viewBox="0 0 60 60" fill="none" xmlns="http://www.w3.org/2000/svg">
<path fill-rule="evenodd" clip-rule="evenodd" d="M43.1257 41.25H44.0632C50.3187 41.2525 55.5595 36.5169 56.1889 30.2931C56.8182 24.0693 52.6315 18.3803 46.5022 17.1305C44.8554 9.33117 37.9728 3.75 30.0016 3.75C22.0304 3.75 15.1478 9.33117 13.501 17.1305C7.37113 18.3793 3.1835 24.0682 3.81241 30.2923C4.44132 36.5165 9.68232 41.2526 15.9382 41.25H16.8757V37.5H15.9382C11.4086 37.5032 7.68558 33.9274 7.5062 29.4013C7.32682 24.8752 10.7551 21.016 15.2708 20.6606L16.7997 20.5406L16.9855 19.0181C17.7915 12.4419 23.3761 7.49985 30.0016 7.49985C36.6271 7.49985 42.2117 12.4419 43.0177 19.0181L43.2026 20.5406L44.7315 20.6606C49.247 21.0165 52.6748 24.8759 52.4951 29.4017C52.3155 33.9276 48.5926 37.5032 44.0632 37.5H43.1257V41.25ZM23.2687 36.3937L20.625 33.75L30 24.375L39.375 33.75L36.7313 36.3937L31.875 31.5562V54.375H28.125V31.5562L23.2687 36.3937Z" fill="#FF8700"/>
<mask id="mask0_2927_17883" style="mask-type:alpha" maskUnits="userSpaceOnUse" x="3" y="3" width="54" height="52">
<path fill-rule="evenodd" clip-rule="evenodd" d="M43.1257 41.25H44.0632C50.3187 41.2525 55.5595 36.5169 56.1889 30.2931C56.8182 24.0693 52.6315 18.3803 46.5022 17.1305C44.8554 9.33117 37.9728 3.75 30.0016 3.75C22.0304 3.75 15.1478 9.33117 13.501 17.1305C7.37113 18.3793 3.1835 24.0682 3.81241 30.2923C4.44132 36.5165 9.68232 41.2526 15.9382 41.25H16.8757V37.5H15.9382C11.4086 37.5032 7.68558 33.9274 7.5062 29.4013C7.32682 24.8752 10.7551 21.016 15.2708 20.6606L16.7997 20.5406L16.9855 19.0181C17.7915 12.4419 23.3761 7.49985 30.0016 7.49985C36.6271 7.49985 42.2117 12.4419 43.0177 19.0181L43.2026 20.5406L44.7315 20.6606C49.247 21.0165 52.6748 24.8759 52.4951 29.4017C52.3155 33.9276 48.5926 37.5032 44.0632 37.5H43.1257V41.25ZM23.2687 36.3937L20.625 33.75L30 24.375L39.375 33.75L36.7313 36.3937L31.875 31.5562V54.375H28.125V31.5562L23.2687 36.3937Z" fill="white"/>
</mask>
<g mask="url(#mask0_2927_17883)">
</g>
</svg>
