<svg width="60" height="60" viewBox="0 0 60 60" fill="none" xmlns="http://www.w3.org/2000/svg">
<path d="M47.8125 25.3125H42.1875V17.8125H47.8125V25.3125Z" fill="#FE603A"/>
<path d="M23.2978 31.2806L27.1875 30.4162V22.1297C27.1875 21.5737 27.0244 21.0347 26.715 20.5697L25.5178 18.7734C25.1166 18.1716 24.4453 17.8125 23.7216 17.8125C22.5309 17.8125 21.5625 18.7809 21.5625 19.9716V32.2059C22.0406 31.7606 22.6294 31.4297 23.2978 31.2806Z" fill="#FE603A"/>
<path d="M47.8125 47.8125H15V53.4375H47.8125C48.8466 53.4375 49.6875 52.5966 49.6875 51.5625V49.6875C49.6875 48.6534 48.8466 47.8125 47.8125 47.8125Z" fill="#FE603A"/>
<path d="M23.4375 34.6875H25.3125V36.5625H23.4375V34.6875Z" fill="currentColor"/>
<path d="M27.1875 34.6875H29.0625V36.5625H27.1875V34.6875Z" fill="currentColor"/>
<path d="M25.3125 38.4375H27.1875V40.3125H25.3125V38.4375Z" fill="currentColor"/>
<path d="M53.3737 31.0031C53.1769 29.9119 52.4972 28.9819 51.5625 28.4325V15.9375H52.5C53.5341 15.9375 54.375 15.0966 54.375 14.0625V12.1875C54.375 11.1534 53.5341 10.3125 52.5 10.3125H31.875C30.8409 10.3125 30 11.1534 30 12.1875V14.0625C30 14.7 30.3216 15.2625 30.8091 15.6019L28.2553 29.22L23.0953 30.3666C21.0975 30.81 19.6303 32.4787 19.4438 34.5084L19.1925 36.9862L15.9375 35.0869V34.6875C15.9375 33.6534 15.0966 32.8125 14.0625 32.8125C12.5156 32.8125 11.2003 33.8672 10.8656 35.3766L7.68563 49.6875H6.97594C5.76375 49.6875 4.69125 50.46 4.30781 51.6103L3.9 52.8356L2.19 53.9756C1.40531 54.4988 0.9375 55.3734 0.9375 56.3156V59.0625H14.0625C15.0966 59.0625 15.9375 58.2216 15.9375 57.1875V53.4375H15V47.8125H15.9375V41.0072L18.6253 42.5747L18.0928 47.8125H21.1359C22.0097 46.8478 23.1984 46.1953 24.5062 46.0059L27.6038 47.8125H31.3247L15.9375 38.8369V37.2572L34.0322 47.8125H37.7531L30.33 43.4822L36.7819 40.9725C36.6497 41.3559 36.5625 41.76 36.5625 42.1875C36.5625 44.1094 38.0213 45.6797 39.8869 45.8944C39.4894 46.4822 39.1603 47.1244 38.9175 47.8125H40.9537C42.0225 45.5588 44.3034 44.0625 46.875 44.0625C50.4928 44.0625 53.4375 47.0062 53.4375 50.625C53.4375 54.2438 50.4928 57.1875 46.875 57.1875C44.3034 57.1875 42.0225 55.6912 40.9537 53.4375H38.9466C39.4772 54.9347 40.3847 56.2275 41.5753 57.1875H30.255C31.3641 56.2134 32.1863 54.9169 32.5697 53.4375H30.6094C29.8275 55.6341 27.7172 57.1875 25.3125 57.1875C22.9078 57.1875 20.7984 55.6341 20.0156 53.4375H18.0544C18.8981 56.6944 21.8813 59.0625 25.3125 59.0625H46.875C51.2109 59.0625 54.7894 55.7747 55.2572 51.5625H56.25C57.8006 51.5625 59.0625 50.3006 59.0625 48.75V37.5C59.0625 34.1784 56.58 31.4325 53.3737 31.0031ZM2.8125 57.1875V56.3156C2.8125 56.0016 2.96812 55.71 3.22969 55.5356L4.94156 54.3947C5.28562 54.1641 5.54719 53.8209 5.6775 53.4281L6.08625 52.2028C6.21469 51.8203 6.57281 51.5625 6.97594 51.5625H8.15344L9.94969 52.7597L9.49875 53.4375H7.5V55.3125H8.24813L6.99844 57.1875H2.8125ZM14.0625 57.1875H9.25125L12.5503 52.2403L9.49219 50.2013L12.6966 35.7834C12.8391 35.1375 13.4016 34.6875 14.0625 34.6875V57.1875ZM20.4047 43.6134L22.2947 44.7159C21.5034 45.0666 20.7759 45.5447 20.1478 46.14L20.4047 43.6134ZM57.0928 36.5625H53.4375V32.9072C55.2713 33.2813 56.7188 34.7288 57.0928 36.5625ZM49.6875 27.8962L40.8394 27.1875C40.6594 27.1875 40.4841 27.2081 40.3125 27.2409V15.9375H49.6875V27.8962ZM34.9622 30.6628L36.2878 29.3372L32.5378 25.5872L31.2122 26.9128L32.4244 28.125L30.9478 29.6016C30.7097 29.4328 30.4481 29.2987 30.165 29.2087L32.6522 15.9375H38.4375V28.5478C38.295 28.7831 38.1806 29.04 38.1103 29.3184L36.7678 34.6875H32.6691L32.1356 31.4831C32.1169 31.3688 32.0813 31.2609 32.0494 31.1513L33.75 29.4506L34.9622 30.6628ZM31.875 12.1875H52.5L52.5009 14.0625H31.875V12.1875ZM28.2609 42.2747L20.9728 38.0231L21.3103 34.6875C21.4219 33.4631 22.3031 32.4619 23.5013 32.1956L29.0578 30.9619C29.6081 30.8381 30.1912 31.2234 30.2859 31.7916L31.0809 36.5625H38.2322L39.9291 29.7731C40.0341 29.355 40.4081 29.0625 40.7644 29.0597L49.8384 29.7891C50.8059 29.8669 51.5634 30.6872 51.5634 31.6584V38.9813C49.7559 37.4728 47.4338 36.5625 44.9025 36.5625C43.6069 36.5625 42.3375 36.8006 41.13 37.2703L28.2609 42.2747ZM40.3125 44.0625C39.2784 44.0625 38.4375 43.2216 38.4375 42.1875C38.4375 41.1534 39.2784 40.3125 40.3125 40.3125C41.3466 40.3125 42.1875 41.1534 42.1875 42.1875C42.1875 43.2216 41.3466 44.0625 40.3125 44.0625ZM46.875 42.1875C45.8756 42.1875 44.9109 42.3656 44.0119 42.69C44.0344 42.5241 44.0625 42.36 44.0625 42.1875C44.0625 40.7738 43.2675 39.5559 42.1097 38.9166C43.0097 38.6044 43.9463 38.4375 44.9025 38.4375C48.9581 38.4375 52.3547 41.2828 53.2191 45.0797C51.6712 43.3116 49.4044 42.1875 46.875 42.1875ZM56.25 49.6875H55.3125V46.9725C55.3125 44.7628 54.6159 42.7162 53.4375 41.0297V38.4375H57.1875V40.3125H55.3125V42.1875H57.1875V48.75C57.1875 49.2666 56.7675 49.6875 56.25 49.6875Z" fill="currentColor"/>
</svg>
