<svg width="60" height="60" viewBox="0 0 60 60" fill="none" xmlns="http://www.w3.org/2000/svg">
<path d="M57.1141 30.968H55.1602C55.1166 27.247 53.3244 23.7933 50.3224 21.608V15.968C50.3224 14.1002 48.803 12.5811 46.9354 12.5811C42.9289 12.5811 39.5369 15.4911 38.8471 19.3552H35.8065V21.2908H40.6075L40.6675 20.3869C40.8852 17.0956 43.6385 14.5166 46.9356 14.5166C47.7359 14.5166 48.3872 15.1679 48.3872 15.9682V22.6341L48.8208 22.9205C51.5789 24.7486 53.226 27.8085 53.226 31.1086V32.9038H57.1143C57.6389 32.9038 58.0646 33.3296 58.0646 33.8541V43.5663C58.0646 44.0908 57.6389 44.5166 57.1143 44.5166H53.0265L52.8222 45.2114C51.8777 48.4263 49.3945 50.9104 46.1788 51.8549L45.4839 52.0592V56.6076C45.4839 56.8776 45.2643 57.0973 44.9942 57.0973H35.3284C35.0583 57.0973 34.8386 56.8776 34.8386 56.6076V52.2585H25.1612V56.6076C25.1612 56.8776 24.9415 57.0973 24.6714 57.0973H15.0058C14.7357 57.0973 14.5161 56.8776 14.5161 56.6076V51.4165L13.9963 51.1447C10.7351 49.4434 8.70955 46.1086 8.70955 42.4407V31.1086C8.70955 26.3027 12.1421 22.2325 16.8724 21.4301L16.5482 19.5208C10.885 20.4816 6.77399 25.3552 6.77399 31.1086V33.8715H5.6282C5.73654 33.5677 5.8063 33.2444 5.8063 32.9038C5.8063 31.3033 4.5038 30.0006 2.90305 30.0006C2.56243 30.0006 2.23921 30.0703 1.93537 30.1787V27.0973H0V32.9038C0 34.5044 1.30251 35.8071 2.90325 35.8071H6.77419V42.4409C6.77419 46.6331 8.98441 50.4624 12.5807 52.5721V56.6066C12.5807 57.945 13.6685 59.0327 15.0058 59.0327H24.6716C26.0091 59.0327 27.0967 57.9449 27.0967 56.6076V54.194H32.9033V56.6076C32.9033 57.945 33.9911 59.0327 35.3284 59.0327H44.9942C46.3317 59.0327 47.4193 57.9449 47.4193 56.6076V53.4836C50.702 52.2963 53.2644 49.7336 54.452 46.451H57.1141C58.7051 46.452 60 45.1571 60 43.5661V33.8539C60 32.263 58.7051 30.968 57.1141 30.968ZM1.93557 32.9036C1.93557 32.3703 2.37014 31.9359 2.90325 31.9359C3.43637 31.9359 3.87094 32.3705 3.87094 32.9036C3.87094 33.4367 3.43637 33.8713 2.90325 33.8713C2.37014 33.8713 1.93557 33.4367 1.93557 32.9036Z" fill="currentColor"/>
<path d="M26.1285 26.1292C19.1918 26.1292 13.5479 20.4854 13.5479 13.5485C13.5479 6.61156 19.1916 0.967773 26.1285 0.967773C33.0654 0.967773 38.7092 6.61156 38.7092 13.5485C38.7092 20.4854 33.0652 26.1292 26.1285 26.1292Z" fill="#FE603A"/>
<path d="M33.8707 25.1611H18.3867V27.0967H33.8707V25.1611Z" fill="currentColor"/>
<path d="M31.9355 11.6132V10.1615C31.9355 7.76062 29.9815 5.80666 27.5806 5.80666H27.0966V3.87109H25.1611V5.80666H24.6771C22.2762 5.80666 20.3223 7.76062 20.3223 10.1615C20.3223 12.5625 22.2762 14.5164 24.6771 14.5164H27.5804C28.9139 14.5164 29.9997 15.6022 29.9997 16.9357C29.9997 18.2692 28.9139 19.355 27.5804 19.355H24.6771C23.3437 19.355 22.2578 18.2692 22.2578 16.9357V15.4841H20.3223V16.9357C20.3223 19.3366 22.2762 21.2906 24.6771 21.2906H25.1611V23.2262H27.0966V21.2906H27.5806C29.9815 21.2906 31.9355 19.3366 31.9355 16.9357C31.9355 14.5348 29.9815 12.5808 27.5806 12.5808H24.6773C23.3439 12.5808 22.258 11.495 22.258 10.1615C22.258 8.82805 23.3439 7.74223 24.6773 7.74223H27.5806C28.9141 7.74223 29.9999 8.82805 29.9999 10.1615V11.6132H31.9355Z" fill="currentColor"/>
<path d="M40.4927 29.5549C40.5023 29.5395 41.472 28.0645 43.5489 28.0645C45.587 28.0645 46.5693 29.5005 46.605 29.5549C46.7899 29.8433 47.1024 30 47.4208 30C47.5999 30 47.7808 29.9507 47.9423 29.8471C48.3923 29.5587 48.523 28.9598 48.2346 28.5096C48.1716 28.4119 46.6706 26.1289 43.5489 26.1289C40.4271 26.1289 38.9259 28.4119 38.8632 28.5096C38.5747 28.9596 38.7055 29.5577 39.1554 29.8471C39.6044 30.1346 40.2035 30.0048 40.4927 29.5549Z" fill="currentColor"/>
</svg>
