<svg width="60" height="60" viewBox="0 0 60 60" fill="none" xmlns="http://www.w3.org/2000/svg">
<path d="M29.9998 6.48438C17.0142 6.48438 6.4873 17.0112 6.4873 29.9969C6.4873 42.9825 17.0142 53.5094 29.9998 53.5094C42.9855 53.5094 53.5123 42.9825 53.5123 29.9969C53.5123 17.0112 42.9855 6.48438 29.9998 6.48438ZM29.9998 48.6109C19.7198 48.6109 11.3857 40.2769 11.3857 29.9969C11.3857 19.7169 19.7198 11.3828 29.9998 11.3828C40.2798 11.3828 48.6139 19.7169 48.6139 29.9969C48.6139 40.2769 40.2798 48.6109 29.9998 48.6109Z" fill="#FE603A"/>
<path d="M29.9999 4.52529C43.0013 4.52529 53.8836 14.2585 55.311 27.1657L55.5354 29.1926L59.9999 24.7285L58.6146 23.3431L56.9695 24.9868C54.5987 12.0739 43.3343 2.56592 29.9999 2.56592C29.322 2.56592 28.638 2.59031 27.9688 2.63911L28.1118 4.5937C28.7341 4.54778 29.3689 4.52529 29.9999 4.52529Z" fill="currentColor"/>
<path d="M30.0001 55.469C16.9986 55.469 6.11635 45.7348 4.68892 32.8286L4.46456 30.8013L0 35.2658L1.38534 36.6512L3.02995 35.007C5.4012 47.9205 16.6657 57.4284 30.0001 57.4284C30.6798 57.4284 31.3648 57.404 32.0317 57.3538L31.8867 55.4002C31.2677 55.4466 30.6329 55.469 30.0001 55.469Z" fill="currentColor"/>
<path d="M30 10.4033C19.1962 10.4033 10.4062 19.1932 10.4062 29.9971C10.4062 40.8009 19.1962 49.5908 30 49.5908C40.8038 49.5908 49.5938 40.8009 49.5938 29.9971C49.5938 19.1932 40.8038 10.4033 30 10.4033ZM30.9797 47.5812V42.733H29.0203V47.5812C20.0797 47.0866 12.9105 39.9174 12.4154 30.9768H17.2641V29.0174H12.4154C12.9105 20.0768 20.0797 12.9076 29.0203 12.4124V17.2611H30.9797V12.4124C39.9203 12.9076 47.0895 20.0768 47.5842 29.0174H42.7359V30.9768H47.5842C47.0895 39.9174 39.9203 47.0866 30.9797 47.5812Z" fill="currentColor"/>
<path d="M30.9803 27.2385V19.2207H29.0209V27.2385C27.8834 27.6442 27.0615 28.7215 27.0615 29.9973C27.0615 31.6175 28.3799 32.9363 30.0006 32.9363C31.2759 32.9363 32.3537 32.1145 32.7593 30.977H36.8584V29.0176H32.7593C32.4637 28.1876 31.8102 27.5342 30.9803 27.2385ZM30.0006 30.977C29.4596 30.977 29.0209 30.5369 29.0209 29.9973C29.0209 29.4572 29.4596 29.0176 30.0006 29.0176C30.5411 29.0176 30.9803 29.4572 30.9803 29.9973C30.9803 30.5369 30.5411 30.977 30.0006 30.977Z" fill="currentColor"/>
<path d="M23.6865 3.28503L25.6072 2.90234L25.9899 4.82393L24.0692 5.20614L23.6865 3.28503Z" fill="currentColor"/>
<path d="M18.5977 5.02792L20.4083 4.27832L21.1574 6.08892L19.3473 6.83804L18.5977 5.02792Z" fill="currentColor"/>
<path d="M13.9463 7.73233L15.5756 6.64453L16.6639 8.27384L15.0341 9.36211L13.9463 7.73233Z" fill="currentColor"/>
<path d="M9.91016 11.2931L11.2955 9.90771L12.6808 11.2931L11.2955 12.6784L9.91016 11.2931Z" fill="currentColor"/>
<path d="M6.64551 15.5717L7.73426 13.9429L9.36309 15.0316L8.27481 16.6605L6.64551 15.5717Z" fill="currentColor"/>
<path d="M4.28125 20.4039L5.03132 18.5938L6.84145 19.3438L6.09138 21.1539L4.28125 20.4039Z" fill="currentColor"/>
<path d="M2.90527 25.6057L3.28749 23.6841L5.20907 24.0658L4.82734 25.9879L2.90527 25.6057Z" fill="currentColor"/>
<path d="M34.0088 55.1669L35.9294 54.7847L36.3121 56.7063L34.3915 57.0885L34.0088 55.1669Z" fill="currentColor"/>
<path d="M38.8438 53.9044L40.6544 53.1553L41.4035 54.9659L39.5933 55.715L38.8438 53.9044Z" fill="currentColor"/>
<path d="M43.3398 51.7201L44.9706 50.6313L46.0584 52.2611L44.4281 53.3499L43.3398 51.7201Z" fill="currentColor"/>
<path d="M47.3184 48.7012L48.7037 47.3159L50.089 48.7012L48.7037 50.0866L47.3184 48.7012Z" fill="currentColor"/>
<path d="M50.6387 44.9647L51.7274 43.3345L53.3567 44.4228L52.2685 46.053L50.6387 44.9647Z" fill="currentColor"/>
<path d="M53.1592 40.6509L53.9083 38.8408L55.7189 39.5899L54.9693 41.4005L53.1592 40.6509Z" fill="currentColor"/>
<path d="M54.79 35.9309L55.1727 34.0103L57.0943 34.3929L56.7116 36.3136L54.79 35.9309Z" fill="currentColor"/>
</svg>
