<svg width="36" height="36" viewBox="0 0 36 36" fill="none" xmlns="http://www.w3.org/2000/svg">
<path d="M32.4844 3.09375H29.1328V2.10938C29.1328 0.946266 28.1865 0 27.0234 0C25.8603 0 24.914 0.946266 24.914 2.10938V3.09375H13.1015V2.10938C13.1015 0.946266 12.1553 0 10.9922 0C9.82905 0 8.88279 0.946266 8.88279 2.10938V3.11977C8.82302 3.10324 8.76038 3.09375 8.69534 3.09375H5.8938C3.95529 3.09375 2.37818 4.67086 2.37818 6.60938V18.5859C2.37818 18.9743 2.69304 19.289 3.0813 19.289C3.46957 19.289 3.78443 18.9743 3.78443 18.5859V10.3359H29.1328C29.5211 10.3359 29.8359 10.0211 29.8359 9.63281C29.8359 9.24448 29.5211 8.92969 29.1328 8.92969H3.78443V6.60938C3.78443 5.44627 4.7307 4.5 5.8938 4.5H8.69534C8.76038 4.5 8.82302 4.49044 8.88279 4.47398V5.37891C8.88279 6.54202 9.82905 7.48828 10.9922 7.48828C12.1553 7.48828 13.1015 6.54202 13.1015 5.37891V4.5H24.914V5.37891C24.914 6.54202 25.8603 7.48828 27.0234 7.48828C28.1865 7.48828 29.1328 6.54202 29.1328 5.37891V4.5H32.4844C33.6475 4.5 34.5938 5.44627 34.5938 6.60938V33.3277C34.5938 34.0258 34.0258 34.5938 33.3277 34.5938C32.6296 34.5938 32.0617 34.0258 32.0617 33.3277V31.5088C32.0617 31.1205 31.7468 30.8057 31.3585 30.8057H23.1797C22.7914 30.8057 22.4766 31.1205 22.4766 31.5088C22.4766 31.8971 22.7914 32.2119 23.1797 32.2119H30.6554V33.3277C30.6554 33.7855 30.7713 34.2167 30.975 34.5938H2.67188C1.97402 34.5938 1.40625 34.026 1.40625 33.3281V32.2119H17.1439C17.5322 32.2119 17.8471 31.8971 17.8471 31.5088C17.8471 31.1205 17.5322 30.8057 17.1439 30.8057H10.1186C11.3472 29.7475 12.1274 28.1824 12.1274 26.4375C12.1274 23.2583 9.54098 20.6719 6.3618 20.6719C3.18262 20.6719 0.59618 23.2583 0.59618 26.4375C0.59618 28.1824 1.37637 29.7475 2.60501 30.8057H0.703125C0.314859 30.8057 0 31.1205 0 31.5088V33.3281C0 34.8014 1.19862 36 2.67188 36H33.3277C34.8012 36 36 34.8012 36 33.3277V6.60938C36 4.67086 34.4229 3.09375 32.4844 3.09375ZM11.6953 5.37891C11.6953 5.76661 11.3799 6.08203 10.9922 6.08203C10.6045 6.08203 10.289 5.76661 10.289 5.37891V2.10938C10.289 1.72167 10.6045 1.40625 10.9922 1.40625C11.3799 1.40625 11.6953 1.72167 11.6953 2.10938V5.37891ZM27.7265 5.37891C27.7265 5.76661 27.4111 6.08203 27.0234 6.08203C26.6357 6.08203 26.3203 5.76661 26.3203 5.37891V2.10938C26.3203 1.72167 26.6357 1.40625 27.0234 1.40625C27.4111 1.40625 27.7265 1.72167 27.7265 2.10938V5.37891ZM2.00243 26.4375C2.00243 24.0337 3.95803 22.0781 6.3618 22.0781C8.76558 22.0781 10.7212 24.0337 10.7212 26.4375C10.7212 28.8413 8.76558 30.7969 6.3618 30.7969C3.95803 30.7969 2.00243 28.8413 2.00243 26.4375Z" fill="white"/>
<path d="M32.9277 9.1357C32.797 9.00492 32.6156 8.92969 32.4307 8.92969C32.2457 8.92969 32.0644 9.00492 31.9336 9.1357C31.8028 9.26648 31.7276 9.44789 31.7276 9.63281C31.7276 9.81773 31.8027 9.99914 31.9336 10.1299C32.0644 10.2607 32.2457 10.3359 32.4307 10.3359C32.6156 10.3359 32.797 10.2607 32.9277 10.1299C33.0585 9.99914 33.1338 9.81773 33.1338 9.63281C33.1338 9.44789 33.0586 9.26648 32.9277 9.1357Z" fill="white"/>
<path d="M20.9987 31.0113C20.868 30.8805 20.6866 30.806 20.5017 30.806C20.3167 30.806 20.1353 30.8805 20.0046 31.0113C19.8738 31.1428 19.7985 31.3235 19.7985 31.5084C19.7985 31.6941 19.8737 31.8748 20.0046 32.0063C20.1353 32.137 20.3167 32.2116 20.5017 32.2116C20.6866 32.2116 20.868 32.137 20.9987 32.0063C21.1295 31.8748 21.2048 31.6934 21.2048 31.5084C21.2048 31.3235 21.1296 31.1428 20.9987 31.0113Z" fill="white"/>
<path d="M15.9087 21.375C14.4355 21.375 13.2369 22.5736 13.2369 24.0469C13.2369 25.5201 14.4355 26.7188 15.9087 26.7188C17.382 26.7188 18.5806 25.5201 18.5806 24.0469C18.5806 22.5736 17.382 21.375 15.9087 21.375ZM15.9087 25.3125C15.2109 25.3125 14.6431 24.7447 14.6431 24.0469C14.6431 23.349 15.2109 22.7812 15.9087 22.7812C16.6066 22.7812 17.1744 23.349 17.1744 24.0469C17.1744 24.7447 16.6066 25.3125 15.9087 25.3125Z" fill="white"/>
<path d="M22.4703 21.375C20.997 21.375 19.7984 22.5736 19.7984 24.0469C19.7984 25.5201 20.997 26.7188 22.4703 26.7188C23.9435 26.7188 25.1421 25.5201 25.1421 24.0469C25.1421 22.5736 23.9435 21.375 22.4703 21.375ZM22.4703 25.3125C21.7724 25.3125 21.2046 24.7447 21.2046 24.0469C21.2046 23.349 21.7724 22.7812 22.4703 22.7812C23.1681 22.7812 23.7359 23.349 23.7359 24.0469C23.7359 24.7447 23.1681 25.3125 22.4703 25.3125Z" fill="white"/>
<path d="M29.0328 21.375C27.5595 21.375 26.3609 22.5736 26.3609 24.0469C26.3609 25.5201 27.5595 26.7188 29.0328 26.7188C30.506 26.7188 31.7046 25.5201 31.7046 24.0469C31.7046 22.5736 30.506 21.375 29.0328 21.375ZM29.0328 25.3125C28.3349 25.3125 27.7671 24.7447 27.7671 24.0469C27.7671 23.349 28.3349 22.7812 29.0328 22.7812C29.7306 22.7812 30.2984 23.349 30.2984 24.0469C30.2984 24.7447 29.7306 25.3125 29.0328 25.3125Z" fill="white"/>
<path d="M9.34527 14.0625C7.87202 14.0625 6.6734 15.2611 6.6734 16.7344C6.6734 18.2076 7.87202 19.4062 9.34527 19.4062C10.8185 19.4062 12.0171 18.2076 12.0171 16.7344C12.0171 15.2611 10.8185 14.0625 9.34527 14.0625ZM9.34527 18C8.64742 18 8.07965 17.4322 8.07965 16.7344C8.07965 16.0365 8.64742 15.4688 9.34527 15.4688C10.0431 15.4688 10.6109 16.0365 10.6109 16.7344C10.6109 17.4322 10.0431 18 9.34527 18Z" fill="white"/>
<path d="M22.4703 14.0625C20.997 14.0625 19.7984 15.2611 19.7984 16.7344C19.7984 18.2076 20.997 19.4062 22.4703 19.4062C23.9435 19.4062 25.1421 18.2076 25.1421 16.7344C25.1421 15.2611 23.9435 14.0625 22.4703 14.0625ZM22.4703 18C21.7724 18 21.2046 17.4322 21.2046 16.7344C21.2046 16.0365 21.7724 15.4688 22.4703 15.4688C23.1681 15.4688 23.7359 16.0365 23.7359 16.7344C23.7359 17.4322 23.1681 18 22.4703 18Z" fill="white"/>
<path d="M29.0328 14.0625C27.5595 14.0625 26.3609 15.2611 26.3609 16.7344C26.3609 18.2076 27.5595 19.4062 29.0328 19.4062C30.506 19.4062 31.7046 18.2076 31.7046 16.7344C31.7046 15.2611 30.506 14.0625 29.0328 14.0625ZM29.0328 18C28.3349 18 27.7671 17.4322 27.7671 16.7344C27.7671 16.0365 28.3349 15.4688 29.0328 15.4688C29.7306 15.4688 30.2984 16.0365 30.2984 16.7344C30.2984 17.4322 29.7306 18 29.0328 18Z" fill="white"/>
<path d="M15.9087 14.0625C14.4355 14.0625 13.2369 15.2611 13.2369 16.7344C13.2369 18.2076 14.4355 19.4062 15.9087 19.4062C17.382 19.4062 18.5806 18.2076 18.5806 16.7344C18.5806 15.2611 17.382 14.0625 15.9087 14.0625ZM15.9087 18C15.2109 18 14.6431 17.4322 14.6431 16.7344C14.6431 16.0365 15.2109 15.4688 15.9087 15.4688C16.6066 15.4688 17.1744 16.0365 17.1744 16.7344C17.1744 17.4322 16.6066 18 15.9087 18Z" fill="white"/>
<path d="M8.86756 24.7239C8.59292 24.4493 8.14784 24.4493 7.87313 24.7239L5.58334 27.0138L4.80083 26.2313C4.52619 25.9567 4.08111 25.9567 3.8064 26.2313C3.53183 26.5058 3.53183 26.9511 3.8064 27.2257L5.08616 28.5053C5.21806 28.6372 5.39687 28.7113 5.58334 28.7113C5.76981 28.7113 5.94861 28.6372 6.08052 28.5053L8.86756 25.7183C9.14213 25.4437 9.14213 24.9985 8.86756 24.7239Z" fill="white"/>
</svg>
