<svg width="24" height="36" viewBox="0 0 24 36" fill="none" xmlns="http://www.w3.org/2000/svg">
<path d="M12.0684 2.81286C11.6796 2.81004 11.3625 3.12294 11.3596 3.51106C11.3568 3.89919 11.669 4.2163 12.0578 4.21911C12.446 4.22192 12.7631 3.90974 12.7659 3.52161C12.7687 3.13348 12.4565 2.81637 12.0684 2.81286Z" fill="white"/>
<path d="M12.0379 7.03155C9.32306 7.01228 7.09971 9.20245 7.07918 11.9164C7.05872 14.6303 9.25008 16.8547 11.9641 16.8752C11.9767 16.8753 11.9892 16.8753 12.0018 16.8753C14.6985 16.8753 16.9024 14.6917 16.9228 11.9903C16.9433 9.27656 14.752 7.05201 12.0379 7.03155ZM12.0016 15.4691C11.9928 15.4691 11.9835 15.4691 11.9746 15.469C10.036 15.4544 8.47074 13.8654 8.48536 11.927C8.49992 9.99726 10.0741 8.43759 12.0004 8.43759C12.0092 8.43759 12.0185 8.43766 12.0274 8.43773C13.9659 8.45235 15.5312 10.0413 15.5166 11.9797C15.502 13.9095 13.9279 15.4691 12.0016 15.4691Z" fill="white"/>
<path d="M15.0677 3.34611C14.7019 3.21631 14.2998 3.40791 14.17 3.77396C14.0403 4.14001 14.2319 4.54184 14.5979 4.67164C17.6949 5.76929 19.759 8.71898 19.7342 12.0115C19.7313 12.3998 20.0437 12.717 20.4321 12.7199C20.4338 12.7199 20.4357 12.7199 20.4375 12.7199C20.8232 12.7199 21.1375 12.4086 21.1405 12.0221C21.1697 8.13046 18.7292 4.64387 15.0677 3.34611Z" fill="white"/>
<path d="M16.3145 26.4686C20.9912 20.4488 23.9138 17.3097 23.9533 12.043C24.0028 5.41653 18.6251 0 11.9992 0C5.45052 0 0.0970588 5.30354 0.0472775 11.8637C0.00705864 17.2732 2.98403 20.408 7.693 26.4676C3.00842 27.1677 0.0472775 28.9267 0.0472775 31.0782C0.0472775 32.5194 1.37942 33.8126 3.79839 34.7197C6.00009 35.5453 8.91293 36 12.0003 36C15.0876 36 18.0005 35.5453 20.2022 34.7197C22.6211 33.8126 23.9533 32.5193 23.9533 31.0781C23.9533 28.9278 20.9949 27.1692 16.3145 26.4686ZM1.45346 11.8743C1.49733 6.08556 6.22059 1.40625 11.9993 1.40625C17.8464 1.40625 22.5907 6.18667 22.5471 12.0325C22.5097 17.0342 19.4102 20.1164 14.4618 26.5671C13.5792 27.7172 12.7686 28.8045 12.0013 29.8681C11.2363 28.8039 10.4419 27.736 9.54609 26.5667C4.39316 19.846 1.41535 16.9966 1.45346 11.8743ZM12.0003 34.5938C5.96387 34.5938 1.45346 32.7378 1.45346 31.0782C1.45346 29.8474 4.14981 28.2927 8.68343 27.7543C9.68559 29.0692 10.5642 30.2638 11.426 31.4839C11.5576 31.6702 11.7715 31.7812 11.9997 31.7813C11.9994 31.7813 11.9999 31.7813 11.9997 31.7813C12.2276 31.7813 12.4421 31.6708 12.5739 31.4848C13.4275 30.2806 14.3302 29.0566 15.3238 27.7551C19.8532 28.294 22.5471 29.8483 22.5471 31.0783C22.547 32.7378 18.0367 34.5938 12.0003 34.5938Z" fill="white"/>
</svg>
