<svg width="36" height="34" viewBox="0 0 36 34" fill="none" xmlns="http://www.w3.org/2000/svg">
<path d="M33.0469 12.488C32.862 12.488 32.6805 12.5632 32.5497 12.694C32.419 12.8247 32.3438 13.0057 32.3438 13.1911C32.3438 13.3759 32.419 13.5575 32.5497 13.6882C32.6805 13.819 32.862 13.8942 33.0469 13.8942C33.2317 13.8942 33.4133 13.819 33.544 13.6882C33.6747 13.5575 33.75 13.3759 33.75 13.1911C33.75 13.0062 33.6747 12.8247 33.544 12.694C33.4133 12.5632 33.2317 12.488 33.0469 12.488Z" fill="white"/>
<path d="M34.6377 21.7426L33.5794 19.1679C33.689 18.901 33.75 18.609 33.75 18.303V15.8814C33.75 15.4933 33.4352 15.1782 33.0469 15.1782C32.6585 15.1782 32.3438 15.4933 32.3438 15.8814V18.303C32.3438 18.7878 31.9496 19.1819 31.4648 19.1819C30.9801 19.1819 30.5859 18.7878 30.5859 18.303V8.24505L31.8779 7.49083C32.0433 7.39416 32.1987 7.28649 32.3438 7.17003V10.3217C32.3438 10.7101 32.6585 11.0249 33.0469 11.0249C33.4352 11.0249 33.75 10.7101 33.75 10.3217V4.47619C33.8033 3.74367 33.6462 2.98919 33.2531 2.30831C32.7404 1.42034 31.9117 0.789178 30.9196 0.530725C29.9273 0.272271 28.896 0.419214 28.0154 0.94436L17.1409 7.42794L13.5634 6.63939C12.8941 6.4919 12.2033 6.6534 11.6691 7.08297C11.1346 7.51253 10.8281 8.15194 10.8281 8.83748V13.6264H3.83203C3.03717 13.6264 2.39062 14.273 2.39062 15.0678V21.4663C2.39062 22.2611 3.03717 22.9077 3.83203 22.9077H6.66348V24.3139H4.64062C2.08163 24.3139 0 26.3955 0 28.9545C0 31.5133 2.08163 33.5952 4.64062 33.5952H20.6719C23.2309 33.5952 25.3125 31.5133 25.3125 28.9545C25.3125 26.3955 23.2309 24.3139 20.6719 24.3139H18.7572V22.9077H20.8301C21.9834 22.9077 22.9219 21.9692 22.9219 20.8159V12.7195L29.1797 9.066V18.303C29.1797 19.1234 29.6145 19.8439 30.2654 20.2471L31.6472 23.5267L30.7049 24.4691H26.6954C26.307 24.4691 25.9923 24.7841 25.9923 25.1722C25.9923 27.9314 28.2371 30.1762 30.996 30.1762C33.7552 30.1762 36 27.9314 36 25.1722C36 23.8857 35.5166 22.6745 34.6377 21.7426ZM21.5156 17.7732H19.4073C19.2632 17.7732 19.1459 17.6559 19.1459 17.5117V15.6023C19.1459 15.2142 18.8311 14.8992 18.4427 14.8992H16.1521C16.0079 14.8992 15.8906 14.7819 15.8906 14.6377V8.59221L20.9776 9.71337C21.2893 9.78231 21.5156 10.0636 21.5156 10.383V17.7732ZM23.9062 28.9545C23.9062 30.7379 22.4552 32.1889 20.6719 32.1889H4.64062C2.85727 32.1889 1.40625 30.7379 1.40625 28.9545C1.40625 27.1712 2.85727 25.7202 4.64062 25.7202H20.6719C22.4552 25.7202 23.9062 27.1712 23.9062 28.9545ZM17.351 24.3139H8.06973V22.9077H17.351V24.3139ZM20.8301 21.5014H3.83203C3.81281 21.5014 3.79688 21.4855 3.79688 21.4663V15.0678C3.79688 15.0483 3.81281 15.0327 3.83203 15.0327H11.5312C11.9196 15.0327 12.2344 14.7176 12.2344 14.3295V8.83748C12.2344 8.5804 12.3495 8.34035 12.55 8.17913C12.7505 8.0179 13.0097 7.9572 13.2608 8.01268L14.4844 8.2824V14.6377C14.4844 15.5573 15.2325 16.3054 16.1521 16.3054H17.7396V17.5117C17.7396 18.4313 18.4878 19.1795 19.4073 19.1795H21.5156V20.8159C21.5156 21.1938 21.208 21.5014 20.8301 21.5014ZM21.2802 8.34008L19.1456 7.86959L28.7356 2.15203C29.2904 1.82134 29.9402 1.72878 30.5651 1.89166C31.1902 2.05453 31.7123 2.45223 32.0353 3.01144C32.221 3.33306 32.3229 3.68078 32.3484 4.02877C32.3454 4.05431 32.3438 4.08041 32.3438 4.10677V4.42565C32.2745 5.17025 31.8606 5.87255 31.1688 6.2763L22.9219 11.0911V10.383C22.9219 9.40905 22.2317 8.54992 21.2802 8.34008ZM31.9164 20.5431C32.135 20.4992 32.3421 20.4237 32.5335 20.322L33.2089 21.9653L32.7209 22.4531L31.9164 20.5431ZM30.996 28.77C29.253 28.77 27.7954 27.5236 27.4675 25.8753H30.996C31.1825 25.8753 31.3613 25.8015 31.4931 25.6696L33.989 23.1738C34.3823 23.7605 34.5938 24.4501 34.5938 25.1722C34.5938 27.1561 32.9799 28.77 30.996 28.77Z" fill="white"/>
<path d="M29.8828 4.8099C30.0677 4.8099 30.2492 4.73464 30.3799 4.6039C30.5107 4.47317 30.5859 4.29162 30.5859 4.10677C30.5859 3.92193 30.5107 3.74038 30.3799 3.60964C30.2492 3.4789 30.0677 3.40365 29.8828 3.40365C29.698 3.40365 29.5164 3.4789 29.3857 3.60964C29.2549 3.74038 29.1797 3.92193 29.1797 4.10677C29.1797 4.29162 29.2549 4.47317 29.3857 4.6039C29.5164 4.73464 29.698 4.8099 29.8828 4.8099Z" fill="white"/>
<path d="M25.8561 7.09725C26.0409 7.09725 26.2222 7.02199 26.3532 6.89098C26.4839 6.76024 26.5592 6.57897 26.5592 6.39413C26.5592 6.20846 26.4839 6.02773 26.3532 5.89699C26.2222 5.76626 26.0409 5.691 25.8561 5.691C25.6704 5.691 25.4897 5.76598 25.3589 5.89699C25.2274 6.02773 25.1529 6.20846 25.1529 6.39413C25.1529 6.57897 25.2274 6.76024 25.3589 6.89098C25.4897 7.02199 25.6712 7.09725 25.8561 7.09725Z" fill="white"/>
<path d="M20.6719 31.0639C21.8351 31.0639 22.7812 30.1175 22.7812 28.9545C22.7812 27.7914 21.8351 26.8452 20.6719 26.8452C19.5087 26.8452 18.5625 27.7914 18.5625 28.9545C18.5625 30.1175 19.5087 31.0639 20.6719 31.0639ZM20.6719 28.2514C21.0597 28.2514 21.375 28.5667 21.375 28.9545C21.375 29.3421 21.0597 29.6577 20.6719 29.6577C20.2841 29.6577 19.9688 29.3421 19.9688 28.9545C19.9688 28.5667 20.2841 28.2514 20.6719 28.2514Z" fill="white"/>
<path d="M16.7257 28.2561H8.69551C8.30714 28.2561 7.99238 28.5709 7.99238 28.9592C7.99238 29.3473 8.30714 29.6623 8.69551 29.6623H16.7257C17.1141 29.6623 17.4288 29.3473 17.4288 28.9592C17.4288 28.5709 17.1141 28.2561 16.7257 28.2561Z" fill="white"/>
<path d="M4.64062 26.8498C3.47745 26.8498 2.53125 27.796 2.53125 28.9592C2.53125 30.1221 3.47745 31.0686 4.64062 31.0686C5.8038 31.0686 6.75 30.1221 6.75 28.9592C6.75 27.796 5.8038 26.8498 4.64062 26.8498ZM4.64062 29.6623C4.25281 29.6623 3.9375 29.3468 3.9375 28.9592C3.9375 28.5714 4.25281 28.2561 4.64062 28.2561C5.02844 28.2561 5.34375 28.5714 5.34375 28.9592C5.34375 29.3468 5.02844 29.6623 4.64062 29.6623Z" fill="white"/>
<path d="M10.1266 16.1577H5.56896C5.18087 16.1577 4.86584 16.4724 4.86584 16.8608C4.86584 17.2489 5.18087 17.5639 5.56896 17.5639H10.1266C10.515 17.5639 10.8298 17.2489 10.8298 16.8608C10.8298 16.4724 10.515 16.1577 10.1266 16.1577Z" fill="white"/>
<path d="M10.1266 18.9702H5.56896C5.18087 18.9702 4.86584 19.2849 4.86584 19.6733C4.86584 20.0614 5.18087 20.3764 5.56896 20.3764H10.1266C10.515 20.3764 10.8298 20.0614 10.8298 19.6733C10.8298 19.2849 10.515 18.9702 10.1266 18.9702Z" fill="white"/>
<path d="M12.3806 18.9702C12.1949 18.9702 12.0136 19.0452 11.8837 19.1762C11.7522 19.3069 11.6774 19.4882 11.6774 19.6733C11.6774 19.8581 11.7522 20.0394 11.8837 20.1702C12.0136 20.3012 12.1952 20.3764 12.3806 20.3764C12.5657 20.3764 12.747 20.3012 12.8777 20.1702C13.0084 20.0394 13.0837 19.8581 13.0837 19.6733C13.0837 19.4882 13.0087 19.3069 12.8777 19.1762C12.747 19.0454 12.5657 18.9702 12.3806 18.9702Z" fill="white"/>
</svg>
