<svg width="80" height="80" viewBox="0 0 80 80" fill="none" xmlns="http://www.w3.org/2000/svg">
<path d="M73.224 68.2183V63.814C73.224 60.8203 71.4732 59.0708 68.4777 59.0708H38.6443C34.6181 59.0708 32.542 60.9762 32.542 63.814V69.5315C32.542 72.4954 34.534 73.9779 38.6443 73.9779H68.4777C71.4732 73.9779 73.224 71.9872 73.224 68.2183ZM67.7997 68.5572H37.9663V64.4915H67.7997V68.5572Z" fill="currentColor"/>
<path d="M50.1703 27.9015V29.2566V40.8719V40.8733L51.898 45.5188H48.9906L20.6243 6.02197L14.3742 9.78942L16.2686 13.1082V30.6117H14.2671L15.6123 40.0981H16.2008H16.2686V42.9643C15.0482 43.5186 13.6921 44.7085 13.6921 46.8456C13.6921 48.2808 14.2522 49.3284 15.0712 50.0276L7.71729 56.3604H9.79481L16.308 50.7514C16.898 50.9818 17.5285 51.109 18.1523 51.109C18.7788 51.109 19.4012 50.9424 19.9626 50.6401L27.0237 56.3603H29.1405L29.1554 56.3413L21.0326 49.7619C21.5831 49.0991 21.948 48.2102 21.948 47.073C21.948 46.3236 21.3405 45.7179 20.592 45.7179C19.8434 45.7179 19.236 46.3236 19.236 47.073C19.236 47.5597 19.1044 47.8645 18.9323 48.0611L18.5607 47.7602C18.3071 47.5556 17.9396 47.5583 17.6915 47.7738L17.183 48.2116C16.7435 48.0082 16.4046 47.6099 16.4046 46.8469C16.4046 45.6217 17.6211 45.3251 17.8502 45.2816C18.5038 45.1692 18.9812 44.6054 18.9812 43.944V40.0979H19.9305H20.4864L22.3835 30.6116H21.0153H20.3369V20.7756L36.6097 52.0736V52.2891V52.697V53.6498H42.0339V56.3601H61.0189H62.3749V53.6498H69.1551H70.5111V27.9015H50.1703ZM38.4403 34.9484L38.4566 34.9715L32.9239 38.5696L35.7689 31.276L38.4403 34.9484ZM18.9807 30.6119H18.3028H17.6248V15.6641L18.9807 18.22V30.6119ZM20.1605 16.7971L17.82 12.3548L21.4692 9.9575L20.1605 16.7971ZM23.3338 12.7247L25.9347 17.2348L21.7364 19.937L23.3338 12.7247ZM23.75 22.5281L27.7057 19.9573L26.1571 26.9975L23.75 22.5281ZM29.3777 22.2544L32.2947 26.5056L27.9092 29.3122L29.3777 22.2544ZM28.9275 32.5511L33.8283 29.1957L31.0375 36.6654L28.9275 32.5511ZM36.1811 45.4375L33.8176 41.269L39.6851 37.0815L36.1811 45.4375ZM38.0225 48.3987L42.0338 39.7594L45.2966 44.2058L38.0225 48.3987ZM65.087 41.4533H55.5945V33.3222H65.087V41.4533Z" fill="currentColor"/>
<path d="M8.13236 64.4914H6.77637V67.2018H28.4734V64.4914H25.7613V61.7811V60.4259H28.4734V57.7156H6.77637V60.4259H9.4885V64.4914H8.13236Z" fill="currentColor"/>
</svg>
