<svg width="80" height="80" viewBox="0 0 80 80" fill="none" xmlns="http://www.w3.org/2000/svg">
<path d="M71.3471 63.4281C69.4936 60.8403 66.3042 59.4439 63.1895 59.8778C61.4968 56.8345 58.0281 54.9914 54.5227 55.4783C53.0134 52.7644 50.1583 51 47 51C43.8417 51 40.9865 52.7644 39.4773 55.4783C35.9762 54.9914 32.5032 56.8345 30.8105 59.8778C27.6945 59.4439 24.5064 60.8403 22.6529 63.4281C20.9967 65.7409 20.5609 68.6739 21.4552 71.4767C21.7478 72.3901 22.5701 72.978 23.4674 72.9977C23.7041 73.0029 70.4838 72.9977 70.4838 72.9977C71.3979 72.9977 72.2486 72.4062 72.5448 71.4767C73.4391 68.6742 73.0033 65.7412 71.3471 63.4281Z" fill="currentColor"/>
<path d="M70.8435 17H50V47.4321C52.6163 48.0342 54.9881 49.4389 56.785 51.4458C60.0769 51.7182 63.1818 53.2805 65.3957 55.7461C68.1988 55.9898 70.8869 57.1365 73 59V19.1502C72.9997 17.9604 72.0366 17 70.8435 17ZM66.5311 42.8021H56.4687C55.2756 42.8021 54.3124 41.8417 54.3124 40.6519C54.3124 39.4622 55.2756 38.5018 56.4687 38.5018H66.5311C67.7242 38.5018 68.6873 39.4622 68.6873 40.6519C68.6873 41.8417 67.7242 42.8021 66.5311 42.8021ZM66.5311 34.2014H56.4687C55.2756 34.2014 54.3124 33.241 54.3124 32.0513C54.3124 30.8615 55.2756 29.9011 56.4687 29.9011H66.5311C67.7242 29.9011 68.6873 30.8615 68.6873 32.0513C68.6873 33.241 67.7242 34.2014 66.5311 34.2014ZM66.5311 25.6008H56.4687C55.2756 25.6008 54.3124 24.6404 54.3124 23.4506C54.3124 22.2609 55.2756 21.3005 56.4687 21.3005H66.5311C67.7242 21.3005 68.6873 22.2609 68.6873 23.4506C68.6873 24.6404 67.7242 25.6008 66.5311 25.6008Z" fill="currentColor"/>
<path d="M43.8336 7H9.16667C7.96776 7 7 7.96129 7 9.15217V70.8478C7 72.0387 7.96776 73 9.16667 73H17.8479C17.8335 72.9426 17.7901 72.8996 17.7756 72.8422C16.6634 69.4274 16.9667 65.8835 18.5556 62.8274C18.3244 62.8992 18.0789 62.9566 17.8333 62.9566C16.6344 62.9566 15.6667 61.9953 15.6667 60.8044V56.5001C15.6667 55.3092 16.6344 54.3479 17.8333 54.3479C19.0322 54.3479 20 55.3092 20 56.5001V60.6179C21.1845 59.1543 22.6723 57.9922 24.3333 57.1744V56.5001C24.3333 55.3092 25.3011 54.3479 26.5 54.3479C27.4822 54.3479 28.3056 55.0079 28.5656 55.8974C28.739 55.8832 28.9122 55.84 29.0856 55.8256C30.1978 54.5917 31.5267 53.5873 33 52.8556V43.5869C33 42.3961 33.9678 41.4348 35.1667 41.4348C36.3656 41.4348 37.3333 42.3961 37.3333 43.5869V51.5643C37.4634 51.55 37.6078 51.5356 37.7377 51.5213C39.861 49.1538 42.8076 47.6186 46 47.26C46 23.3421 46 24.9204 46 9.15217C46.0003 7.96129 45.0325 7 43.8336 7ZM20.0001 47.8913C20.0001 49.0821 19.0324 50.0434 17.8335 50.0434C16.6346 50.0434 15.6668 49.0821 15.6668 47.8913V43.5869C15.6668 42.3961 16.6346 41.4348 17.8335 41.4348C19.0324 41.4348 20.0001 42.3961 20.0001 43.5869V47.8913ZM20.0001 34.9783C20.0001 36.1692 19.0324 37.1304 17.8335 37.1304C16.6346 37.1304 15.6668 36.1692 15.6668 34.9783V30.6739C15.6668 29.4831 16.6346 28.5218 17.8335 28.5218C19.0324 28.5218 20.0001 29.4831 20.0001 30.6739V34.9783ZM20.0001 22.0652C20.0001 23.256 19.0324 24.2173 17.8335 24.2173C16.6346 24.2173 15.6668 23.256 15.6668 22.0652V19.1956C15.6668 18.0047 16.6346 17.0434 17.8335 17.0434C19.0324 17.0434 20.0001 18.0047 20.0001 19.1956V22.0652ZM28.6668 49.6991C28.6668 50.89 27.699 51.8513 26.5001 51.8513C25.3012 51.8513 24.3335 50.89 24.3335 49.6991V43.5869C24.3335 42.3961 25.3012 41.4348 26.5001 41.4348C27.699 41.4348 28.6668 42.3961 28.6668 43.5869V49.6991ZM28.6668 34.9783C28.6668 36.1692 27.699 37.1304 26.5001 37.1304C25.3012 37.1304 24.3335 36.1692 24.3335 34.9783V30.6739C24.3335 29.4831 25.3012 28.5218 26.5001 28.5218C27.699 28.5218 28.6668 29.4831 28.6668 30.6739V34.9783ZM28.6668 22.0652C28.6668 23.256 27.699 24.2173 26.5001 24.2173C25.3012 24.2173 24.3335 23.256 24.3335 22.0652V19.1956C24.3335 18.0047 25.3012 17.0434 26.5001 17.0434C27.699 17.0434 28.6668 18.0047 28.6668 19.1956V22.0652ZM37.3335 34.9783C37.3335 36.1692 36.3657 37.1304 35.1668 37.1304C33.9679 37.1304 33.0001 36.1692 33.0001 34.9783V30.6739C33.0001 29.4831 33.9679 28.5218 35.1668 28.5218C36.3657 28.5218 37.3335 29.4831 37.3335 30.6739V34.9783ZM37.3335 22.0652C37.3335 23.256 36.3657 24.2173 35.1668 24.2173C33.9679 24.2173 33.0001 23.256 33.0001 22.0652V19.1956C33.0001 18.0047 33.9679 17.0434 35.1668 17.0434C36.3657 17.0434 37.3335 18.0047 37.3335 19.1956V22.0652Z" fill="currentColor"/>
</svg>
