<svg width="80" height="80" viewBox="0 0 80 80" fill="none" xmlns="http://www.w3.org/2000/svg">
<path d="M55.608 51.2433C56.0827 51.2433 56.5462 51.1428 57 51V66.8144C57 67.7381 56.4459 68.5615 55.6149 68.8717C55.3851 68.9592 55.1471 69 54.9119 69C54.2993 69 53.7021 68.7174 53.2985 68.2001L40 51.2433H45.4026L52.8237 60.7066V51.2433H55.608Z" fill="currentColor"/>
<path d="M64.5295 36.6644L63 38L63.3115 32.7478L63.9991 32.1476C64.1116 32.0498 64.2294 32 64.3492 32H73.0016C73.5527 32 74 33.0447 74 34.3321C74 35.6196 73.5527 36.6644 73.0016 36.6644H64.5295Z" fill="currentColor"/>
<path d="M7 58.9796C7 52.8934 11.6989 47.9592 17.4948 47.9592C20.1942 47.9592 22.6485 49.0386 24.5087 50.7983L30.7711 46L32.2582 47.6161C32.7232 48.1105 33.3264 48.638 34 49.1383L27.0582 54.458C27.6514 55.8381 27.9898 57.3665 27.9898 58.9796C27.9898 65.0658 23.2909 70 17.495 70C11.699 70 7 65.0658 7 58.9796ZM17.4948 62.724C19.4383 62.724 21.0118 61.0899 21.0536 59.0596C21.0536 59.0324 21.0609 59.0066 21.0609 58.9794C21.0609 57.2803 19.9754 55.8607 18.4984 55.4043C18.1788 55.3045 17.8462 55.235 17.495 55.235C15.5257 55.235 13.929 56.9115 13.929 58.9796C13.929 61.0477 15.5255 62.724 17.4948 62.724Z" fill="currentColor"/>
<path d="M32.1105 45.0998L17.6323 29.3829C16.5269 28.2099 16.9088 28 18.4816 28H58.5164C60.0892 28 61.1945 28.774 60.9714 30.4075L60.428 34.4006L59.7374 39.4765L58.921 45.4675C58.7665 46.6014 58.0059 47.848 57.0335 48.5139C56.6046 48.808 56.1385 49 55.6567 49H52.7971H42.8269H38.2602C37.9084 49 37.5223 48.9249 37.1277 48.808C36.5843 48.6475 36.0224 48.3939 35.4849 48.0864C34.667 47.6198 33.9079 47.0394 33.3917 46.4904L32.1105 45.0998Z" fill="currentColor"/>
<path d="M32.5 14.5001H40.2L42.475 10H47.1999L50.875 17.5001H54.2L57 25H22L24.275 20.5001H29.0001L32.5 14.5001Z" fill="currentColor"/>
</svg>
