<svg width="80" height="80" viewBox="0 0 80 80" fill="none" xmlns="http://www.w3.org/2000/svg">
<path d="M66.9577 60.869C68.3984 60.869 69.5663 59.7011 69.5663 58.2605C69.5663 56.8198 68.3984 55.6519 66.9577 55.6519C65.517 55.6519 64.3491 56.8198 64.3491 58.2605C64.3491 59.7011 65.517 60.869 66.9577 60.869Z" fill="currentColor"/>
<path d="M33.9152 60.869C35.3559 60.869 36.5238 59.7011 36.5238 58.2605C36.5238 56.8198 35.3559 55.6519 33.9152 55.6519C32.4745 55.6519 31.3066 56.8198 31.3066 58.2605C31.3066 59.7011 32.4745 60.869 33.9152 60.869Z" fill="currentColor"/>
<path d="M66.9568 45.2173H33.9146C30.9766 45.2173 28.2716 46.2054 26.0888 47.8506V32.1743C26.0888 30.9914 25.2923 29.9564 24.1495 29.6532C23.0098 29.351 21.8041 29.8535 21.2148 30.8803L0.346021 67.4006C-0.64476 69.139 0.61024 71.3032 2.61149 71.3032H13.0459C17.3149 71.3032 21.0995 69.2328 23.4802 66.0532C25.861 69.2329 29.6456 71.3032 33.9146 71.3032H66.9568C74.149 71.3032 79.9998 65.4524 79.9998 58.2603C79.9999 51.0681 74.1491 45.2173 66.9568 45.2173ZM33.9146 66.086C29.5993 66.086 26.0888 62.5756 26.0888 58.2603C26.0888 53.9449 29.5993 50.4345 33.9146 50.4345C38.2299 50.4345 41.7404 53.9449 41.7404 58.2603C41.7404 62.5756 38.2299 66.086 33.9146 66.086ZM66.9568 66.086C62.6415 66.086 59.131 62.5756 59.131 58.2603C59.131 53.9449 62.6415 50.4345 66.9568 50.4345C71.2721 50.4345 74.7826 53.9449 74.7826 58.2603C74.7826 62.5756 71.2721 66.086 66.9568 66.086Z" fill="currentColor"/>
<path d="M66.9569 8.69678H51.3054C50.108 8.69678 49.0652 9.51115 48.7749 10.6727L44.0518 29.5657H41.7405V26.9571C41.7405 25.5162 40.5721 24.3485 39.1319 24.3485C37.6918 24.3485 36.5233 25.5162 36.5233 26.9571V30.9774C33.4097 32.7851 31.3062 36.1479 31.3062 40.0001V40.2083C32.1605 40.0854 33.0268 40.0001 33.9147 40.0001H66.9569C69.7599 40.0001 72.4069 40.6535 74.7827 41.7869V16.5226C74.7829 12.2072 71.2722 8.69678 66.9569 8.69678ZM64.3483 26.9571C64.3483 28.3977 63.1804 29.5657 61.7397 29.5657H49.429L53.3416 13.9141H61.7397C63.1804 13.9141 64.3483 15.0821 64.3483 16.5227V26.9571Z" fill="currentColor"/>
</svg>
