<svg width="80" height="80" viewBox="0 0 80 80" fill="none" xmlns="http://www.w3.org/2000/svg">
<path d="M64.1163 21.6027L54.0887 41.8613L50.7 40.1949L60.7276 19.9363L64.1163 21.6027ZM76.6666 5.37856L75.7231 7.07871C74.6397 9.08021 72.4608 13.0922 69.3129 13.9348L66.3576 19.904L60.7088 17.1282L63.6099 11.2654C62.1947 8.12219 64.2216 3.43103 65.123 1.37256L65.7196 0L76.6666 5.37856ZM71.874 8.61994L66.1402 5.8036C65.4329 8.18141 65.2719 10.4475 66.9459 11.2714C68.778 12.1709 70.3941 10.7894 71.874 8.61994ZM41.2826 61.3928C42.8566 61.2039 46.6169 61.072 49.6512 63.3448C50.2125 63.7661 50.7136 64.2511 51.165 64.7864L53.2295 60.6169L54.1542 58.7504L57.2434 52.5067C57.6737 51.6357 55.68 49.9925 52.3883 48.1312L54.1015 44.6679L48.4519 41.8928L46.7396 45.3561C44.9775 44.6747 42.4917 43.8696 41.1705 43.8696C40.7236 43.8696 40.4091 43.9618 40.2993 44.1829L36.0521 52.7571L34.117 56.6672L34.0388 56.8253C33.9056 57.093 33.8989 57.4355 33.9779 57.8268C36.3418 58.0195 38.863 59.024 41.2826 61.3928ZM62.668 69.3253C62.7033 67.3253 60.763 66.7226 59.329 66.7226C58.9325 66.7226 58.5578 66.8276 58.1944 66.9753C58.7308 66.1409 59.0513 65.1582 59.0513 64.099C59.0513 61.7759 57.8212 59.9985 56.2457 59.551L52.9383 66.2316C52.8285 66.4543 52.672 66.6529 52.4899 66.8388C53.1821 68.2789 53.6057 69.9783 53.7569 71.928C53.8126 72.6499 53.2694 73.2804 52.5463 73.3351C52.511 73.3388 52.4771 73.3403 52.4433 73.3403C51.7631 73.3403 51.1838 72.8178 51.1326 72.1297C50.8979 69.0375 49.8641 66.7886 48.075 65.446C45.1551 63.2601 41.1299 64.069 41.0862 64.0742L40.3632 64.2241L39.8576 63.6874C33.4783 56.913 26.9176 62.6919 26.6423 62.943C26.1028 63.4273 25.2714 63.3906 24.7816 62.8531C24.2934 62.3141 24.3347 61.4873 24.8742 60.997C26.3323 59.6792 28.8316 58.2234 31.7621 57.8643C31.6801 57.2864 31.7223 56.7556 31.9465 56.3073L32.5604 55.0645L33.7153 52.7346C32.8877 52.7504 33.008 52.8096 32.2542 53.0337C30.1957 50.3958 26.9507 48.6867 23.2882 48.6867C17.0631 48.6867 12.0162 53.6057 12.0162 59.6724C12.0162 60.5855 12.1426 61.467 12.357 62.3118C8.80131 63.7856 6.41931 66.44 6.41931 69.4798C6.41931 70.452 6.67511 71.3831 7.12352 72.2504C5.53377 72.9438 4.44434 74.2571 4.44434 75.7841C4.44434 77.8276 6.37868 79.5 8.88783 79.7841V79.8403H9.62741H59.9421C60.1453 79.8876 60.3492 79.9198 60.5651 79.9198C60.5786 79.9198 60.5869 79.9183 60.599 79.9168C60.8796 79.961 61.1632 80 61.4604 80C64.4947 80 66.9572 77.5787 66.9572 74.587C66.9505 72.0172 65.1162 69.8681 62.668 69.3253Z" fill="currentColor"/>
</svg>
