<svg width="80" height="80" viewBox="0 0 80 80" fill="none" xmlns="http://www.w3.org/2000/svg">
<g clip-path="url(#clip0_1814_25955)">
<path d="M50.3226 26.9247C50.3226 26.8387 50.3226 26.7527 50.3226 26.6667V22.3656C50.3226 21.4194 49.5484 20.6452 48.6022 20.6452H43.785L41.2043 18.0645L44.9033 14.3656C45.2473 14.0215 45.2473 13.5054 44.9033 13.1613L41.2043 9.46237L44.9033 5.76344C45.2473 5.41935 45.2473 4.90323 44.9033 4.55914L40.6022 0.258065C40.2581 -0.0860215 39.742 -0.0860215 39.3979 0.258065L35.0968 4.55914C34.7527 4.90323 34.7527 5.41935 35.0968 5.76344L38.7957 9.46237L35.0968 13.1613C34.7527 13.5054 34.7527 14.0215 35.0968 14.3656L38.7957 18.0645L36.2151 20.6452H31.3979C30.4516 20.6452 29.6774 21.4194 29.6774 22.3656V26.6667C29.6774 26.7527 29.6774 26.8387 29.6774 26.9247C19.6129 31.0538 12.4731 40.9462 12.4731 52.4731C12.4731 67.6129 24.8602 80 40 80C55.1398 80 67.5269 67.6129 67.5269 52.4731C67.5269 40.9462 60.3871 31.0538 50.3226 26.9247ZM36.9032 5.16129L40 2.06452L43.0968 5.16129L40 8.25807L36.9032 5.16129ZM36.9032 13.7634L40 10.6667L43.0968 13.7634L40 16.8602L36.9032 13.7634ZM40 19.2688L41.3764 20.6452H38.6237L40 19.2688ZM40 70.5376C30.0215 70.5376 21.9355 62.4516 21.9355 52.4731C21.9355 51.957 22.2796 51.6129 22.7957 51.6129C23.3119 51.6129 23.6559 51.957 23.6559 52.4731C23.6559 61.5054 30.9678 68.8172 40 68.8172C40.5162 68.8172 40.8602 69.1613 40.8602 69.6774C40.8602 70.1936 40.5162 70.5376 40 70.5376ZM46.8817 25.8065C44.6452 25.2043 42.4086 24.9462 40 24.9462C37.5914 24.9462 35.3549 25.2903 33.1183 25.8065V24.086H46.8817V25.8065Z" fill="currentColor"/>
</g>
<defs>
<clipPath id="clip0_1814_25955">
<rect width="80" height="80" fill="white"/>
</clipPath>
</defs>
</svg>
