<svg width="50" height="50" viewBox="0 0 50 50" fill="none" xmlns="http://www.w3.org/2000/svg">
<path d="M39.8438 21.0938H35.1562V14.8438H39.8438V21.0938Z" fill="#FE603A"/>
<path d="M19.4148 26.0672L22.6562 25.3469V18.4414C22.6562 17.9781 22.5203 17.5289 22.2625 17.1414L21.2648 15.6445C20.9305 15.143 20.3711 14.8438 19.768 14.8438C18.7758 14.8438 17.9688 15.6508 17.9688 16.643V26.8383C18.3672 26.4672 18.8578 26.1914 19.4148 26.0672Z" fill="#FE603A"/>
<path d="M39.8438 39.8438H12.5V44.5312H39.8438C40.7055 44.5312 41.4062 43.8305 41.4062 42.9688V41.4062C41.4062 40.5445 40.7055 39.8438 39.8438 39.8438Z" fill="#FE603A"/>
<path d="M19.5312 28.9062H21.0938V30.4688H19.5312V28.9062Z" fill="currentCOlor"/>
<path d="M22.6562 28.9062H24.2188V30.4688H22.6562V28.9062Z" fill="currentCOlor"/>
<path d="M21.0938 32.0312H22.6562V33.5938H21.0938V32.0312Z" fill="currentCOlor"/>
<path d="M44.4781 25.8359C44.3141 24.9266 43.7477 24.1516 42.9688 23.6937V13.2812H43.75C44.6117 13.2812 45.3125 12.5805 45.3125 11.7188V10.1562C45.3125 9.29453 44.6117 8.59375 43.75 8.59375H26.5625C25.7008 8.59375 25 9.29453 25 10.1562V11.7188C25 12.25 25.268 12.7188 25.6742 13.0016L23.5461 24.35L19.2461 25.3055C17.5812 25.675 16.3586 27.0656 16.2031 28.757L15.9937 30.8219L13.2812 29.2391V28.9062C13.2812 28.0445 12.5805 27.3438 11.7188 27.3438C10.4297 27.3438 9.33359 28.2227 9.05469 29.4805L6.40469 41.4062H5.81328C4.80312 41.4062 3.90937 42.05 3.58984 43.0086L3.25 44.0297L1.825 44.9797C1.17109 45.4156 0.78125 46.1445 0.78125 46.9297V49.2188H11.7188C12.5805 49.2188 13.2812 48.518 13.2812 47.6562V44.5312H12.5V39.8438H13.2812V34.1727L15.5211 35.4789L15.0773 39.8438H17.6133C18.3414 39.0398 19.332 38.4961 20.4219 38.3383L23.0031 39.8438H26.1039L13.2812 32.3641V31.0477L28.3602 39.8438H31.4609L25.275 36.2352L30.6516 34.1437C30.5414 34.4633 30.4688 34.8 30.4688 35.1562C30.4688 36.7578 31.6844 38.0664 33.2391 38.2453C32.9078 38.7352 32.6336 39.2703 32.4313 39.8438H34.1281C35.0187 37.9656 36.9195 36.7188 39.0625 36.7188C42.0773 36.7188 44.5312 39.1719 44.5312 42.1875C44.5312 45.2031 42.0773 47.6562 39.0625 47.6562C36.9195 47.6562 35.0187 46.4094 34.1281 44.5312H32.4555C32.8977 45.7789 33.6539 46.8563 34.6461 47.6562H25.2125C26.1367 46.8445 26.8219 45.7641 27.1414 44.5312H25.5078C24.8563 46.3617 23.0977 47.6562 21.0938 47.6562C19.0898 47.6562 17.332 46.3617 16.6797 44.5312H15.0453C15.7484 47.2453 18.2344 49.2188 21.0938 49.2188H39.0625C42.6758 49.2188 45.6578 46.4789 46.0477 42.9688H46.875C48.1672 42.9688 49.2188 41.9172 49.2188 40.625V31.25C49.2188 28.482 47.15 26.1938 44.4781 25.8359ZM2.34375 47.6562V46.9297C2.34375 46.668 2.47344 46.425 2.69141 46.2797L4.11797 45.3289C4.40469 45.1367 4.62266 44.8508 4.73125 44.5234L5.07188 43.5023C5.17891 43.1836 5.47734 42.9688 5.81328 42.9688H6.79453L8.29141 43.9664L7.91563 44.5312H6.25V46.0938H6.87344L5.83203 47.6562H2.34375ZM11.7188 47.6562H7.70937L10.4586 43.5336L7.91016 41.8344L10.5805 29.8195C10.6992 29.2812 11.168 28.9062 11.7188 28.9062V47.6562ZM17.0039 36.3445L18.5789 37.2633C17.9195 37.5555 17.3133 37.9539 16.7898 38.45L17.0039 36.3445ZM47.5773 30.4688H44.5312V27.4227C46.0594 27.7344 47.2656 28.9406 47.5773 30.4688ZM41.4062 23.2469L34.0328 22.6562C33.8828 22.6562 33.7367 22.6734 33.5938 22.7008V13.2812H41.4062V23.2469ZM29.1352 25.5523L30.2398 24.4477L27.1148 21.3227L26.0102 22.4273L27.0203 23.4375L25.7898 24.668C25.5914 24.5273 25.3734 24.4156 25.1375 24.3406L27.2102 13.2812H32.0312V23.7898C31.9125 23.9859 31.8172 24.2 31.7586 24.432L30.6398 28.9062H27.2242L26.7797 26.2359C26.7641 26.1406 26.7344 26.0508 26.7078 25.9594L28.125 24.5422L29.1352 25.5523ZM26.5625 10.1562H43.75L43.7508 11.7188H26.5625V10.1562ZM23.5508 35.2289L17.4773 31.6859L17.7586 28.9062C17.8516 27.8859 18.5859 27.0516 19.5844 26.8297L24.2148 25.8016C24.6734 25.6984 25.1594 26.0195 25.2383 26.493L25.9008 30.4688H31.8602L33.2742 24.8109C33.3617 24.4625 33.6734 24.2188 33.9703 24.2164L41.532 24.8242C42.3383 24.8891 42.9695 25.5727 42.9695 26.382V32.4844C41.4633 31.2273 39.5281 30.4688 37.4188 30.4688C36.3391 30.4688 35.2812 30.6672 34.275 31.0586L23.5508 35.2289ZM33.5938 36.7188C32.732 36.7188 32.0312 36.018 32.0312 35.1562C32.0312 34.2945 32.732 33.5938 33.5938 33.5938C34.4555 33.5938 35.1562 34.2945 35.1562 35.1562C35.1562 36.018 34.4555 36.7188 33.5938 36.7188ZM39.0625 35.1562C38.2297 35.1562 37.4258 35.3047 36.6766 35.575C36.6953 35.4367 36.7188 35.3 36.7188 35.1562C36.7188 33.9781 36.0563 32.9633 35.0914 32.4305C35.8414 32.1703 36.6219 32.0312 37.4188 32.0312C40.7984 32.0312 43.6289 34.4023 44.3492 37.5664C43.0594 36.093 41.1703 35.1562 39.0625 35.1562ZM46.875 41.4062H46.0938V39.1437C46.0938 37.3023 45.5133 35.5969 44.5312 34.1914V32.0312H47.6562V33.5938H46.0938V35.1562H47.6562V40.625C47.6562 41.0555 47.3063 41.4062 46.875 41.4062Z" fill="currentCOlor"/>
</svg>
